<svg xmlns="http://www.w3.org/2000/svg" xmlns:xlink="http://www.w3.org/1999/xlink" width="650" zoomAndPan="magnify" viewBox="0 0 487.5 502.499993" height="670" preserveAspectRatio="xMidYMid meet" version="1.0"><defs><g/><clipPath id="4a15c9bdb1"><path d="M 42.707031 0.0078125 L 444.292969 0.0078125 L 444.292969 501.992188 L 42.707031 501.992188 Z M 42.707031 0.0078125 " clip-rule="nonzero"/></clipPath><clipPath id="868455b99a"><path d="M 42.707031 0.0078125 L 444.292969 0.0078125 L 444.292969 501.992188 L 42.707031 501.992188 Z M 42.707031 0.0078125 " clip-rule="nonzero"/></clipPath></defs><g fill="#ffffff" fill-opacity="1"><g transform="translate(212.970392, 255.134526)"><g><path d="M 2.953125 0.125 C 2.546875 0.125 2.164062 0.0703125 1.8125 -0.03125 C 1.46875 -0.144531 1.175781 -0.296875 0.9375 -0.484375 C 0.707031 -0.671875 0.539062 -0.878906 0.4375 -1.109375 L 1 -1.703125 L 1.125 -1.703125 C 1.332031 -1.378906 1.582031 -1.132812 1.875 -0.96875 C 2.175781 -0.8125 2.535156 -0.734375 2.953125 -0.734375 C 3.421875 -0.734375 3.78125 -0.828125 4.03125 -1.015625 C 4.28125 -1.203125 4.40625 -1.457031 4.40625 -1.78125 C 4.40625 -2.039062 4.328125 -2.253906 4.171875 -2.421875 C 4.023438 -2.585938 3.785156 -2.710938 3.453125 -2.796875 L 2.359375 -3.0625 C 1.773438 -3.195312 1.347656 -3.414062 1.078125 -3.71875 C 0.816406 -4.03125 0.6875 -4.410156 0.6875 -4.859375 C 0.6875 -5.210938 0.773438 -5.519531 0.953125 -5.78125 C 1.128906 -6.039062 1.382812 -6.238281 1.71875 -6.375 C 2.0625 -6.519531 2.46875 -6.59375 2.9375 -6.59375 C 3.53125 -6.59375 4 -6.507812 4.34375 -6.34375 C 4.6875 -6.175781 4.953125 -5.941406 5.140625 -5.640625 L 4.59375 -5.109375 L 4.484375 -5.109375 C 4.273438 -5.347656 4.046875 -5.519531 3.796875 -5.625 C 3.554688 -5.738281 3.269531 -5.796875 2.9375 -5.796875 C 2.507812 -5.796875 2.179688 -5.71875 1.953125 -5.5625 C 1.734375 -5.40625 1.625 -5.1875 1.625 -4.90625 C 1.625 -4.632812 1.703125 -4.421875 1.859375 -4.265625 C 2.015625 -4.109375 2.296875 -3.976562 2.703125 -3.875 L 3.765625 -3.625 C 4.328125 -3.488281 4.734375 -3.265625 4.984375 -2.953125 C 5.234375 -2.648438 5.359375 -2.265625 5.359375 -1.796875 C 5.359375 -1.421875 5.269531 -1.085938 5.09375 -0.796875 C 4.914062 -0.503906 4.644531 -0.273438 4.28125 -0.109375 C 3.914062 0.046875 3.472656 0.125 2.953125 0.125 Z M 2.953125 0.125 "/></g></g></g><g fill="#ffffff" fill-opacity="1"><g transform="translate(218.94218, 255.134526)"><g><path d="M 3.703125 0.125 C 3.097656 0.125 2.566406 -0.00390625 2.109375 -0.265625 C 1.660156 -0.523438 1.3125 -0.90625 1.0625 -1.40625 C 0.820312 -1.90625 0.703125 -2.515625 0.703125 -3.234375 C 0.703125 -3.941406 0.820312 -4.546875 1.0625 -5.046875 C 1.3125 -5.554688 1.660156 -5.941406 2.109375 -6.203125 C 2.566406 -6.460938 3.097656 -6.59375 3.703125 -6.59375 C 4.316406 -6.59375 4.847656 -6.460938 5.296875 -6.203125 C 5.753906 -5.941406 6.101562 -5.554688 6.34375 -5.046875 C 6.582031 -4.546875 6.703125 -3.941406 6.703125 -3.234375 C 6.703125 -2.515625 6.582031 -1.90625 6.34375 -1.40625 C 6.101562 -0.90625 5.753906 -0.523438 5.296875 -0.265625 C 4.847656 -0.00390625 4.316406 0.125 3.703125 0.125 Z M 3.703125 -0.734375 C 4.347656 -0.734375 4.84375 -0.9375 5.1875 -1.34375 C 5.53125 -1.75 5.703125 -2.378906 5.703125 -3.234375 C 5.703125 -4.085938 5.53125 -4.71875 5.1875 -5.125 C 4.84375 -5.53125 4.347656 -5.734375 3.703125 -5.734375 C 3.066406 -5.734375 2.578125 -5.523438 2.234375 -5.109375 C 1.890625 -4.703125 1.71875 -4.078125 1.71875 -3.234375 C 1.71875 -2.378906 1.890625 -1.75 2.234375 -1.34375 C 2.578125 -0.9375 3.066406 -0.734375 3.703125 -0.734375 Z M 3.703125 -0.734375 "/></g></g></g><g fill="#ffffff" fill-opacity="1"><g transform="translate(226.354223, 255.134526)"><g><path d="M 1.125 0 L 1.125 -9.0625 L 2.078125 -9.0625 L 2.078125 -5.546875 L 2.203125 -5.515625 C 2.660156 -6.234375 3.328125 -6.59375 4.203125 -6.59375 C 4.984375 -6.59375 5.546875 -6.390625 5.890625 -5.984375 C 6.242188 -5.585938 6.421875 -4.976562 6.421875 -4.15625 L 6.421875 0 L 5.46875 0 L 5.46875 -4.140625 C 5.46875 -4.523438 5.414062 -4.835938 5.3125 -5.078125 C 5.207031 -5.316406 5.050781 -5.488281 4.84375 -5.59375 C 4.632812 -5.695312 4.363281 -5.75 4.03125 -5.75 C 3.4375 -5.75 2.960938 -5.5625 2.609375 -5.1875 C 2.253906 -4.8125 2.078125 -4.1875 2.078125 -3.3125 L 2.078125 0 Z M 1.125 0 "/></g></g></g><g fill="#ffffff" fill-opacity="1"><g transform="translate(233.789685, 255.134526)"><g><path d="M 1.125 0 L 1.125 -6.46875 L 2.03125 -6.46875 L 2.03125 -5.453125 L 2.15625 -5.421875 C 2.375 -5.796875 2.648438 -6.082031 2.984375 -6.28125 C 3.316406 -6.488281 3.722656 -6.59375 4.203125 -6.59375 C 4.984375 -6.59375 5.546875 -6.390625 5.890625 -5.984375 C 6.242188 -5.585938 6.421875 -4.976562 6.421875 -4.15625 L 6.421875 0 L 5.46875 0 L 5.46875 -4.140625 C 5.46875 -4.523438 5.414062 -4.835938 5.3125 -5.078125 C 5.207031 -5.316406 5.050781 -5.488281 4.84375 -5.59375 C 4.632812 -5.695312 4.363281 -5.75 4.03125 -5.75 C 3.445312 -5.75 2.972656 -5.554688 2.609375 -5.171875 C 2.253906 -4.785156 2.078125 -4.164062 2.078125 -3.3125 L 2.078125 0 Z M 1.125 0 "/></g></g></g><g fill="#ffffff" fill-opacity="1"><g transform="translate(241.225147, 255.134526)"><g><path d="M 2.671875 0.125 C 2.035156 0.125 1.535156 -0.0390625 1.171875 -0.375 C 0.816406 -0.707031 0.640625 -1.179688 0.640625 -1.796875 C 0.640625 -2.179688 0.71875 -2.503906 0.875 -2.765625 C 1.03125 -3.035156 1.273438 -3.25 1.609375 -3.40625 C 1.941406 -3.570312 2.375 -3.703125 2.90625 -3.796875 C 3.375 -3.878906 3.726562 -3.96875 3.96875 -4.0625 C 4.21875 -4.15625 4.382812 -4.265625 4.46875 -4.390625 C 4.550781 -4.515625 4.59375 -4.664062 4.59375 -4.84375 C 4.59375 -5.132812 4.492188 -5.359375 4.296875 -5.515625 C 4.097656 -5.671875 3.773438 -5.75 3.328125 -5.75 C 2.910156 -5.75 2.550781 -5.664062 2.25 -5.5 C 1.957031 -5.34375 1.6875 -5.101562 1.4375 -4.78125 L 1.3125 -4.78125 L 0.84375 -5.453125 C 1.113281 -5.796875 1.457031 -6.070312 1.875 -6.28125 C 2.300781 -6.488281 2.785156 -6.59375 3.328125 -6.59375 C 4.085938 -6.59375 4.648438 -6.421875 5.015625 -6.078125 C 5.378906 -5.742188 5.5625 -5.285156 5.5625 -4.703125 L 5.5625 -1.265625 C 5.5625 -0.910156 5.710938 -0.734375 6.015625 -0.734375 C 6.117188 -0.734375 6.21875 -0.75 6.3125 -0.78125 L 6.390625 -0.765625 L 6.5 -0.09375 C 6.425781 -0.0507812 6.332031 -0.0195312 6.21875 0 C 6.101562 0.03125 5.984375 0.046875 5.859375 0.046875 C 5.503906 0.046875 5.234375 -0.03125 5.046875 -0.1875 C 4.867188 -0.34375 4.757812 -0.570312 4.71875 -0.875 L 4.59375 -0.890625 C 4.40625 -0.546875 4.15625 -0.289062 3.84375 -0.125 C 3.53125 0.0390625 3.140625 0.125 2.671875 0.125 Z M 2.875 -0.640625 C 3.238281 -0.640625 3.550781 -0.722656 3.8125 -0.890625 C 4.070312 -1.054688 4.269531 -1.289062 4.40625 -1.59375 C 4.550781 -1.894531 4.625 -2.238281 4.625 -2.625 L 4.625 -3.453125 L 4.515625 -3.46875 C 4.367188 -3.375 4.191406 -3.289062 3.984375 -3.21875 C 3.785156 -3.15625 3.5 -3.09375 3.125 -3.03125 C 2.75 -2.976562 2.453125 -2.898438 2.234375 -2.796875 C 2.015625 -2.691406 1.859375 -2.554688 1.765625 -2.390625 C 1.671875 -2.234375 1.625 -2.035156 1.625 -1.796875 C 1.625 -1.421875 1.734375 -1.132812 1.953125 -0.9375 C 2.171875 -0.738281 2.476562 -0.640625 2.875 -0.640625 Z M 2.875 -0.640625 "/></g></g></g><g clip-path="url(#4a15c9bdb1)"><path fill="#ffffff" d="M 424.214844 80.324219 L 424.214844 60.246094 L 404.136719 60.246094 L 404.136719 40.167969 L 384.054688 40.167969 L 384.054688 20.085938 L 363.976562 20.085938 L 363.976562 0.0078125 L 102.945312 0.0078125 L 102.945312 20.085938 L 82.863281 20.085938 L 82.863281 40.167969 L 62.785156 40.167969 L 62.785156 60.246094 L 42.707031 60.246094 L 42.707031 441.753906 L 62.785156 441.753906 L 62.785156 461.832031 L 82.863281 461.832031 L 82.863281 481.914062 L 102.945312 481.914062 L 102.945312 501.992188 L 363.976562 501.992188 L 363.976562 481.914062 L 384.054688 481.914062 L 384.054688 461.832031 L 404.136719 461.832031 L 404.136719 441.753906 L 424.214844 441.753906 L 424.214844 421.675781 L 444.292969 421.675781 L 444.292969 80.324219 Z M 283.660156 341.355469 L 243.5 341.355469 L 243.5 321.277344 L 263.578125 321.277344 L 263.578125 301.199219 L 283.660156 301.199219 Z M 283.660156 341.355469 " fill-opacity="1" fill-rule="nonzero"/></g><path fill="#6733f6" d="M 404.136719 100.40625 L 404.136719 80.324219 L 384.054688 80.324219 L 384.054688 60.246094 L 363.976562 60.246094 L 363.976562 40.167969 L 343.898438 40.167969 L 343.898438 20.085938 L 123.023438 20.085938 L 123.023438 40.167969 L 102.945312 40.167969 L 102.945312 60.246094 L 82.863281 60.246094 L 82.863281 80.324219 L 62.785156 80.324219 L 62.785156 421.675781 L 82.863281 421.675781 L 82.863281 441.753906 L 102.945312 441.753906 L 102.945312 461.832031 L 123.023438 461.832031 L 123.023438 481.914062 L 343.898438 481.914062 L 343.898438 461.832031 L 363.976562 461.832031 L 363.976562 441.753906 L 384.054688 441.753906 L 384.054688 421.675781 L 404.136719 421.675781 L 404.136719 401.59375 L 424.214844 401.59375 L 424.214844 100.40625 Z M 203.339844 160.644531 L 263.578125 160.644531 L 263.578125 180.722656 L 243.5 180.722656 L 243.5 200.800781 L 223.421875 200.800781 L 223.421875 220.878906 L 203.339844 220.878906 Z M 303.738281 361.4375 L 203.339844 361.4375 L 203.339844 321.277344 L 223.421875 321.277344 L 223.421875 301.199219 L 243.5 301.199219 L 243.5 281.117188 L 263.578125 281.117188 L 263.578125 261.039062 L 283.660156 261.039062 L 283.660156 240.960938 L 303.738281 240.960938 Z M 303.738281 361.4375 " fill-opacity="1" fill-rule="nonzero"/><path fill="#fc98ec" d="M 363.976562 100.402344 L 363.976562 80.324219 L 343.898438 80.324219 L 343.898438 60.246094 L 323.816406 60.246094 L 323.816406 40.167969 L 163.1875 40.167969 L 92.90625 136.5 L 94.5 381.515625 L 163.1875 461.835938 L 323.816406 461.832031 L 323.816406 441.753906 L 343.898438 441.753906 L 343.898438 421.675781 L 363.976562 421.675781 L 363.976562 401.59375 L 384.054688 401.59375 L 384.054688 100.402344 Z M 163.183594 120.484375 L 303.738281 120.484375 L 303.738281 140.5625 L 283.660156 140.5625 L 283.660156 180.722656 L 263.578125 180.722656 L 263.578125 200.800781 L 243.5 200.800781 L 243.5 220.878906 L 223.421875 220.878906 L 223.421875 240.960938 L 203.339844 240.960938 L 203.339844 261.039062 L 183.261719 261.039062 L 183.261719 281.117188 L 163.183594 281.117188 Z M 323.816406 381.515625 L 163.183594 381.515625 L 163.183594 341.355469 L 183.261719 341.355469 L 183.261719 321.277344 L 203.339844 321.277344 L 203.339844 301.199219 L 223.421875 301.199219 L 223.421875 281.117188 L 243.5 281.117188 L 243.5 261.039062 L 263.578125 261.039062 L 263.578125 240.960938 L 283.660156 240.960938 L 283.660156 220.878906 L 303.738281 220.878906 L 303.738281 200.800781 L 323.816406 200.800781 Z M 323.816406 381.515625 " fill-opacity="1" fill-rule="nonzero"/><path fill="#fb4299" d="M 143.109375 40.167969 L 143.109375 60.246094 L 123.027344 60.246094 L 123.027344 80.324219 L 102.949219 80.324219 L 102.949219 100.40625 L 82.871094 100.40625 L 82.871094 401.597656 L 102.949219 401.597656 L 102.949219 421.675781 L 123.027344 421.675781 L 123.027344 441.753906 L 143.109375 441.753906 L 143.109375 461.835938 L 163.1875 461.835938 L 163.1875 421.675781 L 143.109375 421.675781 L 143.109375 401.597656 L 123.027344 401.597656 L 123.027344 100.40625 L 143.109375 100.40625 L 143.109375 80.324219 L 163.1875 80.324219 L 163.1875 40.167969 Z M 143.109375 40.167969 " fill-opacity="1" fill-rule="nonzero"/><path fill="#fbbad8" d="M 343.902344 321.277344 L 343.902344 361.4375 L 363.980469 361.4375 L 363.980469 301.199219 L 343.902344 301.199219 Z M 343.902344 180.722656 L 343.902344 220.882812 L 363.980469 220.882812 L 363.980469 180.722656 Z M 343.902344 180.722656 " fill-opacity="1" fill-rule="nonzero"/><g clip-path="url(#868455b99a)"><path fill="#ffffff" d="M 444.296875 80.324219 L 444.296875 421.675781 L 424.21875 421.675781 L 424.21875 441.753906 L 404.140625 441.753906 L 404.140625 461.835938 L 384.058594 461.835938 L 384.058594 481.914062 L 363.980469 481.914062 L 363.980469 501.992188 L 102.949219 501.992188 L 102.949219 481.914062 L 82.871094 481.914062 L 82.871094 461.835938 L 62.789062 461.835938 L 62.789062 441.753906 L 42.710938 441.753906 L 42.710938 60.246094 L 62.789062 60.246094 L 62.789062 40.167969 L 82.871094 40.167969 L 82.871094 20.089844 L 102.949219 20.089844 L 102.949219 0.0078125 L 363.980469 0.0078125 L 363.980469 20.089844 L 384.058594 20.089844 L 384.058594 40.167969 L 404.140625 40.167969 L 404.140625 60.246094 L 424.21875 60.246094 L 424.21875 80.324219 Z M 424.21875 100.40625 L 404.140625 100.40625 L 404.140625 80.324219 L 384.058594 80.324219 L 384.058594 60.246094 L 363.980469 60.246094 L 363.980469 40.167969 L 343.902344 40.167969 L 343.902344 20.089844 L 123.027344 20.089844 L 123.027344 40.167969 L 102.949219 40.167969 L 102.949219 60.246094 L 82.871094 60.246094 L 82.871094 80.324219 L 62.789062 80.324219 L 62.789062 421.675781 L 82.871094 421.675781 L 82.871094 441.753906 L 102.949219 441.753906 L 102.949219 461.835938 L 123.027344 461.835938 L 123.027344 481.914062 L 343.902344 481.914062 L 343.902344 461.835938 L 363.980469 461.835938 L 363.980469 441.753906 L 384.058594 441.753906 L 384.058594 421.675781 L 404.140625 421.675781 L 404.140625 401.597656 L 424.21875 401.597656 Z M 343.902344 301.199219 L 363.980469 301.199219 L 363.980469 281.121094 L 343.902344 281.121094 Z M 343.902344 160.644531 L 343.902344 180.722656 L 363.980469 180.722656 L 363.980469 140.5625 L 343.902344 140.5625 Z M 283.664062 240.960938 L 303.742188 240.960938 L 303.742188 361.4375 L 203.347656 361.4375 L 203.347656 321.277344 L 223.425781 321.277344 L 223.425781 301.199219 L 243.503906 301.199219 L 243.503906 281.121094 L 263.585938 281.121094 L 263.585938 261.039062 L 283.664062 261.039062 Z M 283.664062 301.199219 L 263.585938 301.199219 L 263.585938 321.277344 L 243.503906 321.277344 L 243.503906 341.359375 L 283.664062 341.359375 Z M 223.425781 200.800781 L 243.503906 200.800781 L 243.503906 180.722656 L 263.585938 180.722656 L 263.585938 160.644531 L 203.347656 160.644531 L 203.347656 220.882812 L 223.425781 220.882812 Z M 223.425781 200.800781 " fill-opacity="1" fill-rule="nonzero"/></g></svg>