<svg xmlns="http://www.w3.org/2000/svg" xmlns:xlink="http://www.w3.org/1999/xlink" width="650" zoomAndPan="magnify" viewBox="0 0 487.5 675.000002" height="900" preserveAspectRatio="xMidYMid meet" version="1.0"><defs><g/></defs><g fill="#ffffff" fill-opacity="1"><g transform="translate(202.50877, 342.551726)"><g><path d="M 3.953125 0.171875 C 3.410156 0.171875 2.90625 0.0976562 2.4375 -0.046875 C 1.976562 -0.191406 1.585938 -0.390625 1.265625 -0.640625 C 0.941406 -0.890625 0.71875 -1.175781 0.59375 -1.5 L 1.34375 -2.28125 L 1.515625 -2.28125 C 1.796875 -1.851562 2.132812 -1.53125 2.53125 -1.3125 C 2.925781 -1.09375 3.398438 -0.984375 3.953125 -0.984375 C 4.597656 -0.984375 5.085938 -1.109375 5.421875 -1.359375 C 5.753906 -1.609375 5.921875 -1.957031 5.921875 -2.40625 C 5.921875 -2.738281 5.816406 -3.015625 5.609375 -3.234375 C 5.410156 -3.460938 5.085938 -3.632812 4.640625 -3.75 L 3.171875 -4.109375 C 2.390625 -4.296875 1.816406 -4.59375 1.453125 -5 C 1.097656 -5.40625 0.921875 -5.910156 0.921875 -6.515625 C 0.921875 -6.992188 1.039062 -7.40625 1.28125 -7.75 C 1.519531 -8.101562 1.863281 -8.375 2.3125 -8.5625 C 2.769531 -8.75 3.3125 -8.84375 3.9375 -8.84375 C 4.738281 -8.84375 5.367188 -8.726562 5.828125 -8.5 C 6.285156 -8.28125 6.640625 -7.972656 6.890625 -7.578125 L 6.171875 -6.859375 L 6.015625 -6.859375 C 5.734375 -7.179688 5.429688 -7.410156 5.109375 -7.546875 C 4.785156 -7.691406 4.394531 -7.765625 3.9375 -7.765625 C 3.363281 -7.765625 2.925781 -7.660156 2.625 -7.453125 C 2.320312 -7.253906 2.171875 -6.960938 2.171875 -6.578125 C 2.171875 -6.222656 2.273438 -5.9375 2.484375 -5.71875 C 2.703125 -5.507812 3.082031 -5.335938 3.625 -5.203125 L 5.0625 -4.859375 C 5.8125 -4.679688 6.351562 -4.382812 6.6875 -3.96875 C 7.03125 -3.550781 7.203125 -3.035156 7.203125 -2.421875 C 7.203125 -1.910156 7.078125 -1.457031 6.828125 -1.0625 C 6.585938 -0.675781 6.222656 -0.375 5.734375 -0.15625 C 5.253906 0.0625 4.660156 0.171875 3.953125 0.171875 Z M 3.953125 0.171875 "/></g></g></g><g fill="#ffffff" fill-opacity="1"><g transform="translate(210.526924, 342.551726)"><g><path d="M 4.984375 0.171875 C 4.160156 0.171875 3.445312 0 2.84375 -0.34375 C 2.238281 -0.695312 1.769531 -1.207031 1.4375 -1.875 C 1.113281 -2.550781 0.953125 -3.367188 0.953125 -4.328125 C 0.953125 -5.296875 1.113281 -6.113281 1.4375 -6.78125 C 1.769531 -7.457031 2.238281 -7.96875 2.84375 -8.3125 C 3.445312 -8.664062 4.160156 -8.84375 4.984375 -8.84375 C 5.796875 -8.84375 6.503906 -8.664062 7.109375 -8.3125 C 7.710938 -7.96875 8.175781 -7.457031 8.5 -6.78125 C 8.832031 -6.113281 9 -5.296875 9 -4.328125 C 9 -3.367188 8.832031 -2.550781 8.5 -1.875 C 8.175781 -1.207031 7.710938 -0.695312 7.109375 -0.34375 C 6.503906 0 5.796875 0.171875 4.984375 0.171875 Z M 4.984375 -0.984375 C 5.847656 -0.984375 6.507812 -1.253906 6.96875 -1.796875 C 7.425781 -2.347656 7.65625 -3.191406 7.65625 -4.328125 C 7.65625 -5.484375 7.425781 -6.332031 6.96875 -6.875 C 6.507812 -7.414062 5.847656 -7.6875 4.984375 -7.6875 C 4.117188 -7.6875 3.453125 -7.410156 2.984375 -6.859375 C 2.523438 -6.316406 2.296875 -5.472656 2.296875 -4.328125 C 2.296875 -3.191406 2.523438 -2.347656 2.984375 -1.796875 C 3.453125 -1.253906 4.117188 -0.984375 4.984375 -0.984375 Z M 4.984375 -0.984375 "/></g></g></g><g fill="#ffffff" fill-opacity="1"><g transform="translate(220.478867, 342.551726)"><g><path d="M 1.515625 0 L 1.515625 -12.15625 L 2.796875 -12.15625 L 2.796875 -7.4375 L 2.953125 -7.40625 C 3.578125 -8.363281 4.472656 -8.84375 5.640625 -8.84375 C 6.679688 -8.84375 7.4375 -8.578125 7.90625 -8.046875 C 8.375 -7.515625 8.609375 -6.691406 8.609375 -5.578125 L 8.609375 0 L 7.328125 0 L 7.328125 -5.546875 C 7.328125 -6.078125 7.257812 -6.5 7.125 -6.8125 C 7 -7.132812 6.796875 -7.363281 6.515625 -7.5 C 6.234375 -7.644531 5.863281 -7.71875 5.40625 -7.71875 C 4.613281 -7.71875 3.976562 -7.460938 3.5 -6.953125 C 3.03125 -6.453125 2.796875 -5.617188 2.796875 -4.453125 L 2.796875 0 Z M 1.515625 0 "/></g></g></g><g fill="#ffffff" fill-opacity="1"><g transform="translate(230.462254, 342.551726)"><g><path d="M 1.515625 0 L 1.515625 -8.671875 L 2.734375 -8.671875 L 2.734375 -7.3125 L 2.890625 -7.28125 C 3.179688 -7.78125 3.550781 -8.164062 4 -8.4375 C 4.445312 -8.707031 4.992188 -8.84375 5.640625 -8.84375 C 6.679688 -8.84375 7.4375 -8.578125 7.90625 -8.046875 C 8.375 -7.515625 8.609375 -6.691406 8.609375 -5.578125 L 8.609375 0 L 7.328125 0 L 7.328125 -5.546875 C 7.328125 -6.078125 7.257812 -6.5 7.125 -6.8125 C 7 -7.132812 6.796875 -7.363281 6.515625 -7.5 C 6.234375 -7.644531 5.863281 -7.71875 5.40625 -7.71875 C 4.625 -7.71875 3.992188 -7.457031 3.515625 -6.9375 C 3.035156 -6.425781 2.796875 -5.597656 2.796875 -4.453125 L 2.796875 0 Z M 1.515625 0 "/></g></g></g><g fill="#ffffff" fill-opacity="1"><g transform="translate(240.445642, 342.551726)"><g><path d="M 3.578125 0.171875 C 2.722656 0.171875 2.054688 -0.0507812 1.578125 -0.5 C 1.097656 -0.945312 0.859375 -1.585938 0.859375 -2.421875 C 0.859375 -2.929688 0.960938 -3.363281 1.171875 -3.71875 C 1.390625 -4.070312 1.71875 -4.359375 2.15625 -4.578125 C 2.601562 -4.804688 3.1875 -4.976562 3.90625 -5.09375 C 4.539062 -5.195312 5.019531 -5.3125 5.34375 -5.4375 C 5.675781 -5.570312 5.894531 -5.722656 6 -5.890625 C 6.113281 -6.054688 6.171875 -6.257812 6.171875 -6.5 C 6.171875 -6.894531 6.035156 -7.195312 5.765625 -7.40625 C 5.492188 -7.613281 5.0625 -7.71875 4.46875 -7.71875 C 3.90625 -7.71875 3.421875 -7.609375 3.015625 -7.390625 C 2.617188 -7.179688 2.253906 -6.859375 1.921875 -6.421875 L 1.765625 -6.421875 L 1.125 -7.3125 C 1.5 -7.78125 1.96875 -8.148438 2.53125 -8.421875 C 3.09375 -8.703125 3.738281 -8.84375 4.46875 -8.84375 C 5.488281 -8.84375 6.238281 -8.617188 6.71875 -8.171875 C 7.207031 -7.722656 7.453125 -7.101562 7.453125 -6.3125 L 7.453125 -1.703125 C 7.453125 -1.222656 7.660156 -0.984375 8.078125 -0.984375 C 8.210938 -0.984375 8.34375 -1.003906 8.46875 -1.046875 L 8.578125 -1.015625 L 8.71875 -0.140625 C 8.625 -0.078125 8.5 -0.03125 8.34375 0 C 8.195312 0.0390625 8.039062 0.0625 7.875 0.0625 C 7.394531 0.0625 7.03125 -0.0390625 6.78125 -0.25 C 6.539062 -0.457031 6.390625 -0.769531 6.328125 -1.1875 L 6.15625 -1.203125 C 5.914062 -0.742188 5.582031 -0.398438 5.15625 -0.171875 C 4.738281 0.0546875 4.210938 0.171875 3.578125 0.171875 Z M 3.859375 -0.859375 C 4.335938 -0.859375 4.753906 -0.96875 5.109375 -1.1875 C 5.460938 -1.414062 5.734375 -1.726562 5.921875 -2.125 C 6.117188 -2.53125 6.21875 -3 6.21875 -3.53125 L 6.21875 -4.640625 L 6.0625 -4.671875 C 5.875 -4.523438 5.640625 -4.40625 5.359375 -4.3125 C 5.078125 -4.226562 4.6875 -4.148438 4.1875 -4.078125 C 3.6875 -4.003906 3.285156 -3.894531 2.984375 -3.75 C 2.691406 -3.613281 2.484375 -3.4375 2.359375 -3.21875 C 2.234375 -3 2.171875 -2.734375 2.171875 -2.421875 C 2.171875 -1.910156 2.316406 -1.519531 2.609375 -1.25 C 2.910156 -0.988281 3.328125 -0.859375 3.859375 -0.859375 Z M 3.859375 -0.859375 "/></g></g></g><path fill="#0a0000" d="M 118.515625 236.40625 C 111.285156 236.40625 94.332031 234.75 79.910156 220.769531 C 61.910156 203.320312 54.527344 173.382812 57.96875 131.78125 C 58.113281 130.027344 59.628906 128.714844 61.410156 128.867188 C 63.167969 129.011719 64.472656 130.550781 64.328125 132.308594 C 61.050781 171.914062 67.789062 200.136719 84.351562 216.191406 C 100.707031 232.050781 121.117188 229.933594 121.324219 229.914062 C 123.039062 229.710938 124.652344 230.96875 124.851562 232.722656 C 125.050781 234.46875 123.792969 236.050781 122.042969 236.25 C 121.832031 236.273438 120.5625 236.40625 118.515625 236.40625 Z M 118.515625 236.40625 " fill-opacity="1" fill-rule="nonzero"/><path fill="#0a0000" d="M 43.832031 141.652344 C 40.640625 141.652344 37.019531 140.886719 32.957031 138.957031 C 13.734375 129.820312 14.976562 107.257812 14.988281 107.03125 C 15.042969 106.152344 15.820312 105.46875 16.683594 105.542969 C 17.558594 105.601562 18.226562 106.359375 18.171875 107.234375 C 18.121094 108.074219 17.082031 127.882812 34.328125 136.078125 C 51.144531 144.066406 58.902344 129.402344 59.222656 128.773438 C 59.417969 128.394531 59.753906 128.109375 60.160156 127.980469 C 60.570312 127.847656 61.007812 127.890625 61.386719 128.085938 C 72.054688 133.683594 80.042969 124.894531 80.378906 124.519531 C 80.613281 124.28125 97.730469 106.65625 92.0625 91.5625 C 88.835938 82.972656 79.046875 79.203125 70.835938 79.238281 C 64.925781 79.277344 57.855469 81.425781 55.730469 87.324219 C 54.882812 89.679688 55.011719 91.597656 56.121094 93.1875 C 59.28125 97.699219 69.714844 98.726562 73.46875 98.738281 C 74.351562 98.742188 75.0625 99.457031 75.058594 100.339844 C 75.054688 101.21875 74.34375 101.929688 73.464844 101.929688 C 73.460938 101.929688 73.460938 101.929688 73.460938 101.929688 C 72.839844 101.925781 58.269531 101.804688 53.511719 95.015625 C 51.78125 92.554688 51.519531 89.601562 52.730469 86.246094 C 54.972656 80.015625 61.902344 76.109375 70.8125 76.050781 C 70.878906 76.050781 70.945312 76.046875 71.011719 76.046875 C 80.320312 76.046875 91.308594 80.484375 95.046875 90.441406 C 101.433594 107.449219 83.480469 125.914062 82.710938 126.695312 C 82.679688 126.738281 73.503906 136.929688 61.253906 131.558594 C 59.253906 134.578125 53.527344 141.652344 43.832031 141.652344 Z M 43.832031 141.652344 " fill-opacity="1" fill-rule="nonzero"/><path fill="#0a0000" d="M 62.085938 108.164062 C 60.976562 108.164062 59.792969 108 58.546875 107.664062 C 48.886719 105.082031 44.28125 96.550781 45.585938 83.640625 C 46.375 75.804688 51.277344 68.957031 56.988281 67.707031 C 59.941406 67.066406 65.730469 67.382812 71.242188 76.777344 C 71.6875 77.535156 71.433594 78.511719 70.675781 78.957031 C 69.914062 79.40625 68.9375 79.148438 68.492188 78.390625 C 65.109375 72.632812 61.375 70.023438 57.667969 70.820312 C 53.320312 71.773438 49.40625 77.542969 48.757812 83.960938 C 47.960938 91.863281 49.15625 101.851562 59.371094 104.585938 C 61.753906 105.222656 63.722656 105.074219 65.199219 104.144531 C 67.441406 102.730469 67.996094 99.894531 68 99.863281 C 68.160156 99.003906 69.011719 98.429688 69.851562 98.585938 C 70.71875 98.742188 71.292969 99.5625 71.140625 100.425781 C 71.109375 100.597656 70.363281 104.632812 66.933594 106.816406 C 65.527344 107.714844 63.902344 108.164062 62.085938 108.164062 Z M 62.085938 108.164062 " fill-opacity="1" fill-rule="nonzero"/><path fill="#0a0000" d="M 43.210938 107.480469 C 39.03125 107.480469 34.730469 105.203125 30.417969 100.699219 C 22.339844 92.261719 22.429688 80.484375 25.933594 73.109375 C 28.464844 67.78125 32.570312 64.820312 36.832031 65.140625 C 47.359375 65.976562 51.566406 73.769531 51.742188 74.097656 C 52.148438 74.878906 51.847656 75.84375 51.070312 76.253906 C 50.289062 76.660156 49.324219 76.359375 48.914062 75.582031 C 48.773438 75.320312 45.300781 69.011719 36.578125 68.320312 C 33.691406 68.082031 30.726562 70.453125 28.8125 74.476562 C 25.765625 80.894531 25.6875 91.144531 32.722656 98.496094 C 36.613281 102.5625 40.367188 104.503906 43.769531 104.273438 C 47.746094 104.007812 50.117188 100.808594 50.140625 100.777344 C 50.65625 100.066406 51.648438 99.902344 52.363281 100.417969 C 53.074219 100.929688 53.242188 101.917969 52.734375 102.632812 C 52.601562 102.8125 49.519531 107.054688 44.035156 107.453125 C 43.761719 107.46875 43.488281 107.480469 43.210938 107.480469 Z M 43.210938 107.480469 " fill-opacity="1" fill-rule="nonzero"/><path fill="#0a0000" d="M 24.300781 111.277344 C 20.671875 111.277344 17.019531 109.519531 13.417969 106.042969 C 5.097656 98.007812 5.847656 81.832031 12.292969 74.230469 C 16.445312 69.339844 22.25 68.882812 27.828125 73.015625 C 28.535156 73.542969 28.683594 74.542969 28.160156 75.25 C 27.636719 75.957031 26.636719 76.101562 25.929688 75.578125 C 20.558594 71.59375 16.867188 73.765625 14.726562 76.292969 C 9.265625 82.734375 8.597656 96.953125 15.636719 103.75 C 18.984375 106.988281 22.242188 108.425781 25.355469 108.015625 C 30.285156 107.371094 33.410156 102.265625 33.441406 102.214844 C 33.894531 101.464844 34.878906 101.21875 35.628906 101.667969 C 36.382812 102.121094 36.628906 103.09375 36.179688 103.851562 C 36.023438 104.113281 32.261719 110.3125 25.796875 111.175781 C 25.300781 111.242188 24.800781 111.277344 24.300781 111.277344 Z M 24.300781 111.277344 " fill-opacity="1" fill-rule="nonzero"/><path fill="#0a0000" d="M 368.734375 236.40625 C 366.683594 236.40625 365.417969 236.273438 365.207031 236.25 C 363.457031 236.050781 362.195312 234.46875 362.394531 232.722656 C 362.59375 230.972656 364.164062 229.703125 365.917969 229.914062 C 366.179688 229.9375 386.710938 231.953125 402.980469 216.113281 C 419.480469 200.042969 426.191406 171.84375 422.917969 132.308594 C 422.773438 130.550781 424.078125 129.011719 425.835938 128.867188 C 427.625 128.710938 429.132812 130.027344 429.277344 131.78125 C 432.71875 173.382812 425.339844 203.320312 407.339844 220.769531 C 392.917969 234.746094 375.964844 236.40625 368.734375 236.40625 Z M 368.734375 236.40625 " fill-opacity="1" fill-rule="nonzero"/><path fill="#0a0000" d="M 443.414062 141.652344 C 433.71875 141.652344 427.996094 134.582031 425.992188 131.558594 C 413.738281 136.925781 404.570312 126.734375 404.476562 126.628906 C 403.769531 125.914062 385.8125 107.449219 392.199219 90.441406 C 395.9375 80.484375 406.929688 76.046875 416.234375 76.046875 C 416.300781 76.046875 416.367188 76.050781 416.433594 76.050781 C 425.347656 76.109375 432.277344 80.015625 434.519531 86.246094 C 435.730469 89.601562 435.464844 92.554688 433.738281 95.015625 C 428.980469 101.804688 414.40625 101.925781 413.789062 101.929688 C 413.789062 101.929688 413.785156 101.929688 413.785156 101.929688 C 412.90625 101.929688 412.191406 101.21875 412.191406 100.339844 C 412.1875 99.457031 412.898438 98.742188 413.78125 98.738281 C 417.53125 98.726562 427.964844 97.699219 431.128906 93.1875 C 432.238281 91.597656 432.367188 89.679688 431.519531 87.324219 C 429.394531 81.425781 422.320312 79.277344 416.410156 79.238281 C 416.351562 79.238281 416.292969 79.238281 416.234375 79.238281 C 408.03125 79.238281 398.386719 83.03125 395.1875 91.5625 C 389.519531 106.65625 406.636719 124.28125 406.808594 124.457031 C 407.203125 124.894531 415.195312 133.6875 425.863281 128.085938 C 426.238281 127.886719 426.683594 127.851562 427.089844 127.980469 C 427.496094 128.109375 427.832031 128.394531 428.027344 128.777344 C 428.347656 129.398438 436.113281 144.058594 452.917969 136.078125 C 470.210938 127.859375 469.089844 107.441406 469.074219 107.238281 C 469.019531 106.359375 469.683594 105.601562 470.566406 105.542969 C 471.445312 105.511719 472.203125 106.152344 472.257812 107.03125 C 472.273438 107.257812 473.511719 129.820312 454.289062 138.957031 C 450.226562 140.886719 446.605469 141.652344 443.414062 141.652344 Z M 443.414062 141.652344 " fill-opacity="1" fill-rule="nonzero"/><path fill="#0a0000" d="M 425.164062 108.164062 C 423.34375 108.164062 421.722656 107.714844 420.3125 106.816406 C 416.882812 104.632812 416.136719 100.597656 416.109375 100.425781 C 415.953125 99.558594 416.535156 98.734375 417.402344 98.582031 C 418.269531 98.425781 419.089844 99.003906 419.25 99.867188 C 419.261719 99.9375 419.824219 102.742188 422.050781 104.144531 C 423.527344 105.074219 425.484375 105.21875 427.875 104.585938 C 438.089844 101.851562 439.285156 91.863281 438.488281 83.960938 C 437.839844 77.542969 433.925781 71.773438 429.578125 70.820312 C 425.875 70.023438 422.136719 72.632812 418.753906 78.390625 C 418.308594 79.148438 417.332031 79.40625 416.574219 78.957031 C 415.8125 78.511719 415.558594 77.535156 416.003906 76.777344 C 421.519531 67.378906 427.296875 67.058594 430.261719 67.707031 C 435.96875 68.957031 440.871094 75.804688 441.660156 83.640625 C 442.964844 96.550781 438.359375 105.082031 428.699219 107.664062 C 427.453125 108 426.269531 108.164062 425.164062 108.164062 Z M 425.164062 108.164062 " fill-opacity="1" fill-rule="nonzero"/><path fill="#0a0000" d="M 444.035156 107.480469 C 443.761719 107.480469 443.484375 107.472656 443.210938 107.453125 C 437.730469 107.054688 434.644531 102.8125 434.515625 102.632812 C 434.003906 101.914062 434.167969 100.921875 434.886719 100.410156 C 435.601562 99.902344 436.597656 100.0625 437.105469 100.777344 C 437.160156 100.847656 439.527344 104.007812 443.480469 104.273438 C 446.90625 104.5 450.632812 102.558594 454.523438 98.496094 C 461.558594 91.148438 461.480469 80.894531 458.433594 74.480469 C 456.519531 70.453125 453.558594 68.085938 450.667969 68.320312 C 441.945312 69.011719 438.472656 75.320312 438.328125 75.585938 C 437.914062 76.363281 436.949219 76.660156 436.171875 76.246094 C 435.398438 75.835938 435.097656 74.875 435.507812 74.097656 C 435.679688 73.769531 439.886719 65.976562 450.417969 65.140625 C 454.675781 64.820312 458.785156 67.78125 461.316406 73.113281 C 464.816406 80.484375 464.90625 92.261719 456.828125 100.699219 C 452.515625 105.203125 448.21875 107.480469 444.035156 107.480469 Z M 444.035156 107.480469 " fill-opacity="1" fill-rule="nonzero"/><path fill="#0a0000" d="M 462.945312 111.277344 C 462.445312 111.277344 461.945312 111.242188 461.449219 111.175781 C 454.984375 110.3125 451.222656 104.113281 451.066406 103.851562 C 450.617188 103.09375 450.863281 102.117188 451.621094 101.664062 C 452.375 101.214844 453.355469 101.460938 453.804688 102.214844 C 453.835938 102.265625 456.960938 107.371094 461.890625 108.015625 C 464.992188 108.429688 468.261719 106.988281 471.613281 103.75 C 478.648438 96.953125 477.980469 82.734375 472.519531 76.292969 C 470.375 73.769531 466.695312 71.59375 461.316406 75.578125 C 460.609375 76.101562 459.609375 75.957031 459.085938 75.25 C 458.5625 74.542969 458.710938 73.542969 459.417969 73.015625 C 464.996094 68.882812 470.804688 69.335938 474.953125 74.230469 C 481.402344 81.832031 482.148438 98.007812 473.828125 106.042969 C 470.230469 109.519531 466.574219 111.277344 462.945312 111.277344 Z M 462.945312 111.277344 " fill-opacity="1" fill-rule="nonzero"/><path fill="#0a0000" d="M 352.847656 576.320312 C 351.8125 576.320312 350.800781 575.820312 350.183594 574.890625 C 349.210938 573.425781 349.613281 571.445312 351.082031 570.472656 C 376.40625 553.707031 389.941406 534.964844 391.3125 514.769531 C 393.402344 483.945312 366.113281 459.628906 365.835938 459.386719 C 364.515625 458.226562 364.378906 456.210938 365.539062 454.886719 C 366.703125 453.566406 368.714844 453.429688 370.039062 454.589844 C 371.261719 455.65625 399.957031 481.160156 397.679688 515.15625 C 396.183594 537.457031 381.691406 557.855469 354.605469 575.789062 C 354.0625 576.148438 353.453125 576.320312 352.847656 576.320312 Z M 352.847656 576.320312 " fill-opacity="1" fill-rule="nonzero"/><path fill="#0a0000" d="M 356.78125 673.878906 C 356.414062 673.878906 356.050781 673.753906 355.761719 673.511719 C 349.039062 667.929688 290.066406 618.648438 289.429688 608.097656 C 288.785156 597.375 323.074219 561.109375 331.550781 560.597656 C 331.640625 560.59375 331.726562 560.589844 331.820312 560.589844 C 340.652344 560.589844 366.277344 585.140625 366.671875 590.1875 C 366.996094 594.28125 360.402344 599.996094 356.894531 602.730469 C 357.382812 602.871094 357.875 603.019531 358.371094 603.175781 C 376.054688 608.679688 387.117188 618.546875 390.363281 631.710938 C 392.390625 639.925781 391.375 647.4375 387.34375 654.039062 C 378.425781 668.648438 358.015625 673.632812 357.148438 673.835938 C 357.027344 673.867188 356.90625 673.878906 356.78125 673.878906 Z M 331.917969 563.777344 C 331.859375 563.777344 331.800781 563.777344 331.742188 563.78125 C 324.730469 564.203125 292.058594 598.65625 292.613281 607.90625 C 293.027344 614.753906 332.152344 649.714844 357.167969 670.535156 C 360.890625 669.496094 377.332031 664.332031 384.628906 652.367188 C 388.195312 646.523438 389.082031 639.832031 387.265625 632.472656 C 380.050781 603.234375 333.117188 601.996094 332.644531 601.988281 C 331.761719 601.96875 331.0625 601.242188 331.078125 600.363281 C 331.097656 599.484375 331.835938 598.722656 332.703125 598.800781 C 333.136719 598.808594 342.121094 599.007812 353.015625 601.6875 C 353.085938 601.609375 353.167969 601.535156 353.257812 601.472656 C 358.3125 597.832031 363.660156 592.578125 363.492188 590.4375 C 362.863281 586.574219 338.867188 563.777344 331.917969 563.777344 Z M 331.917969 563.777344 " fill-opacity="1" fill-rule="nonzero"/><path fill="#0a0000" d="M 368.589844 668.707031 C 368.242188 668.707031 367.894531 668.59375 367.597656 668.359375 C 365.417969 666.621094 313.933594 625.527344 295.207031 599.351562 C 294.695312 598.636719 294.859375 597.640625 295.578125 597.128906 C 296.296875 596.617188 297.289062 596.78125 297.804688 597.496094 C 316.269531 623.308594 369.054688 665.441406 369.585938 665.863281 C 370.273438 666.414062 370.386719 667.414062 369.839844 668.105469 C 369.523438 668.5 369.0625 668.707031 368.589844 668.707031 Z M 368.589844 668.707031 " fill-opacity="1" fill-rule="nonzero"/><path fill="#0a0000" d="M 205.789062 574.96875 C 205.183594 574.96875 204.574219 574.796875 204.03125 574.4375 C 176.945312 556.503906 162.449219 536.105469 160.957031 513.804688 C 158.679688 479.808594 187.375 454.304688 188.597656 453.238281 C 189.921875 452.074219 191.933594 452.210938 193.097656 453.535156 C 194.257812 454.859375 194.121094 456.875 192.800781 458.035156 C 192.523438 458.277344 165.234375 482.59375 167.324219 513.417969 C 168.695312 533.613281 182.230469 552.355469 207.554688 569.121094 C 209.023438 570.09375 209.425781 572.074219 208.453125 573.539062 C 207.835938 574.46875 206.824219 574.96875 205.789062 574.96875 Z M 205.789062 574.96875 " fill-opacity="1" fill-rule="nonzero"/><path fill="#0a0000" d="M 201.855469 672.527344 C 201.730469 672.527344 201.609375 672.515625 201.484375 672.484375 C 200.621094 672.28125 180.210938 667.296875 171.292969 652.6875 C 167.261719 646.089844 166.246094 638.578125 168.273438 630.359375 C 171.519531 617.199219 182.582031 607.328125 200.265625 601.824219 C 200.761719 601.667969 201.253906 601.519531 201.742188 601.378906 C 198.234375 598.644531 191.640625 592.929688 191.960938 588.835938 C 192.359375 583.789062 217.980469 559.242188 226.816406 559.242188 C 226.90625 559.242188 226.996094 559.242188 227.085938 559.25 C 235.558594 559.757812 269.851562 596.023438 269.207031 606.75 C 268.570312 617.296875 209.597656 666.578125 202.871094 672.160156 C 202.585938 672.402344 202.222656 672.527344 201.855469 672.527344 Z M 225.964844 597.449219 C 226.832031 597.449219 227.539062 598.144531 227.558594 599.015625 C 227.574219 599.894531 226.875 600.621094 225.992188 600.636719 C 225.519531 600.648438 178.585938 601.882812 171.371094 631.121094 C 169.554688 638.484375 170.445312 645.183594 174.015625 651.027344 C 181.328125 663.007812 197.75 668.152344 201.464844 669.183594 C 226.480469 648.363281 265.609375 613.402344 266.023438 606.554688 C 266.578125 597.304688 233.90625 562.851562 226.890625 562.429688 C 226.832031 562.425781 226.773438 562.425781 226.714844 562.425781 C 219.769531 562.425781 195.773438 585.222656 195.140625 589.101562 C 194.972656 591.226562 200.324219 596.480469 205.378906 600.121094 C 205.46875 600.1875 205.546875 600.257812 205.621094 600.335938 C 216.515625 597.65625 225.5 597.457031 225.933594 597.449219 C 225.941406 597.449219 225.953125 597.449219 225.964844 597.449219 Z M 225.964844 597.449219 " fill-opacity="1" fill-rule="nonzero"/><path fill="#0a0000" d="M 190.042969 667.355469 C 189.574219 667.355469 189.109375 667.148438 188.796875 666.753906 C 188.246094 666.0625 188.359375 665.0625 189.050781 664.511719 C 189.582031 664.089844 242.367188 621.957031 260.832031 596.144531 C 261.347656 595.429688 262.339844 595.265625 263.058594 595.777344 C 263.773438 596.289062 263.9375 597.285156 263.425781 598 C 244.703125 624.175781 193.21875 665.269531 191.035156 667.007812 C 190.742188 667.242188 190.390625 667.355469 190.042969 667.355469 Z M 190.042969 667.355469 " fill-opacity="1" fill-rule="nonzero"/><path fill="#dae500" d="M 392.734375 160.644531 C 392.734375 195.667969 384.71875 224.074219 368.695312 245.867188 C 356.019531 262.632812 326.765625 288.527344 280.925781 323.546875 L 385.746094 333.886719 L 385.746094 482.816406 L 186.441406 462.136719 L 143.675781 387.8125 C 182.621094 345.71875 202.097656 314.792969 202.097656 295.046875 C 202.097656 281.632812 199.023438 270.832031 192.871094 262.632812 C 186.722656 254.4375 176.5625 250.339844 162.402344 250.339844 C 146.375 250.339844 130.164062 256.863281 113.765625 269.898438 L 113.765625 49.4375 C 134.074219 46.460938 155.507812 44.96875 178.058594 44.96875 C 235.265625 44.96875 283.160156 53.351562 321.734375 70.113281 C 369.066406 90.792969 392.734375 120.96875 392.734375 160.644531 Z M 392.734375 160.644531 " fill-opacity="1" fill-rule="nonzero"/><path fill="#b5d900" d="M 368.695312 245.867188 C 384.71875 224.074219 392.734375 195.667969 392.734375 160.644531 C 392.734375 120.96875 369.066406 90.792969 321.734375 70.113281 C 283.160156 53.351562 235.265625 44.96875 178.058594 44.96875 C 155.507812 44.96875 134.074219 46.460938 113.765625 49.4375 L 113.765625 74.03125 C 138.691406 71.199219 173.792969 69.84375 221.90625 73 C 345.296875 81.105469 356.105469 149.527344 352.5 209.847656 C 348.898438 270.167969 247.125 337.691406 247.125 337.691406 L 360.609375 356.597656 L 355.203125 445.730469 L 173.664062 439.929688 L 186.441406 462.136719 L 385.746094 482.816406 L 385.746094 333.886719 L 280.925781 323.546875 C 326.765625 288.527344 356.019531 262.632812 368.695312 245.867188 Z M 368.695312 245.867188 " fill-opacity="1" fill-rule="nonzero"/><path fill="#ffffff" d="M 277.863281 176.136719 C 328.101562 175.234375 324.5 104.113281 272.949219 108.613281 C 226.683594 112.652344 239.324219 176.828125 277.863281 176.136719 Z M 277.863281 176.136719 " fill-opacity="1" fill-rule="nonzero"/><path fill="#0a0000" d="M 268.207031 174.855469 C 279.828125 156.328125 278.496094 126.527344 264.882812 110.066406 C 231.855469 119.507812 239.667969 166.484375 268.207031 174.855469 Z M 268.207031 174.855469 " fill-opacity="1" fill-rule="nonzero"/><path fill="#ffffff" d="M 177.589844 175.535156 C 227.828125 174.636719 224.222656 103.511719 172.675781 108.011719 C 126.410156 112.054688 139.050781 176.226562 177.589844 175.535156 Z M 177.589844 175.535156 " fill-opacity="1" fill-rule="nonzero"/><path fill="#0a0000" d="M 167.933594 174.257812 C 179.550781 155.726562 178.222656 125.925781 164.609375 109.46875 C 131.582031 118.910156 139.394531 165.886719 167.933594 174.257812 Z M 167.933594 174.257812 " fill-opacity="1" fill-rule="nonzero"/><path fill="#0a0000" d="M 316.527344 78.21875 C 319.136719 56.261719 257.050781 55.175781 257.269531 72.492188 C 257.484375 89.804688 313.917969 100.175781 316.527344 78.21875 Z M 316.527344 78.21875 " fill-opacity="1" fill-rule="nonzero"/><path fill="#0a0000" d="M 200.921875 72.714844 C 196.71875 51.003906 137.253906 68.867188 142.734375 85.292969 C 148.210938 101.71875 205.125 94.421875 200.921875 72.714844 Z M 200.921875 72.714844 " fill-opacity="1" fill-rule="nonzero"/><path fill="#0a0000" d="M 218.28125 193.558594 C 216.152344 193.558594 214.019531 193.230469 212.191406 192.335938 C 209.8125 191.175781 208.222656 189.238281 207.460938 186.578125 C 206.675781 183.824219 207.015625 181.308594 208.476562 179.113281 C 212.320312 173.328125 222.773438 172.007812 223.214844 171.953125 C 224.101562 171.851562 224.882812 172.46875 224.988281 173.34375 C 225.09375 174.21875 224.472656 175.011719 223.597656 175.121094 C 220.980469 175.4375 213.640625 177.09375 211.132812 180.878906 C 210.199219 182.28125 210.003906 183.863281 210.53125 185.703125 C 211.039062 187.480469 212.039062 188.710938 213.585938 189.46875 C 218.902344 192.066406 228.417969 188.300781 228.515625 188.261719 C 229.339844 187.9375 230.261719 188.332031 230.589844 189.148438 C 230.917969 189.964844 230.523438 190.890625 229.707031 191.222656 C 229.386719 191.347656 223.828125 193.554688 218.28125 193.558594 Z M 218.28125 193.558594 " fill-opacity="1" fill-rule="nonzero"/><path fill="#0a0000" d="M 230.253906 221.542969 C 219.777344 221.542969 211.726562 217.535156 211.574219 217.457031 C 210.789062 217.058594 210.484375 216.097656 210.882812 215.316406 C 211.28125 214.53125 212.238281 214.214844 213.027344 214.617188 C 214.113281 215.171875 239.890625 227.910156 258.054688 203.917969 C 258.589844 203.21875 259.585938 203.082031 260.292969 203.609375 C 260.992188 204.140625 261.132812 205.140625 260.601562 205.84375 C 251.195312 218.265625 239.730469 221.542969 230.253906 221.542969 Z M 230.253906 221.542969 " fill-opacity="1" fill-rule="nonzero"/><path fill="#0a0000" d="M 206.292969 224.195312 C 205.847656 224.195312 205.40625 224.011719 205.089844 223.648438 C 204.511719 222.984375 204.582031 221.976562 205.246094 221.398438 C 211.277344 216.15625 209.203125 208.355469 209.113281 208.027344 C 208.875 207.179688 209.371094 206.300781 210.21875 206.0625 C 211.058594 205.824219 211.945312 206.316406 212.183594 207.164062 C 212.296875 207.570312 214.921875 217.214844 207.339844 223.804688 C 207.039062 224.066406 206.667969 224.195312 206.292969 224.195312 Z M 206.292969 224.195312 " fill-opacity="1" fill-rule="nonzero"/><path fill="#0a0000" d="M 268.375 207.71875 C 268.371094 207.71875 268.371094 207.71875 268.371094 207.71875 C 267.945312 207.71875 257.949219 207.59375 253.691406 198.5 C 253.316406 197.703125 253.660156 196.75 254.457031 196.378906 C 255.257812 196.003906 256.203125 196.351562 256.578125 197.148438 C 259.988281 204.429688 268.292969 204.53125 268.375 204.53125 C 269.257812 204.53125 269.96875 205.25 269.96875 206.128906 C 269.96875 207.007812 269.253906 207.71875 268.375 207.71875 Z M 268.375 207.71875 " fill-opacity="1" fill-rule="nonzero"/><path fill="#f4f411" d="M 265.289062 389.011719 C 266.488281 409.417969 300.714844 408.816406 300.113281 392.613281 C 299.511719 376.40625 264.085938 368.601562 265.289062 389.011719 Z M 265.289062 389.011719 " fill-opacity="1" fill-rule="nonzero"/><path fill="#f4f411" d="M 200.441406 410.617188 C 201.640625 431.023438 235.867188 430.425781 235.265625 414.21875 C 234.664062 398.011719 199.238281 390.210938 200.441406 410.617188 Z M 200.441406 410.617188 " fill-opacity="1" fill-rule="nonzero"/><path fill="#f4f411" d="M 306.742188 416.449219 C 307.628906 431.566406 332.984375 431.121094 332.539062 419.113281 C 332.09375 407.109375 305.851562 401.328125 306.742188 416.449219 Z M 306.742188 416.449219 " fill-opacity="1" fill-rule="nonzero"/><path fill="#f4f411" d="M 188.453125 370.832031 C 189.34375 385.949219 214.695312 385.503906 214.253906 373.5 C 213.808594 361.496094 187.5625 355.714844 188.453125 370.832031 Z M 188.453125 370.832031 " fill-opacity="1" fill-rule="nonzero"/><path fill="#f4f411" d="M 262.011719 281.191406 C 247.105469 278.492188 241.5625 303.230469 253.339844 305.625 C 265.117188 308.023438 276.917969 283.890625 262.011719 281.191406 Z M 262.011719 281.191406 " fill-opacity="1" fill-rule="nonzero"/><path fill="#f4f411" d="M 311.539062 375.632812 C 312.199219 390.75 331.0625 390.304688 330.730469 378.300781 C 330.402344 366.296875 310.875 360.515625 311.539062 375.632812 Z M 311.539062 375.632812 " fill-opacity="1" fill-rule="nonzero"/><path fill="#f4f411" d="M 232.878906 354.625 C 233.542969 369.742188 252.40625 369.300781 252.074219 357.292969 C 251.742188 345.289062 232.21875 339.507812 232.878906 354.625 Z M 232.878906 354.625 " fill-opacity="1" fill-rule="nonzero"/><path fill="#f4f411" d="M 210.664062 313.8125 C 211.324219 328.929688 230.1875 328.484375 229.855469 316.480469 C 229.527344 304.476562 210.003906 298.695312 210.664062 313.8125 Z M 210.664062 313.8125 " fill-opacity="1" fill-rule="nonzero"/><path fill="#f4f411" d="M 282.117188 256.191406 C 282.777344 271.308594 301.640625 270.863281 301.308594 258.859375 C 300.980469 246.855469 281.453125 241.074219 282.117188 256.191406 Z M 282.117188 256.191406 " fill-opacity="1" fill-rule="nonzero"/><path fill="#ff209b" d="M 223.316406 19.480469 C 223.316406 19.480469 207.101562 0.121094 194.042969 6.875 C 180.984375 13.628906 196.746094 28.484375 196.746094 28.484375 C 196.746094 28.484375 180.082031 28.484375 181.433594 41.085938 C 182.785156 53.691406 217.460938 48.289062 217.460938 48.289062 C 217.460938 48.289062 216.558594 60.894531 226.917969 62.246094 C 237.277344 63.59375 239.527344 51.890625 239.527344 51.890625 C 239.527344 51.890625 259.792969 64.496094 268.796875 58.644531 C 277.804688 52.792969 264.746094 38.386719 264.746094 38.386719 C 264.746094 38.386719 281.40625 36.585938 280.507812 26.683594 C 279.605469 16.777344 243.128906 23.53125 243.128906 23.53125 C 243.128906 23.53125 242.855469 14.050781 237.277344 12.277344 C 227.367188 9.125 223.316406 19.480469 223.316406 19.480469 Z M 223.316406 19.480469 " fill-opacity="1" fill-rule="nonzero"/><path fill="#ff5fbe" d="M 200.125 15.878906 C 194.492188 24.207031 218.699219 31.410156 219.824219 28.144531 C 220.949219 24.882812 205.753906 7.550781 200.125 15.878906 Z M 200.125 15.878906 " fill-opacity="1" fill-rule="nonzero"/><path fill="#ff5fbe" d="M 191.703125 38.613281 C 190.84375 48.625 215.492188 43.128906 214.886719 39.730469 C 214.277344 36.332031 192.558594 28.597656 191.703125 38.613281 Z M 191.703125 38.613281 " fill-opacity="1" fill-rule="nonzero"/><path fill="#ff5fbe" d="M 264.609375 49.375 C 268.175781 39.976562 242.960938 38.527344 242.617188 41.960938 C 242.269531 45.398438 261.046875 58.773438 264.609375 49.375 Z M 264.609375 49.375 " fill-opacity="1" fill-rule="nonzero"/><path fill="#ff5fbe" d="M 269.675781 30.375 C 270.390625 20.351562 245.824219 26.199219 246.480469 29.589844 C 247.136719 32.980469 268.964844 40.402344 269.675781 30.375 Z M 269.675781 30.375 " fill-opacity="1" fill-rule="nonzero"/></svg>