<svg xmlns="http://www.w3.org/2000/svg" xmlns:xlink="http://www.w3.org/1999/xlink" width="1080" zoomAndPan="magnify" viewBox="0 0 810 809.999993" height="1080" preserveAspectRatio="xMidYMid meet" version="1.0"><defs><g/><clipPath id="b219386ecc"><path d="M 21.324219 243 L 88 243 L 88 296 L 21.324219 296 Z M 21.324219 243 " clip-rule="nonzero"/></clipPath><clipPath id="55e0f94c5d"><path d="M 722 168 L 788.574219 168 L 788.574219 222 L 722 222 Z M 722 168 " clip-rule="nonzero"/></clipPath></defs><path fill="#8c52ff" d="M 369.417969 666.597656 C 369.417969 679.519531 369.253906 691.945312 368.933594 703.886719 C 368.601562 715.84375 368.117188 727.617188 367.480469 739.238281 C 366.832031 757.976562 363.605469 770.234375 357.792969 776.046875 C 351.988281 781.859375 339.710938 785.082031 320.988281 785.730469 L 166.988281 791.542969 L 142.773438 791.542969 C 125.339844 790.894531 113.0625 786.851562 105.964844 779.4375 C 98.855469 772.007812 96.597656 759.914062 99.1875 743.113281 C 101.761719 722.457031 104.347656 701.464844 106.9375 680.15625 C 109.507812 658.847656 112.75 637.871094 116.621094 617.199219 C 132.121094 532.617188 147.765625 448.667969 163.597656 365.371094 C 179.414062 282.074219 195.394531 198.140625 211.539062 113.542969 C 212.824219 109.03125 214.117188 104.675781 215.417969 100.46875 C 216.703125 96.273438 217.988281 91.914062 219.289062 87.390625 C 221.863281 75.132812 230.261719 68.015625 244.472656 66.082031 C 289.664062 59.632812 334.386719 52.371094 378.621094 44.289062 C 422.84375 36.222656 467.878906 31.546875 513.734375 30.242188 C 518.25 30.242188 522.605469 29.761719 526.8125 28.792969 C 531.003906 27.820312 535.363281 26.707031 539.886719 25.402344 C 554.082031 23.464844 564.90625 24.765625 572.335938 29.277344 C 579.75 33.800781 586.046875 42.835938 591.222656 56.398438 C 595.730469 68.671875 599.609375 81.910156 602.84375 96.105469 C 620.28125 170.367188 637.382812 244.300781 654.175781 317.910156 C 670.964844 391.519531 688.394531 465.46875 706.480469 539.714844 C 713.578125 568.136719 721.328125 595.890625 729.730469 623.011719 C 738.113281 650.128906 746.511719 677.25 754.910156 704.371094 C 755.546875 705.675781 756.195312 707.125 756.851562 708.730469 C 757.484375 710.347656 758.136719 711.804688 758.785156 713.089844 C 762.007812 724.714844 762.175781 732.945312 759.269531 737.789062 C 756.363281 742.628906 749.097656 746.671875 737.476562 749.890625 C 714.230469 755.703125 690.816406 761.515625 667.257812 767.328125 C 643.675781 773.140625 620.28125 778.953125 597.03125 784.765625 C 589.917969 786.699219 583.140625 788.636719 576.695312 790.574219 C 570.230469 792.511719 563.769531 794.765625 557.320312 797.355469 C 543.761719 802.515625 533.910156 803.484375 527.78125 800.261719 C 521.632812 797.019531 516.640625 788.300781 512.765625 774.109375 C 509.53125 761.203125 506.472656 748.605469 503.566406 736.332031 C 500.660156 724.078125 497.589844 711.484375 494.363281 698.558594 C 493.0625 693.402344 491.777344 688.390625 490.492188 683.546875 C 489.1875 678.707031 487.902344 673.058594 486.617188 666.597656 Z M 379.105469 496.128906 C 390.726562 498.066406 401.699219 499.683594 412.039062 500.972656 C 422.359375 502.269531 433.011719 500.65625 444 496.128906 C 436.886719 465.132812 430.105469 434.957031 423.65625 405.566406 C 417.195312 376.191406 410.417969 346.648438 403.320312 316.941406 L 398.476562 316.941406 C 395.238281 346.648438 392.011719 376.359375 388.789062 406.050781 C 385.550781 435.757812 382.328125 465.78125 379.105469 496.128906 Z M 379.105469 496.128906 " fill-opacity="1" fill-rule="nonzero"/><path fill="#ffffff" d="M 246.800781 145.183594 C 203.453125 214.964844 311.808594 276.707031 340.648438 204.417969 C 369.492188 132.132812 290.144531 75.402344 246.800781 145.183594 Z M 246.800781 145.183594 " fill-opacity="1" fill-rule="nonzero"/><path fill="#0b1f2d" d="M 300.988281 113.910156 C 298.257812 118.8125 295.617188 124.300781 293.101562 130.46875 C 276.410156 171.367188 282.222656 210.441406 297.3125 236.765625 C 314.820312 236.527344 331.625 227.035156 340.648438 204.417969 C 359.085938 158.210938 333.304688 118.425781 300.988281 113.910156 Z M 300.988281 113.910156 " fill-opacity="1" fill-rule="nonzero"/><path fill="#ffffff" d="M 440.171875 140.644531 C 396.828125 210.425781 505.183594 272.167969 534.023438 199.878906 C 562.863281 127.59375 483.519531 70.863281 440.171875 140.644531 Z M 440.171875 140.644531 " fill-opacity="1" fill-rule="nonzero"/><path fill="#0b1f2d" d="M 494.363281 109.371094 C 491.632812 114.273438 488.992188 119.761719 486.472656 125.929688 C 469.785156 166.828125 475.59375 205.902344 490.6875 232.226562 C 508.195312 231.988281 525 222.496094 534.023438 199.878906 C 552.457031 153.671875 526.675781 113.886719 494.363281 109.371094 Z M 494.363281 109.371094 " fill-opacity="1" fill-rule="nonzero"/><path fill="#0b1f2d" d="M 401.066406 321.777344 C 374.867188 321.777344 361.03125 309.945312 360.03125 309.054688 C 358.039062 307.289062 357.859375 304.238281 359.632812 302.25 C 361.398438 300.257812 364.441406 300.082031 366.417969 301.832031 C 367.988281 303.191406 405.746094 334.605469 480.238281 280.667969 C 482.402344 279.101562 485.417969 279.589844 486.976562 281.742188 C 488.539062 283.898438 488.058594 286.917969 485.902344 288.476562 C 450.089844 314.40625 421.734375 321.777344 401.066406 321.777344 Z M 401.066406 321.777344 " fill-opacity="1" fill-rule="nonzero"/><path fill="#0b1f2d" d="M 504.863281 302.101562 C 504.546875 302.101562 504.230469 302.074219 503.910156 302.007812 C 478.472656 296.917969 470.53125 264.363281 470.207031 262.980469 C 469.601562 260.390625 471.203125 257.796875 473.792969 257.183594 C 476.363281 256.59375 478.976562 258.179688 479.59375 260.765625 C 479.664062 261.042969 486.460938 288.679688 505.804688 292.550781 C 508.414062 293.074219 510.109375 295.613281 509.585938 298.226562 C 509.128906 300.519531 507.113281 302.101562 504.863281 302.101562 Z M 504.863281 302.101562 " fill-opacity="1" fill-rule="nonzero"/><path fill="#ffffff" d="M 160.78125 639.542969 C 139.902344 629.558594 115.390625 727.605469 135.363281 732.144531 C 155.335938 736.683594 181.664062 649.53125 160.78125 639.542969 Z M 160.78125 639.542969 " fill-opacity="1" fill-rule="nonzero"/><path fill="#ffffff" d="M 173.855469 564.996094 C 156.714844 562.773438 146.9375 616.996094 162.859375 616.527344 C 178.78125 616.058594 190.992188 567.21875 173.855469 564.996094 Z M 173.855469 564.996094 " fill-opacity="1" fill-rule="nonzero"/><path fill="#ffffff" d="M 208.351562 605.851562 C 191.214844 603.628906 181.4375 657.851562 197.359375 657.382812 C 213.28125 656.914062 225.492188 608.074219 208.351562 605.851562 Z M 208.351562 605.851562 " fill-opacity="1" fill-rule="nonzero"/><path fill="#ffffff" d="M 688.164062 640.070312 C 702.128906 639.0625 688.125 581.988281 676.152344 585.503906 C 664.183594 589.015625 674.199219 641.074219 688.164062 640.070312 Z M 688.164062 640.070312 " fill-opacity="1" fill-rule="nonzero"/><path fill="#ffffff" d="M 714.769531 710.113281 C 730.890625 703.878906 713.574219 651.574219 699.808594 659.59375 C 686.046875 667.613281 698.652344 716.351562 714.769531 710.113281 Z M 714.769531 710.113281 " fill-opacity="1" fill-rule="nonzero"/><path fill="#ffffff" d="M 664.945312 690.707031 C 681.0625 684.472656 663.746094 632.167969 649.984375 640.1875 C 636.222656 648.203125 648.828125 696.945312 664.945312 690.707031 Z M 664.945312 690.707031 " fill-opacity="1" fill-rule="nonzero"/><path fill="#ffffff" d="M 666.761719 555.4375 C 682.878906 549.203125 665.5625 496.894531 651.800781 504.914062 C 638.039062 512.933594 650.644531 561.671875 666.761719 555.4375 Z M 666.761719 555.4375 " fill-opacity="1" fill-rule="nonzero"/><path fill="#0b1f2d" d="M 158.300781 473.695312 C 130.714844 473.695312 107.800781 463.847656 90.164062 444.402344 C 35.605469 384.230469 49.597656 253.265625 50.21875 247.722656 C 50.519531 245.074219 52.875 243.210938 55.550781 243.464844 C 58.199219 243.761719 60.105469 246.148438 59.808594 248.796875 C 59.660156 250.109375 45.679688 380.996094 97.320312 437.933594 C 113.363281 455.609375 134.238281 464.480469 159.808594 464.042969 C 162.503906 464.070312 164.65625 466.132812 164.695312 468.796875 C 164.734375 471.460938 162.605469 473.648438 159.9375 473.6875 C 159.390625 473.695312 158.847656 473.695312 158.300781 473.695312 Z M 158.300781 473.695312 " fill-opacity="1" fill-rule="nonzero"/><g clip-path="url(#b219386ecc)"><path fill="#0b1f2d" d="M 53.792969 295.984375 C 52.621094 295.984375 51.417969 295.886719 50.167969 295.6875 C 23.902344 291.488281 21.683594 250.238281 21.601562 248.484375 C 21.480469 245.824219 23.535156 243.566406 26.195312 243.445312 C 28.847656 243.378906 31.105469 245.371094 31.238281 248.03125 C 31.253906 248.382812 33.441406 283.246094 51.695312 286.164062 C 69.375 289.003906 77.910156 252.144531 77.988281 251.773438 C 78.558594 249.167969 81.132812 247.503906 83.726562 248.078125 C 86.332031 248.644531 87.984375 251.21875 87.417969 253.816406 C 87.027344 255.621094 77.960938 295.984375 53.792969 295.984375 Z M 53.792969 295.984375 " fill-opacity="1" fill-rule="nonzero"/></g><path fill="#0b1f2d" d="M 651.691406 398.800781 C 651.144531 398.800781 650.597656 398.800781 650.054688 398.789062 C 647.386719 398.75 645.257812 396.5625 645.296875 393.902344 C 645.332031 391.234375 647.539062 389.132812 650.183594 389.144531 C 675.445312 389.628906 696.628906 380.71875 712.667969 363.035156 C 764.3125 306.097656 750.332031 175.207031 750.183594 173.894531 C 749.886719 171.246094 751.792969 168.859375 754.441406 168.5625 C 757.144531 168.289062 759.476562 170.175781 759.769531 172.820312 C 760.394531 178.363281 774.386719 309.328125 719.828125 369.503906 C 702.191406 388.945312 679.273438 398.800781 651.691406 398.800781 Z M 651.691406 398.800781 " fill-opacity="1" fill-rule="nonzero"/><g clip-path="url(#55e0f94c5d)"><path fill="#0b1f2d" d="M 756.195312 221.085938 C 732.023438 221.085938 722.964844 180.722656 722.570312 178.917969 C 722.007812 176.320312 723.660156 173.753906 726.261719 173.1875 C 728.851562 172.609375 731.4375 174.269531 731.996094 176.871094 C 732.078125 177.242188 740.78125 214.050781 758.296875 211.265625 C 776.546875 208.347656 778.738281 173.480469 778.753906 173.128906 C 778.882812 170.46875 781.285156 168.445312 783.796875 168.542969 C 786.457031 168.664062 788.511719 170.921875 788.390625 173.582031 C 788.308594 175.335938 786.089844 216.589844 759.824219 220.789062 C 758.578125 220.988281 757.371094 221.085938 756.195312 221.085938 Z M 756.195312 221.085938 " fill-opacity="1" fill-rule="nonzero"/></g><path fill="#0b1f2d" d="M 220.699219 36.726562 C 227.511719 57.152344 306.492188 43.535156 303.769531 21.746094 C 301.046875 -0.0429688 213.890625 16.300781 220.699219 36.726562 Z M 220.699219 36.726562 " fill-opacity="1" fill-rule="nonzero"/><path fill="#0b1f2d" d="M 461.714844 54.261719 C 460.847656 75.773438 539.535156 91.007812 544.707031 69.667969 C 549.875 48.328125 462.582031 32.746094 461.714844 54.261719 Z M 461.714844 54.261719 " fill-opacity="1" fill-rule="nonzero"/><g fill="#8c52ff" fill-opacity="1"><g transform="translate(272.760311, 592.788446)"><g><path d="M 10.453125 0 L 7.953125 0 L 7.953125 -8.40625 L 0.5625 -21.421875 L 3.3125 -21.421875 L 9.078125 -11.375 L 9.453125 -11.375 L 15.171875 -21.421875 L 17.875 -21.421875 L 10.453125 -8.40625 Z M 10.453125 0 "/></g></g><g transform="translate(291.173396, 592.788446)"><g><path d="M 9.265625 0.3125 C 7.742188 0.3125 6.421875 -0.0078125 5.296875 -0.65625 C 4.171875 -1.300781 3.300781 -2.25 2.6875 -3.5 C 2.070312 -4.757812 1.765625 -6.285156 1.765625 -8.078125 C 1.765625 -9.859375 2.070312 -11.378906 2.6875 -12.640625 C 3.300781 -13.898438 4.171875 -14.851562 5.296875 -15.5 C 6.421875 -16.144531 7.742188 -16.46875 9.265625 -16.46875 C 10.796875 -16.46875 12.125 -16.144531 13.25 -15.5 C 14.375 -14.851562 15.238281 -13.898438 15.84375 -12.640625 C 16.457031 -11.378906 16.765625 -9.859375 16.765625 -8.078125 C 16.765625 -6.285156 16.457031 -4.757812 15.84375 -3.5 C 15.238281 -2.25 14.375 -1.300781 13.25 -0.65625 C 12.125 -0.0078125 10.796875 0.3125 9.265625 0.3125 Z M 9.265625 -1.828125 C 10.878906 -1.828125 12.113281 -2.332031 12.96875 -3.34375 C 13.820312 -4.363281 14.25 -5.941406 14.25 -8.078125 C 14.25 -10.210938 13.820312 -11.785156 12.96875 -12.796875 C 12.113281 -13.816406 10.878906 -14.328125 9.265625 -14.328125 C 7.660156 -14.328125 6.425781 -13.816406 5.5625 -12.796875 C 4.707031 -11.773438 4.28125 -10.203125 4.28125 -8.078125 C 4.28125 -5.941406 4.707031 -4.363281 5.5625 -3.34375 C 6.425781 -2.332031 7.660156 -1.828125 9.265625 -1.828125 Z M 9.265625 -1.828125 "/></g></g><g transform="translate(309.718317, 592.788446)"><g><path d="M 7.984375 0.3125 C 6.160156 0.3125 4.800781 -0.171875 3.90625 -1.140625 C 3.007812 -2.109375 2.5625 -3.523438 2.5625 -5.390625 L 2.5625 -16.15625 L 4.953125 -16.15625 L 4.953125 -5.453125 C 4.953125 -2.992188 6.101562 -1.765625 8.40625 -1.765625 C 9.875 -1.765625 11.03125 -2.242188 11.875 -3.203125 C 12.726562 -4.160156 13.15625 -5.710938 13.15625 -7.859375 L 13.15625 -16.15625 L 15.546875 -16.15625 L 15.546875 0 L 13.28125 0 L 13.28125 -2.53125 L 12.984375 -2.609375 C 12.421875 -1.617188 11.75 -0.882812 10.96875 -0.40625 C 10.195312 0.0703125 9.203125 0.3125 7.984375 0.3125 Z M 7.984375 0.3125 "/></g></g><g transform="translate(328.072809, 592.788446)"><g><path d="M 2.8125 0 L 2.8125 -16.15625 L 5.078125 -16.15625 L 5.078125 -13.625 L 5.390625 -13.546875 C 6.140625 -15.378906 7.554688 -16.296875 9.640625 -16.296875 C 10.742188 -16.296875 11.566406 -16.097656 12.109375 -15.703125 L 11.5 -13.6875 L 11.203125 -13.625 C 10.597656 -13.925781 9.9375 -14.078125 9.21875 -14.078125 C 7.925781 -14.078125 6.929688 -13.59375 6.234375 -12.625 C 5.546875 -11.65625 5.203125 -10.085938 5.203125 -7.921875 L 5.203125 0 Z M 2.8125 0 "/></g></g><g transform="translate(340.553277, 592.788446)"><g/></g><g transform="translate(347.906792, 592.788446)"><g><path d="M 2.8125 6.546875 L 2.8125 -16.15625 L 5.203125 -16.15625 L 5.203125 -13.734375 L 5.515625 -13.6875 C 6.710938 -15.539062 8.472656 -16.46875 10.796875 -16.46875 C 12.140625 -16.46875 13.3125 -16.160156 14.3125 -15.546875 C 15.320312 -14.929688 16.101562 -13.992188 16.65625 -12.734375 C 17.21875 -11.484375 17.5 -9.929688 17.5 -8.078125 C 17.5 -6.222656 17.207031 -4.671875 16.625 -3.421875 C 16.039062 -2.171875 15.226562 -1.234375 14.1875 -0.609375 C 13.15625 0.00390625 11.96875 0.3125 10.625 0.3125 C 9.53125 0.3125 8.554688 0.125 7.703125 -0.25 C 6.859375 -0.632812 6.128906 -1.265625 5.515625 -2.140625 L 5.203125 -2.078125 L 5.203125 6.546875 Z M 10.09375 -1.828125 C 13.363281 -1.828125 15 -3.910156 15 -8.078125 C 15 -12.242188 13.363281 -14.328125 10.09375 -14.328125 C 9.132812 -14.328125 8.285156 -14.109375 7.546875 -13.671875 C 6.816406 -13.234375 6.242188 -12.546875 5.828125 -11.609375 C 5.410156 -10.671875 5.203125 -9.492188 5.203125 -8.078125 C 5.203125 -6.660156 5.410156 -5.484375 5.828125 -4.546875 C 6.242188 -3.617188 6.816406 -2.929688 7.546875 -2.484375 C 8.285156 -2.046875 9.132812 -1.828125 10.09375 -1.828125 Z M 10.09375 -1.828125 "/></g></g><g transform="translate(367.184135, 592.788446)"><g><path d="M 6.671875 0.3125 C 5.078125 0.3125 3.832031 -0.101562 2.9375 -0.9375 C 2.039062 -1.769531 1.59375 -2.957031 1.59375 -4.5 C 1.59375 -5.457031 1.789062 -6.265625 2.1875 -6.921875 C 2.582031 -7.578125 3.195312 -8.113281 4.03125 -8.53125 C 4.863281 -8.945312 5.945312 -9.269531 7.28125 -9.5 C 8.445312 -9.6875 9.335938 -9.898438 9.953125 -10.140625 C 10.566406 -10.390625 10.976562 -10.664062 11.1875 -10.96875 C 11.394531 -11.269531 11.5 -11.648438 11.5 -12.109375 C 11.5 -12.847656 11.242188 -13.410156 10.734375 -13.796875 C 10.234375 -14.191406 9.429688 -14.390625 8.328125 -14.390625 C 7.273438 -14.390625 6.375 -14.1875 5.625 -13.78125 C 4.882812 -13.375 4.203125 -12.769531 3.578125 -11.96875 L 3.28125 -11.96875 L 2.109375 -13.625 C 2.796875 -14.488281 3.664062 -15.175781 4.71875 -15.6875 C 5.769531 -16.207031 6.972656 -16.46875 8.328125 -16.46875 C 10.222656 -16.46875 11.625 -16.046875 12.53125 -15.203125 C 13.4375 -14.367188 13.890625 -13.21875 13.890625 -11.75 L 13.890625 -3.171875 C 13.890625 -2.273438 14.269531 -1.828125 15.03125 -1.828125 C 15.28125 -1.828125 15.523438 -1.875 15.765625 -1.96875 L 15.96875 -1.90625 L 16.25 -0.25 C 16.070312 -0.132812 15.835938 -0.046875 15.546875 0.015625 C 15.265625 0.0859375 14.96875 0.125 14.65625 0.125 C 13.769531 0.125 13.097656 -0.0703125 12.640625 -0.46875 C 12.191406 -0.863281 11.90625 -1.441406 11.78125 -2.203125 L 11.46875 -2.234375 C 11.007812 -1.378906 10.390625 -0.738281 9.609375 -0.3125 C 8.828125 0.101562 7.847656 0.3125 6.671875 0.3125 Z M 7.1875 -1.59375 C 8.09375 -1.59375 8.875 -1.800781 9.53125 -2.21875 C 10.1875 -2.632812 10.691406 -3.21875 11.046875 -3.96875 C 11.398438 -4.71875 11.578125 -5.585938 11.578125 -6.578125 L 11.578125 -8.625 L 11.296875 -8.6875 C 10.929688 -8.4375 10.488281 -8.222656 9.96875 -8.046875 C 9.457031 -7.878906 8.738281 -7.726562 7.8125 -7.59375 C 6.875 -7.457031 6.128906 -7.257812 5.578125 -7 C 5.023438 -6.738281 4.628906 -6.40625 4.390625 -6 C 4.160156 -5.59375 4.046875 -5.09375 4.046875 -4.5 C 4.046875 -3.550781 4.320312 -2.828125 4.875 -2.328125 C 5.4375 -1.835938 6.207031 -1.59375 7.1875 -1.59375 Z M 7.1875 -1.59375 "/></g></g><g transform="translate(383.898002, 592.788446)"><g><path d="M 2.8125 0 L 2.8125 -16.15625 L 5.078125 -16.15625 L 5.078125 -13.625 L 5.390625 -13.546875 C 6.140625 -15.378906 7.554688 -16.296875 9.640625 -16.296875 C 10.742188 -16.296875 11.566406 -16.097656 12.109375 -15.703125 L 11.5 -13.6875 L 11.203125 -13.625 C 10.597656 -13.925781 9.9375 -14.078125 9.21875 -14.078125 C 7.925781 -14.078125 6.929688 -13.59375 6.234375 -12.625 C 5.546875 -11.65625 5.203125 -10.085938 5.203125 -7.921875 L 5.203125 0 Z M 2.8125 0 "/></g></g><g transform="translate(396.37847, 592.788446)"><g><path d="M 6.671875 0.3125 C 5.078125 0.3125 3.832031 -0.101562 2.9375 -0.9375 C 2.039062 -1.769531 1.59375 -2.957031 1.59375 -4.5 C 1.59375 -5.457031 1.789062 -6.265625 2.1875 -6.921875 C 2.582031 -7.578125 3.195312 -8.113281 4.03125 -8.53125 C 4.863281 -8.945312 5.945312 -9.269531 7.28125 -9.5 C 8.445312 -9.6875 9.335938 -9.898438 9.953125 -10.140625 C 10.566406 -10.390625 10.976562 -10.664062 11.1875 -10.96875 C 11.394531 -11.269531 11.5 -11.648438 11.5 -12.109375 C 11.5 -12.847656 11.242188 -13.410156 10.734375 -13.796875 C 10.234375 -14.191406 9.429688 -14.390625 8.328125 -14.390625 C 7.273438 -14.390625 6.375 -14.1875 5.625 -13.78125 C 4.882812 -13.375 4.203125 -12.769531 3.578125 -11.96875 L 3.28125 -11.96875 L 2.109375 -13.625 C 2.796875 -14.488281 3.664062 -15.175781 4.71875 -15.6875 C 5.769531 -16.207031 6.972656 -16.46875 8.328125 -16.46875 C 10.222656 -16.46875 11.625 -16.046875 12.53125 -15.203125 C 13.4375 -14.367188 13.890625 -13.21875 13.890625 -11.75 L 13.890625 -3.171875 C 13.890625 -2.273438 14.269531 -1.828125 15.03125 -1.828125 C 15.28125 -1.828125 15.523438 -1.875 15.765625 -1.96875 L 15.96875 -1.90625 L 16.25 -0.25 C 16.070312 -0.132812 15.835938 -0.046875 15.546875 0.015625 C 15.265625 0.0859375 14.96875 0.125 14.65625 0.125 C 13.769531 0.125 13.097656 -0.0703125 12.640625 -0.46875 C 12.191406 -0.863281 11.90625 -1.441406 11.78125 -2.203125 L 11.46875 -2.234375 C 11.007812 -1.378906 10.390625 -0.738281 9.609375 -0.3125 C 8.828125 0.101562 7.847656 0.3125 6.671875 0.3125 Z M 7.1875 -1.59375 C 8.09375 -1.59375 8.875 -1.800781 9.53125 -2.21875 C 10.1875 -2.632812 10.691406 -3.21875 11.046875 -3.96875 C 11.398438 -4.71875 11.578125 -5.585938 11.578125 -6.578125 L 11.578125 -8.625 L 11.296875 -8.6875 C 10.929688 -8.4375 10.488281 -8.222656 9.96875 -8.046875 C 9.457031 -7.878906 8.738281 -7.726562 7.8125 -7.59375 C 6.875 -7.457031 6.128906 -7.257812 5.578125 -7 C 5.023438 -6.738281 4.628906 -6.40625 4.390625 -6 C 4.160156 -5.59375 4.046875 -5.09375 4.046875 -4.5 C 4.046875 -3.550781 4.320312 -2.828125 4.875 -2.328125 C 5.4375 -1.835938 6.207031 -1.59375 7.1875 -1.59375 Z M 7.1875 -1.59375 "/></g></g><g transform="translate(413.092336, 592.788446)"><g><path d="M 8.328125 6.859375 C 5.773438 6.859375 3.910156 6.429688 2.734375 5.578125 C 1.566406 4.734375 0.984375 3.609375 0.984375 2.203125 C 0.984375 1.285156 1.253906 0.554688 1.796875 0.015625 C 2.347656 -0.515625 3.144531 -0.894531 4.1875 -1.125 L 4.1875 -1.4375 C 3.6875 -1.71875 3.3125 -2.046875 3.0625 -2.421875 C 2.820312 -2.804688 2.703125 -3.265625 2.703125 -3.796875 C 2.703125 -4.421875 2.894531 -4.925781 3.28125 -5.3125 C 3.675781 -5.707031 4.265625 -6.007812 5.046875 -6.21875 L 5.046875 -6.515625 C 3.296875 -7.441406 2.421875 -8.953125 2.421875 -11.046875 C 2.421875 -12.097656 2.660156 -13.035156 3.140625 -13.859375 C 3.617188 -14.679688 4.300781 -15.320312 5.1875 -15.78125 C 6.070312 -16.238281 7.109375 -16.46875 8.296875 -16.46875 C 9.648438 -16.46875 10.78125 -16.171875 11.6875 -15.578125 C 12.03125 -15.953125 12.285156 -16.359375 12.453125 -16.796875 C 12.628906 -17.234375 12.738281 -17.722656 12.78125 -18.265625 L 13.09375 -18.453125 L 15.0625 -17.984375 C 14.957031 -17.171875 14.707031 -16.476562 14.3125 -15.90625 C 13.914062 -15.34375 13.359375 -14.875 12.640625 -14.5 L 12.640625 -14.1875 C 13.160156 -13.78125 13.546875 -13.300781 13.796875 -12.75 C 14.046875 -12.195312 14.171875 -11.554688 14.171875 -10.828125 C 14.171875 -9.804688 13.925781 -8.890625 13.4375 -8.078125 C 12.945312 -7.273438 12.253906 -6.640625 11.359375 -6.171875 C 10.472656 -5.710938 9.453125 -5.484375 8.296875 -5.484375 C 8.160156 -5.484375 7.914062 -5.492188 7.5625 -5.515625 C 7.164062 -5.523438 6.875 -5.53125 6.6875 -5.53125 C 6.1875 -5.53125 5.785156 -5.398438 5.484375 -5.140625 C 5.179688 -4.878906 5.03125 -4.539062 5.03125 -4.125 C 5.03125 -3.625 5.191406 -3.253906 5.515625 -3.015625 C 5.835938 -2.773438 6.378906 -2.640625 7.140625 -2.609375 L 10.953125 -2.46875 C 12.609375 -2.414062 13.832031 -2.035156 14.625 -1.328125 C 15.425781 -0.617188 15.828125 0.382812 15.828125 1.6875 C 15.828125 2.65625 15.566406 3.523438 15.046875 4.296875 C 14.523438 5.078125 13.703125 5.695312 12.578125 6.15625 C 11.460938 6.625 10.046875 6.859375 8.328125 6.859375 Z M 8.296875 -7.53125 C 9.429688 -7.53125 10.3125 -7.828125 10.9375 -8.421875 C 11.5625 -9.015625 11.875 -9.847656 11.875 -10.921875 C 11.875 -12.035156 11.5625 -12.894531 10.9375 -13.5 C 10.320312 -14.113281 9.441406 -14.421875 8.296875 -14.421875 C 7.140625 -14.421875 6.257812 -14.117188 5.65625 -13.515625 C 5.050781 -12.910156 4.75 -12.046875 4.75 -10.921875 C 4.75 -9.835938 5.050781 -9 5.65625 -8.40625 C 6.257812 -7.820312 7.140625 -7.53125 8.296875 -7.53125 Z M 8.328125 4.8125 C 9.515625 4.8125 10.484375 4.675781 11.234375 4.40625 C 11.992188 4.144531 12.539062 3.796875 12.875 3.359375 C 13.207031 2.921875 13.375 2.4375 13.375 1.90625 C 13.375 1.425781 13.28125 1.039062 13.09375 0.75 C 12.914062 0.457031 12.625 0.238281 12.21875 0.09375 C 11.820312 -0.0507812 11.28125 -0.144531 10.59375 -0.1875 L 6.96875 -0.359375 L 6.453125 -0.359375 C 4.429688 -0.335938 3.421875 0.445312 3.421875 2 C 3.421875 3.875 5.054688 4.8125 8.328125 4.8125 Z M 8.328125 4.8125 "/></g></g><g transform="translate(429.64507, 592.788446)"><g><path d="M 2.8125 0 L 2.8125 -16.15625 L 5.078125 -16.15625 L 5.078125 -13.625 L 5.390625 -13.546875 C 6.140625 -15.378906 7.554688 -16.296875 9.640625 -16.296875 C 10.742188 -16.296875 11.566406 -16.097656 12.109375 -15.703125 L 11.5 -13.6875 L 11.203125 -13.625 C 10.597656 -13.925781 9.9375 -14.078125 9.21875 -14.078125 C 7.925781 -14.078125 6.929688 -13.59375 6.234375 -12.625 C 5.546875 -11.65625 5.203125 -10.085938 5.203125 -7.921875 L 5.203125 0 Z M 2.8125 0 "/></g></g><g transform="translate(442.125538, 592.788446)"><g><path d="M 6.671875 0.3125 C 5.078125 0.3125 3.832031 -0.101562 2.9375 -0.9375 C 2.039062 -1.769531 1.59375 -2.957031 1.59375 -4.5 C 1.59375 -5.457031 1.789062 -6.265625 2.1875 -6.921875 C 2.582031 -7.578125 3.195312 -8.113281 4.03125 -8.53125 C 4.863281 -8.945312 5.945312 -9.269531 7.28125 -9.5 C 8.445312 -9.6875 9.335938 -9.898438 9.953125 -10.140625 C 10.566406 -10.390625 10.976562 -10.664062 11.1875 -10.96875 C 11.394531 -11.269531 11.5 -11.648438 11.5 -12.109375 C 11.5 -12.847656 11.242188 -13.410156 10.734375 -13.796875 C 10.234375 -14.191406 9.429688 -14.390625 8.328125 -14.390625 C 7.273438 -14.390625 6.375 -14.1875 5.625 -13.78125 C 4.882812 -13.375 4.203125 -12.769531 3.578125 -11.96875 L 3.28125 -11.96875 L 2.109375 -13.625 C 2.796875 -14.488281 3.664062 -15.175781 4.71875 -15.6875 C 5.769531 -16.207031 6.972656 -16.46875 8.328125 -16.46875 C 10.222656 -16.46875 11.625 -16.046875 12.53125 -15.203125 C 13.4375 -14.367188 13.890625 -13.21875 13.890625 -11.75 L 13.890625 -3.171875 C 13.890625 -2.273438 14.269531 -1.828125 15.03125 -1.828125 C 15.28125 -1.828125 15.523438 -1.875 15.765625 -1.96875 L 15.96875 -1.90625 L 16.25 -0.25 C 16.070312 -0.132812 15.835938 -0.046875 15.546875 0.015625 C 15.265625 0.0859375 14.96875 0.125 14.65625 0.125 C 13.769531 0.125 13.097656 -0.0703125 12.640625 -0.46875 C 12.191406 -0.863281 11.90625 -1.441406 11.78125 -2.203125 L 11.46875 -2.234375 C 11.007812 -1.378906 10.390625 -0.738281 9.609375 -0.3125 C 8.828125 0.101562 7.847656 0.3125 6.671875 0.3125 Z M 7.1875 -1.59375 C 8.09375 -1.59375 8.875 -1.800781 9.53125 -2.21875 C 10.1875 -2.632812 10.691406 -3.21875 11.046875 -3.96875 C 11.398438 -4.71875 11.578125 -5.585938 11.578125 -6.578125 L 11.578125 -8.625 L 11.296875 -8.6875 C 10.929688 -8.4375 10.488281 -8.222656 9.96875 -8.046875 C 9.457031 -7.878906 8.738281 -7.726562 7.8125 -7.59375 C 6.875 -7.457031 6.128906 -7.257812 5.578125 -7 C 5.023438 -6.738281 4.628906 -6.40625 4.390625 -6 C 4.160156 -5.59375 4.046875 -5.09375 4.046875 -4.5 C 4.046875 -3.550781 4.320312 -2.828125 4.875 -2.328125 C 5.4375 -1.835938 6.207031 -1.59375 7.1875 -1.59375 Z M 7.1875 -1.59375 "/></g></g><g transform="translate(458.839405, 592.788446)"><g><path d="M 2.8125 6.546875 L 2.8125 -16.15625 L 5.203125 -16.15625 L 5.203125 -13.734375 L 5.515625 -13.6875 C 6.710938 -15.539062 8.472656 -16.46875 10.796875 -16.46875 C 12.140625 -16.46875 13.3125 -16.160156 14.3125 -15.546875 C 15.320312 -14.929688 16.101562 -13.992188 16.65625 -12.734375 C 17.21875 -11.484375 17.5 -9.929688 17.5 -8.078125 C 17.5 -6.222656 17.207031 -4.671875 16.625 -3.421875 C 16.039062 -2.171875 15.226562 -1.234375 14.1875 -0.609375 C 13.15625 0.00390625 11.96875 0.3125 10.625 0.3125 C 9.53125 0.3125 8.554688 0.125 7.703125 -0.25 C 6.859375 -0.632812 6.128906 -1.265625 5.515625 -2.140625 L 5.203125 -2.078125 L 5.203125 6.546875 Z M 10.09375 -1.828125 C 13.363281 -1.828125 15 -3.910156 15 -8.078125 C 15 -12.242188 13.363281 -14.328125 10.09375 -14.328125 C 9.132812 -14.328125 8.285156 -14.109375 7.546875 -13.671875 C 6.816406 -13.234375 6.242188 -12.546875 5.828125 -11.609375 C 5.410156 -10.671875 5.203125 -9.492188 5.203125 -8.078125 C 5.203125 -6.660156 5.410156 -5.484375 5.828125 -4.546875 C 6.242188 -3.617188 6.816406 -2.929688 7.546875 -2.484375 C 8.285156 -2.046875 9.132812 -1.828125 10.09375 -1.828125 Z M 10.09375 -1.828125 "/></g></g><g transform="translate(478.116747, 592.788446)"><g><path d="M 2.8125 0 L 2.8125 -22.640625 L 5.203125 -22.640625 L 5.203125 -13.859375 L 5.515625 -13.796875 C 6.660156 -15.578125 8.320312 -16.46875 10.5 -16.46875 C 12.445312 -16.46875 13.859375 -15.96875 14.734375 -14.96875 C 15.609375 -13.976562 16.046875 -12.457031 16.046875 -10.40625 L 16.046875 0 L 13.65625 0 L 13.65625 -10.34375 C 13.65625 -11.320312 13.53125 -12.101562 13.28125 -12.6875 C 13.03125 -13.28125 12.644531 -13.710938 12.125 -13.984375 C 11.601562 -14.253906 10.914062 -14.390625 10.0625 -14.390625 C 8.59375 -14.390625 7.414062 -13.914062 6.53125 -12.96875 C 5.644531 -12.019531 5.203125 -10.460938 5.203125 -8.296875 L 5.203125 0 Z M 2.8125 0 "/></g></g><g transform="translate(496.720262, 592.788446)"><g/></g><g transform="translate(504.073778, 592.788446)"><g><path d="M 10.921875 -2.5625 L 11.6875 -0.84375 C 11.3125 -0.46875 10.8125 -0.179688 10.1875 0.015625 C 9.570312 0.210938 8.898438 0.3125 8.171875 0.3125 C 5.085938 0.3125 3.546875 -1.25 3.546875 -4.375 L 3.546875 -14.203125 L 0.734375 -14.203125 L 0.734375 -16.171875 L 3.546875 -16.171875 L 3.546875 -19.578125 L 5.9375 -19.984375 L 5.9375 -16.171875 L 11.140625 -16.171875 L 11.140625 -14.203125 L 5.9375 -14.203125 L 5.9375 -4.609375 C 5.9375 -2.753906 6.738281 -1.828125 8.34375 -1.828125 C 9.226562 -1.828125 9.988281 -2.070312 10.625 -2.5625 Z M 10.921875 -2.5625 "/></g></g><g transform="translate(516.378464, 592.788446)"><g><path d="M 15.390625 -7.53125 L 4.296875 -7.53125 C 4.359375 -5.5625 4.828125 -4.117188 5.703125 -3.203125 C 6.578125 -2.285156 7.773438 -1.828125 9.296875 -1.828125 C 10.453125 -1.828125 11.378906 -2.03125 12.078125 -2.4375 C 12.785156 -2.851562 13.335938 -3.5 13.734375 -4.375 L 14.046875 -4.375 L 15.59375 -3.453125 C 15.125 -2.285156 14.375 -1.363281 13.34375 -0.6875 C 12.320312 -0.0195312 10.972656 0.3125 9.296875 0.3125 C 7.734375 0.3125 6.390625 0.00390625 5.265625 -0.609375 C 4.148438 -1.222656 3.285156 -2.15625 2.671875 -3.40625 C 2.066406 -4.65625 1.765625 -6.210938 1.765625 -8.078125 C 1.765625 -9.910156 2.082031 -11.457031 2.71875 -12.71875 C 3.363281 -13.976562 4.238281 -14.914062 5.34375 -15.53125 C 6.457031 -16.15625 7.726562 -16.46875 9.15625 -16.46875 C 11.226562 -16.46875 12.84375 -15.882812 14 -14.71875 C 15.164062 -13.550781 15.753906 -11.816406 15.765625 -9.515625 C 15.765625 -8.617188 15.742188 -8.015625 15.703125 -7.703125 Z M 13.40625 -9.515625 C 13.363281 -11.234375 12.976562 -12.484375 12.25 -13.265625 C 11.53125 -14.046875 10.5 -14.4375 9.15625 -14.4375 C 7.738281 -14.4375 6.625 -14.039062 5.8125 -13.25 C 5.007812 -12.46875 4.519531 -11.222656 4.34375 -9.515625 Z M 13.40625 -9.515625 "/></g></g><g transform="translate(533.605026, 592.788446)"><g><path d="M 3.375 0 L 0.734375 0 L 5.734375 -8.375 L 0.984375 -16.15625 L 3.671875 -16.15625 L 7.40625 -9.953125 L 7.75 -9.953125 L 11.5 -16.15625 L 14.078125 -16.15625 L 9.453125 -8.375 L 14.328125 0 L 11.625 0 L 7.640625 -6.828125 L 7.3125 -6.828125 Z M 3.375 0 "/></g></g><g transform="translate(548.663619, 592.788446)"><g><path d="M 10.921875 -2.5625 L 11.6875 -0.84375 C 11.3125 -0.46875 10.8125 -0.179688 10.1875 0.015625 C 9.570312 0.210938 8.898438 0.3125 8.171875 0.3125 C 5.085938 0.3125 3.546875 -1.25 3.546875 -4.375 L 3.546875 -14.203125 L 0.734375 -14.203125 L 0.734375 -16.171875 L 3.546875 -16.171875 L 3.546875 -19.578125 L 5.9375 -19.984375 L 5.9375 -16.171875 L 11.140625 -16.171875 L 11.140625 -14.203125 L 5.9375 -14.203125 L 5.9375 -4.609375 C 5.9375 -2.753906 6.738281 -1.828125 8.34375 -1.828125 C 9.226562 -1.828125 9.988281 -2.070312 10.625 -2.5625 Z M 10.921875 -2.5625 "/></g></g></g></svg>