<svg xmlns="http://www.w3.org/2000/svg" xmlns:xlink="http://www.w3.org/1999/xlink" width="950" zoomAndPan="magnify" viewBox="0 0 712.5 809.999993" height="1080" preserveAspectRatio="xMidYMid meet" version="1.0"><defs><g/></defs><path fill="#ffafcc" d="M 372.390625 316.308594 C 372.390625 320.902344 372.050781 326.148438 371.40625 332.054688 C 381.890625 334.019531 391.410156 335.007812 399.949219 335.007812 C 414.375 335.007812 428.644531 334.851562 442.761719 334.511719 C 456.867188 334.191406 471.132812 334.679688 485.578125 335.988281 C 515.105469 336.652344 530.191406 351.414062 530.851562 380.277344 C 531.496094 400.625 531.496094 420.480469 530.851562 439.828125 C 530.191406 459.1875 529.203125 478.703125 527.898438 498.390625 C 527.238281 508.890625 523.960938 516.277344 518.058594 520.535156 C 512.152344 524.808594 503.292969 527.589844 491.480469 528.902344 C 479.671875 529.5625 467.859375 529.882812 456.046875 529.882812 C 444.242188 529.882812 432.75 530.222656 421.601562 530.867188 C 412.402344 531.527344 403.054688 532.191406 393.550781 532.835938 C 384.03125 533.496094 374.359375 534.480469 364.511719 535.789062 L 364.511719 576.140625 C 367.792969 576.140625 370.914062 576.480469 373.867188 577.125 C 376.820312 577.785156 379.925781 577.785156 383.21875 577.125 C 410.777344 574.511719 437.839844 571.882812 464.414062 569.253906 C 490.992188 566.640625 518.058594 563.6875 545.617188 560.394531 C 560.703125 559.085938 575.140625 557.613281 588.921875 555.96875 C 602.699219 554.335938 616.804688 552.859375 631.242188 551.535156 C 645.667969 550.890625 658.140625 553.675781 668.640625 559.902344 C 679.132812 566.148438 684.054688 579.433594 683.40625 599.765625 C 682.085938 629.289062 681.59375 658.820312 681.929688 688.347656 C 682.253906 717.871094 682.085938 747.738281 681.441406 777.910156 C 681.441406 788.398438 679.792969 795.460938 676.515625 799.074219 C 673.226562 802.671875 666.996094 805.46875 657.816406 807.4375 C 654.527344 808.085938 651.082031 808.421875 647.484375 808.421875 C 643.871094 808.421875 640.101562 808.421875 636.164062 808.421875 C 570.542969 807.761719 505.75 807.265625 441.777344 806.945312 C 377.804688 806.605469 313.335938 806.113281 248.378906 805.46875 C 239.179688 805.46875 230 805.792969 220.820312 806.453125 C 211.621094 807.097656 202.441406 807.761719 193.261719 808.421875 C 173.574219 809.726562 159.625 806.605469 151.429688 799.074219 C 143.21875 791.519531 139.773438 777.589844 141.09375 757.242188 C 141.738281 711.320312 143.710938 664.722656 147 617.476562 C 152.246094 545.96875 157.335938 474.765625 162.257812 403.902344 C 167.175781 333.039062 172.25 261.851562 177.511719 190.320312 C 178.816406 179.175781 179.96875 167.683594 180.957031 155.875 C 181.941406 144.0625 183.078125 132.253906 184.402344 120.445312 C 186.371094 106.664062 189.476562 97.160156 193.75 91.898438 C 198.007812 86.65625 207.039062 83.382812 220.820312 82.054688 C 254.28125 78.121094 286.914062 74.027344 318.75 69.753906 C 350.566406 65.496094 383.21875 62.710938 416.683594 61.390625 C 450.789062 59.421875 485.085938 58.777344 519.53125 59.421875 C 553.980469 60.082031 588.582031 60.402344 623.371094 60.402344 C 640.421875 61.0625 651.421875 64.015625 656.34375 69.261719 C 661.261719 74.523438 663.722656 86.335938 663.722656 104.695312 C 665.027344 157.84375 665.027344 211.652344 663.722656 266.109375 C 663.722656 281.210938 661.753906 290.714844 657.816406 294.648438 C 653.882812 298.589844 644.683594 300.894531 630.257812 301.542969 C 605.3125 301.542969 580.0625 301.390625 554.472656 301.050781 C 528.882812 300.726562 503.617188 300.234375 478.6875 299.574219 L 373.371094 299.574219 C 372.710938 306.140625 372.390625 311.722656 372.390625 316.308594 Z M 372.390625 316.308594 " fill-opacity="1" fill-rule="nonzero"/><path fill="#ffffff" d="M 371.625 202.3125 C 414.070312 130.433594 302.582031 70.175781 274.929688 144.269531 C 247.277344 218.367188 329.179688 274.191406 371.625 202.3125 Z M 371.625 202.3125 " fill-opacity="1" fill-rule="nonzero"/><path fill="#0b1f2d" d="M 317.285156 235.316406 C 319.949219 230.273438 322.507812 224.636719 324.921875 218.316406 C 340.945312 176.386719 334.152344 136.824219 318.21875 110.421875 C 300.4375 111.0625 283.582031 121.089844 274.929688 144.269531 C 257.253906 191.632812 284.351562 231.464844 317.285156 235.316406 Z M 317.285156 235.316406 " fill-opacity="1" fill-rule="nonzero"/><path fill="#ffffff" d="M 562.589844 202.3125 C 605.035156 130.433594 493.546875 70.175781 465.894531 144.269531 C 438.242188 218.367188 520.144531 274.191406 562.589844 202.3125 Z M 562.589844 202.3125 " fill-opacity="1" fill-rule="nonzero"/><path fill="#0b1f2d" d="M 508.25 235.316406 C 510.914062 230.273438 513.472656 224.636719 515.886719 218.316406 C 531.910156 176.386719 525.117188 136.824219 509.183594 110.421875 C 491.402344 111.0625 474.546875 121.089844 465.894531 144.269531 C 448.21875 191.632812 475.320312 231.464844 508.25 235.316406 Z M 508.25 235.316406 " fill-opacity="1" fill-rule="nonzero"/><path fill="#ffffff" d="M 641.953125 752.53125 C 637.785156 736.742188 583.539062 747.683594 589.777344 761.4375 C 596.015625 775.195312 646.117188 768.316406 641.953125 752.53125 Z M 641.953125 752.53125 " fill-opacity="1" fill-rule="nonzero"/><path fill="#ffffff" d="M 493.886719 740.074219 C 489.71875 724.289062 435.472656 735.230469 441.710938 748.984375 C 447.949219 762.738281 498.050781 755.863281 493.886719 740.074219 Z M 493.886719 740.074219 " fill-opacity="1" fill-rule="nonzero"/><path fill="#ffffff" d="M 555.984375 767.332031 C 554.910156 751.167969 504.710938 749.285156 507.972656 763.964844 C 511.234375 778.648438 557.054688 783.496094 555.984375 767.332031 Z M 555.984375 767.332031 " fill-opacity="1" fill-rule="nonzero"/><path fill="#ffffff" d="M 244.628906 760.414062 C 243.554688 744.25 193.355469 742.367188 196.617188 757.046875 C 199.875 771.726562 245.699219 776.578125 244.628906 760.414062 Z M 244.628906 760.414062 " fill-opacity="1" fill-rule="nonzero"/><path fill="#ffffff" d="M 592.117188 719.320312 C 586.226562 702.042969 535.496094 709.46875 543.132812 724.730469 C 550.765625 739.992188 598.007812 736.597656 592.117188 719.320312 Z M 592.117188 719.320312 " fill-opacity="1" fill-rule="nonzero"/><path fill="#ffffff" d="M 197.707031 712.902344 C 213.699219 709.617188 205.765625 654.847656 191.6875 660.320312 C 177.609375 665.789062 181.714844 716.191406 197.707031 712.902344 Z M 197.707031 712.902344 " fill-opacity="1" fill-rule="nonzero"/><path fill="#ffffff" d="M 218.308594 565.75 C 234.300781 562.460938 226.367188 507.695312 212.289062 513.164062 C 198.210938 518.632812 202.3125 569.035156 218.308594 565.75 Z M 218.308594 565.75 " fill-opacity="1" fill-rule="nonzero"/><path fill="#ffffff" d="M 187.667969 626.25 C 203.867188 626.070312 208.515625 576.050781 193.675781 578.496094 C 178.839844 580.941406 171.46875 626.429688 187.667969 626.25 Z M 187.667969 626.25 " fill-opacity="1" fill-rule="nonzero"/><path fill="#ffffff" d="M 233.613281 664.976562 C 251.1875 660.046875 246.570312 608.984375 230.914062 615.765625 C 215.253906 622.550781 216.039062 669.902344 233.613281 664.976562 Z M 233.613281 664.976562 " fill-opacity="1" fill-rule="nonzero"/><path fill="#0b1f2d" d="M 508.003906 53.554688 C 503.824219 75.03125 580.523438 102.433594 588.996094 81.792969 C 597.46875 61.148438 512.183594 32.078125 508.003906 53.554688 Z M 508.003906 53.554688 " fill-opacity="1" fill-rule="nonzero"/><path fill="#0b1f2d" d="M 243 52.785156 C 253.808594 71.808594 329.867188 42.671875 322.859375 21.488281 C 315.851562 0.304688 232.1875 33.765625 243 52.785156 Z M 243 52.785156 " fill-opacity="1" fill-rule="nonzero"/><path fill="#0b1f2d" d="M 169.589844 445.839844 C 142.726562 445.839844 120.117188 436.359375 102.332031 417.621094 C 45.511719 357.757812 56.691406 224.386719 57.191406 218.738281 C 57.4375 216.046875 59.773438 214.035156 62.511719 214.292969 C 65.203125 214.53125 67.195312 216.914062 66.957031 219.609375 C 66.835938 220.949219 55.671875 354.238281 109.449219 410.886719 C 126.152344 428.476562 147.765625 436.910156 173.535156 435.964844 C 176.230469 435.847656 178.511719 437.976562 178.613281 440.679688 C 178.710938 443.382812 176.601562 445.664062 173.898438 445.757812 C 172.449219 445.8125 171.011719 445.839844 169.589844 445.839844 Z M 169.589844 445.839844 " fill-opacity="1" fill-rule="nonzero"/><path fill="#0b1f2d" d="M 61.433594 267.695312 C 60.398438 267.695312 59.335938 267.625 58.246094 267.476562 C 31.460938 263.8125 28.257812 221.960938 28.132812 220.179688 C 27.945312 217.480469 29.980469 215.144531 32.679688 214.953125 C 35.417969 214.722656 37.722656 216.800781 37.910156 219.496094 C 37.9375 219.855469 40.96875 255.21875 59.578125 257.757812 C 60.144531 257.839844 60.707031 257.878906 61.25 257.878906 C 78.054688 257.878906 85.425781 222.582031 85.5 222.214844 C 86.015625 219.558594 88.589844 217.800781 91.242188 218.335938 C 93.898438 218.851562 95.636719 221.421875 95.117188 224.078125 C 94.757812 225.925781 86.375 267.695312 61.433594 267.695312 Z M 61.433594 267.695312 " fill-opacity="1" fill-rule="nonzero"/><path fill="#f359df" d="M 261.453125 302.167969 C 261.453125 302.167969 224.089844 371.359375 260.070312 381.046875 C 296.050781 390.734375 297.433594 316.007812 297.433594 316.007812 C 297.433594 316.007812 278.058594 311.855469 261.453125 302.167969 Z M 261.453125 302.167969 " fill-opacity="1" fill-rule="nonzero"/><path fill="#0b1f2d" d="M 311.140625 319.5625 C 287.089844 319.5625 267.714844 313.691406 253.320312 301.992188 C 230.167969 283.191406 228.917969 256.433594 228.878906 255.304688 C 228.78125 252.601562 230.890625 250.328125 233.59375 250.226562 C 236.207031 250.035156 238.5625 252.230469 238.671875 254.929688 C 238.6875 255.257812 239.941406 278.59375 259.621094 294.488281 C 277.550781 308.960938 304.902344 313.183594 340.886719 307.027344 C 343.625 306.574219 346.089844 308.363281 346.542969 311.027344 C 347.003906 313.699219 345.207031 316.230469 342.542969 316.6875 C 331.328125 318.605469 320.851562 319.5625 311.140625 319.5625 Z M 311.140625 319.5625 " fill-opacity="1" fill-rule="nonzero"/><path fill="#0b1f2d" d="M 208.871094 264.171875 C 206.164062 264.171875 203.972656 261.980469 203.972656 259.277344 C 203.96875 256.574219 206.160156 254.378906 208.863281 254.371094 C 209.128906 254.371094 235.539062 254.117188 246.355469 238.492188 C 247.894531 236.265625 250.941406 235.707031 253.175781 237.25 C 255.402344 238.792969 255.957031 241.847656 254.414062 244.070312 C 240.660156 263.941406 210.164062 264.171875 208.871094 264.171875 Z M 208.871094 264.171875 " fill-opacity="1" fill-rule="nonzero"/><g fill="#ffafcc" fill-opacity="1"><g transform="translate(314.821247, 466.406457)"><g><path d="M 6.9375 0.296875 C 5.976562 0.296875 5.09375 0.171875 4.28125 -0.078125 C 3.46875 -0.335938 2.78125 -0.6875 2.21875 -1.125 C 1.65625 -1.570312 1.257812 -2.070312 1.03125 -2.625 L 2.359375 -4 L 2.65625 -4 C 3.144531 -3.25 3.738281 -2.679688 4.4375 -2.296875 C 5.144531 -1.910156 5.976562 -1.71875 6.9375 -1.71875 C 8.0625 -1.71875 8.914062 -1.9375 9.5 -2.375 C 10.082031 -2.8125 10.375 -3.421875 10.375 -4.203125 C 10.375 -4.804688 10.195312 -5.300781 9.84375 -5.6875 C 9.488281 -6.082031 8.914062 -6.375 8.125 -6.5625 L 5.5625 -7.203125 C 4.1875 -7.535156 3.179688 -8.0625 2.546875 -8.78125 C 1.921875 -9.5 1.609375 -10.382812 1.609375 -11.4375 C 1.609375 -12.269531 1.820312 -12.988281 2.25 -13.59375 C 2.675781 -14.207031 3.285156 -14.679688 4.078125 -15.015625 C 4.867188 -15.347656 5.816406 -15.515625 6.921875 -15.515625 C 8.316406 -15.515625 9.414062 -15.316406 10.21875 -14.921875 C 11.019531 -14.535156 11.648438 -13.992188 12.109375 -13.296875 L 10.828125 -12.046875 L 10.5625 -12.046875 C 10.070312 -12.609375 9.535156 -13.015625 8.953125 -13.265625 C 8.378906 -13.515625 7.703125 -13.640625 6.921875 -13.640625 C 5.910156 -13.640625 5.140625 -13.457031 4.609375 -13.09375 C 4.078125 -12.738281 3.8125 -12.21875 3.8125 -11.53125 C 3.8125 -10.914062 4 -10.421875 4.375 -10.046875 C 4.75 -9.671875 5.40625 -9.367188 6.34375 -9.140625 L 8.875 -8.53125 C 10.195312 -8.21875 11.148438 -7.695312 11.734375 -6.96875 C 12.328125 -6.238281 12.625 -5.328125 12.625 -4.234375 C 12.625 -3.335938 12.410156 -2.550781 11.984375 -1.875 C 11.566406 -1.195312 10.929688 -0.664062 10.078125 -0.28125 C 9.222656 0.101562 8.175781 0.296875 6.9375 0.296875 Z M 6.9375 0.296875 "/></g></g></g><g fill="#ffafcc" fill-opacity="1"><g transform="translate(328.894813, 466.406457)"><g><path d="M 8.734375 0.296875 C 7.296875 0.296875 6.046875 -0.00390625 4.984375 -0.609375 C 3.921875 -1.222656 3.101562 -2.117188 2.53125 -3.296875 C 1.957031 -4.484375 1.671875 -5.921875 1.671875 -7.609375 C 1.671875 -9.285156 1.957031 -10.71875 2.53125 -11.90625 C 3.101562 -13.09375 3.921875 -13.988281 4.984375 -14.59375 C 6.046875 -15.207031 7.296875 -15.515625 8.734375 -15.515625 C 10.171875 -15.515625 11.421875 -15.207031 12.484375 -14.59375 C 13.546875 -13.988281 14.363281 -13.09375 14.9375 -11.90625 C 15.507812 -10.71875 15.796875 -9.285156 15.796875 -7.609375 C 15.796875 -5.921875 15.507812 -4.484375 14.9375 -3.296875 C 14.363281 -2.117188 13.546875 -1.222656 12.484375 -0.609375 C 11.421875 -0.00390625 10.171875 0.296875 8.734375 0.296875 Z M 8.734375 -1.71875 C 10.253906 -1.71875 11.414062 -2.195312 12.21875 -3.15625 C 13.019531 -4.113281 13.421875 -5.597656 13.421875 -7.609375 C 13.421875 -9.617188 13.019531 -11.101562 12.21875 -12.0625 C 11.414062 -13.019531 10.253906 -13.5 8.734375 -13.5 C 7.210938 -13.5 6.046875 -13.015625 5.234375 -12.046875 C 4.429688 -11.085938 4.03125 -9.609375 4.03125 -7.609375 C 4.03125 -5.597656 4.429688 -4.113281 5.234375 -3.15625 C 6.046875 -2.195312 7.210938 -1.71875 8.734375 -1.71875 Z M 8.734375 -1.71875 "/></g></g></g><g fill="#ffafcc" fill-opacity="1"><g transform="translate(346.362592, 466.406457)"><g><path d="M 2.65625 0 L 2.65625 -21.34375 L 4.90625 -21.34375 L 4.90625 -13.0625 L 5.1875 -13 C 6.269531 -14.675781 7.835938 -15.515625 9.890625 -15.515625 C 11.722656 -15.515625 13.050781 -15.046875 13.875 -14.109375 C 14.695312 -13.179688 15.109375 -11.742188 15.109375 -9.796875 L 15.109375 0 L 12.859375 0 L 12.859375 -9.75 C 12.859375 -10.664062 12.738281 -11.398438 12.5 -11.953125 C 12.269531 -12.515625 11.910156 -12.921875 11.421875 -13.171875 C 10.929688 -13.421875 10.285156 -13.546875 9.484375 -13.546875 C 8.097656 -13.546875 6.988281 -13.097656 6.15625 -12.203125 C 5.320312 -11.316406 4.90625 -9.851562 4.90625 -7.8125 L 4.90625 0 Z M 2.65625 0 "/></g></g></g><g fill="#ffafcc" fill-opacity="1"><g transform="translate(363.885561, 466.406457)"><g><path d="M 2.65625 0 L 2.65625 -15.21875 L 4.796875 -15.21875 L 4.796875 -12.828125 L 5.078125 -12.765625 C 5.585938 -13.660156 6.234375 -14.34375 7.015625 -14.8125 C 7.804688 -15.28125 8.765625 -15.515625 9.890625 -15.515625 C 11.722656 -15.515625 13.050781 -15.046875 13.875 -14.109375 C 14.695312 -13.179688 15.109375 -11.742188 15.109375 -9.796875 L 15.109375 0 L 12.859375 0 L 12.859375 -9.75 C 12.859375 -10.664062 12.738281 -11.398438 12.5 -11.953125 C 12.269531 -12.515625 11.910156 -12.921875 11.421875 -13.171875 C 10.929688 -13.421875 10.285156 -13.546875 9.484375 -13.546875 C 8.109375 -13.546875 7 -13.09375 6.15625 -12.1875 C 5.320312 -11.28125 4.90625 -9.820312 4.90625 -7.8125 L 4.90625 0 Z M 2.65625 0 "/></g></g></g><g fill="#ffafcc" fill-opacity="1"><g transform="translate(381.408531, 466.406457)"><g><path d="M 6.28125 0.296875 C 4.78125 0.296875 3.609375 -0.09375 2.765625 -0.875 C 1.921875 -1.664062 1.5 -2.785156 1.5 -4.234375 C 1.5 -5.140625 1.6875 -5.898438 2.0625 -6.515625 C 2.4375 -7.140625 3.015625 -7.644531 3.796875 -8.03125 C 4.578125 -8.425781 5.597656 -8.726562 6.859375 -8.9375 C 7.960938 -9.125 8.800781 -9.332031 9.375 -9.5625 C 9.945312 -9.789062 10.332031 -10.046875 10.53125 -10.328125 C 10.726562 -10.617188 10.828125 -10.976562 10.828125 -11.40625 C 10.828125 -12.101562 10.585938 -12.632812 10.109375 -13 C 9.640625 -13.363281 8.882812 -13.546875 7.84375 -13.546875 C 6.851562 -13.546875 6.003906 -13.351562 5.296875 -12.96875 C 4.597656 -12.59375 3.957031 -12.03125 3.375 -11.28125 L 3.09375 -11.28125 L 1.984375 -12.828125 C 2.628906 -13.648438 3.445312 -14.300781 4.4375 -14.78125 C 5.4375 -15.269531 6.570312 -15.515625 7.84375 -15.515625 C 9.632812 -15.515625 10.953125 -15.117188 11.796875 -14.328125 C 12.648438 -13.546875 13.078125 -12.457031 13.078125 -11.0625 L 13.078125 -3 C 13.078125 -2.144531 13.4375 -1.71875 14.15625 -1.71875 C 14.394531 -1.71875 14.625 -1.757812 14.84375 -1.84375 L 15.046875 -1.796875 L 15.3125 -0.234375 C 15.144531 -0.117188 14.925781 -0.0351562 14.65625 0.015625 C 14.382812 0.078125 14.101562 0.109375 13.8125 0.109375 C 12.976562 0.109375 12.347656 -0.0703125 11.921875 -0.4375 C 11.492188 -0.8125 11.21875 -1.351562 11.09375 -2.0625 L 10.8125 -2.09375 C 10.375 -1.289062 9.785156 -0.691406 9.046875 -0.296875 C 8.316406 0.0976562 7.394531 0.296875 6.28125 0.296875 Z M 6.78125 -1.5 C 7.625 -1.5 8.351562 -1.691406 8.96875 -2.078125 C 9.59375 -2.472656 10.070312 -3.023438 10.40625 -3.734375 C 10.738281 -4.441406 10.90625 -5.265625 10.90625 -6.203125 L 10.90625 -8.125 L 10.640625 -8.1875 C 10.296875 -7.945312 9.878906 -7.742188 9.390625 -7.578125 C 8.910156 -7.421875 8.234375 -7.28125 7.359375 -7.15625 C 6.472656 -7.03125 5.769531 -6.84375 5.25 -6.59375 C 4.726562 -6.34375 4.359375 -6.023438 4.140625 -5.640625 C 3.921875 -5.265625 3.8125 -4.796875 3.8125 -4.234375 C 3.8125 -3.335938 4.070312 -2.65625 4.59375 -2.1875 C 5.113281 -1.726562 5.84375 -1.5 6.78125 -1.5 Z M 6.78125 -1.5 "/></g></g></g></svg>