<svg xmlns="http://www.w3.org/2000/svg" xmlns:xlink="http://www.w3.org/1999/xlink" width="950" zoomAndPan="magnify" viewBox="0 0 712.5 809.999993" height="1080" preserveAspectRatio="xMidYMid meet" version="1.0"><defs><g/></defs><path fill="#f359df" d="M 371.792969 553.121094 L 371.792969 581.671875 C 372.398438 601.324219 373.175781 620.507812 374.09375 639.226562 C 375.015625 657.960938 375.480469 677.144531 375.480469 696.785156 C 375.480469 717.660156 372.097656 731.777344 365.347656 739.144531 C 358.582031 746.507812 344.773438 751.117188 323.910156 752.957031 C 304.25 755.417969 284.769531 757.5625 265.429688 759.402344 C 246.09375 761.246094 226.59375 763.085938 206.953125 764.925781 C 202.035156 764.925781 197.285156 765.070312 192.679688 765.390625 C 188.074219 765.691406 183.316406 765.53125 178.40625 764.925781 C 155.066406 761.851562 141.570312 749.589844 137.890625 728.089844 C 136.042969 719.5 134.808594 711.210938 134.203125 703.226562 C 133.585938 695.257812 132.96875 687.273438 132.363281 679.285156 C 129.28125 588.433594 128.980469 498.328125 131.441406 409.003906 C 133.886719 319.679688 138.1875 229.890625 144.332031 139.640625 C 145.574219 120 150.191406 105.886719 158.207031 97.285156 C 166.21875 88.691406 179.472656 83.46875 197.976562 81.628906 C 219.542969 79.789062 241.113281 78.105469 262.699219 76.5625 C 284.28125 75.035156 305.863281 73.65625 327.445312 72.417969 C 347.789062 70.578125 359.503906 80.101562 362.585938 100.964844 C 363.191406 107.730469 363.347656 114.480469 363.042969 121.226562 C 362.730469 127.992188 362.585938 134.738281 362.585938 141.488281 C 362.585938 178.320312 362.425781 214.695312 362.125 250.609375 C 361.808594 286.523438 361.664062 322.898438 361.664062 359.734375 C 361.664062 366.5 362.585938 374.785156 364.425781 384.601562 C 383.910156 383.375 403.402344 381.839844 422.902344 379.996094 C 442.386719 378.15625 462.183594 376.3125 482.300781 374.46875 C 482.300781 363.421875 482.605469 352.6875 483.222656 342.238281 C 483.828125 331.804688 483.523438 321.375 482.300781 310.929688 C 478.617188 277.777344 474.933594 245.089844 471.25 212.855469 C 467.566406 180.625 463.261719 147.929688 458.359375 114.78125 C 457.117188 101.28125 458.042969 91.613281 461.117188 85.769531 C 464.183594 79.945312 472.472656 76.421875 485.984375 75.179688 C 511.769531 72.117188 537.09375 69.972656 561.957031 68.734375 C 586.824219 67.511719 612.144531 66.589844 637.929688 65.972656 C 649.585938 65.367188 658.792969 68.734375 665.554688 76.101562 C 672.304688 83.46875 676.914062 92.375 679.371094 102.808594 C 683.65625 122.464844 687.804688 142.105469 691.800781 161.746094 C 695.789062 181.402344 698.707031 201.042969 700.550781 220.683594 C 708.523438 304.800781 711.746094 387.984375 710.222656 470.242188 C 708.679688 552.519531 705.457031 635.703125 700.550781 719.804688 L 700.550781 722.570312 C 698.707031 745.90625 693.1875 762.769531 683.976562 773.214844 C 674.769531 783.652344 658.496094 790.09375 635.167969 792.558594 C 615.511719 794.398438 595.871094 795.160156 576.230469 794.859375 C 556.578125 794.542969 536.9375 794.078125 517.296875 793.476562 C 505.007812 792.238281 496.257812 788.554688 491.050781 782.421875 C 485.828125 776.28125 483.222656 766.453125 483.222656 752.957031 C 483.222656 725.332031 483.523438 697.558594 484.144531 669.617188 C 484.75 641.6875 485.0625 613.902344 485.0625 586.273438 L 485.0625 553.121094 Z M 371.792969 553.121094 " fill-opacity="1" fill-rule="nonzero"/><path fill="#ffffff" d="M 613.746094 205.957031 C 653.457031 138.703125 549.148438 82.324219 523.273438 151.652344 C 497.402344 220.976562 574.03125 273.207031 613.746094 205.957031 Z M 613.746094 205.957031 " fill-opacity="1" fill-rule="nonzero"/><path fill="#0b1f2d" d="M 562.902344 236.835938 C 565.394531 232.121094 567.789062 226.847656 570.046875 220.929688 C 585.039062 181.699219 578.683594 144.683594 563.777344 119.980469 C 547.140625 120.582031 531.367188 129.960938 523.273438 151.652344 C 506.738281 195.964844 532.089844 233.234375 562.902344 236.835938 Z M 562.902344 236.835938 " fill-opacity="1" fill-rule="nonzero"/><path fill="#ffffff" d="M 207.164062 154.628906 C 167.453125 221.878906 271.761719 278.257812 297.636719 208.933594 C 323.507812 139.605469 246.878906 87.375 207.164062 154.628906 Z M 207.164062 154.628906 " fill-opacity="1" fill-rule="nonzero"/><path fill="#0b1f2d" d="M 258.007812 123.746094 C 255.515625 128.464844 253.121094 133.738281 250.863281 139.652344 C 235.871094 178.886719 242.226562 215.902344 257.132812 240.601562 C 273.769531 240.003906 289.542969 230.621094 297.636719 208.933594 C 314.175781 164.617188 288.820312 127.347656 258.007812 123.746094 Z M 258.007812 123.746094 " fill-opacity="1" fill-rule="nonzero"/><path fill="#ffffff" d="M 178.167969 565.132812 C 161.851562 570.1875 167.464844 617.824219 181.941406 611.085938 C 196.414062 604.347656 194.480469 560.078125 178.167969 565.132812 Z M 178.167969 565.132812 " fill-opacity="1" fill-rule="nonzero"/><path fill="#ffffff" d="M 175.832031 678.488281 C 159.519531 683.542969 165.132812 731.183594 179.605469 724.445312 C 194.082031 717.703125 192.148438 673.433594 175.832031 678.488281 Z M 175.832031 678.488281 " fill-opacity="1" fill-rule="nonzero"/><path fill="#ffffff" d="M 150.835938 625.007812 C 137.386719 629.171875 142.015625 668.441406 153.945312 662.886719 C 165.875 657.332031 164.28125 620.839844 150.835938 625.007812 Z M 150.835938 625.007812 " fill-opacity="1" fill-rule="nonzero"/><path fill="#ffffff" d="M 638.707031 759.695312 C 655.136719 755.039062 650.6875 707.277344 636.054688 713.664062 C 621.421875 720.046875 622.273438 764.351562 638.707031 759.695312 Z M 638.707031 759.695312 " fill-opacity="1" fill-rule="nonzero"/><path fill="#ffffff" d="M 643.796875 646.429688 C 660.230469 641.773438 655.777344 594.011719 641.144531 600.394531 C 626.511719 606.78125 627.367188 651.085938 643.796875 646.429688 Z M 643.796875 646.429688 " fill-opacity="1" fill-rule="nonzero"/><path fill="#ffffff" d="M 526.410156 677.503906 C 542.839844 672.847656 538.390625 625.085938 523.753906 631.46875 C 509.121094 637.855469 509.976562 682.160156 526.410156 677.503906 Z M 526.410156 677.503906 " fill-opacity="1" fill-rule="nonzero"/><path fill="#ffffff" d="M 667.488281 700.503906 C 681.03125 696.664062 677.363281 657.296875 665.300781 662.558594 C 653.238281 667.824219 653.945312 704.339844 667.488281 700.503906 Z M 667.488281 700.503906 " fill-opacity="1" fill-rule="nonzero"/><path fill="#ffffff" d="M 513.84375 740.207031 C 527.390625 736.371094 523.71875 697.003906 511.660156 702.265625 C 499.597656 707.527344 500.300781 744.046875 513.84375 740.207031 Z M 513.84375 740.207031 " fill-opacity="1" fill-rule="nonzero"/><path fill="#0b1f2d" d="M 140.191406 68.621094 C 151.527344 85.667969 220.605469 53.492188 212.679688 34.179688 C 204.753906 14.867188 128.855469 51.574219 140.191406 68.621094 Z M 140.191406 68.621094 " fill-opacity="1" fill-rule="nonzero"/><path fill="#0b1f2d" d="M 601.804688 51.890625 C 596.863281 71.757812 667.207031 101.066406 676.121094 82.1875 C 685.035156 63.308594 606.746094 32.023438 601.804688 51.890625 Z M 601.804688 51.890625 " fill-opacity="1" fill-rule="nonzero"/><path fill="#0b1f2d" d="M 136.503906 436.414062 C 112.929688 436.414062 92.71875 428.269531 76.3125 412.144531 C 21.242188 358 27.382812 232.925781 27.671875 227.628906 C 27.808594 225.097656 30.082031 223.1875 32.496094 223.304688 C 35.027344 223.4375 36.964844 225.601562 36.828125 228.128906 C 36.757812 229.382812 30.628906 354.386719 82.75 405.617188 C 98.933594 421.515625 119.328125 428.699219 143.488281 426.992188 C 146.035156 426.734375 148.210938 428.71875 148.390625 431.238281 C 148.574219 433.765625 146.667969 435.957031 144.144531 436.136719 C 141.558594 436.324219 139.011719 436.414062 136.503906 436.414062 Z M 136.503906 436.414062 " fill-opacity="1" fill-rule="nonzero"/><path fill="#0b1f2d" d="M 32.492188 273.285156 C 31.753906 273.285156 31.003906 273.242188 30.238281 273.167969 C 5.070312 270.609375 0.71875 231.574219 0.550781 229.914062 C 0.285156 227.394531 2.113281 225.144531 4.628906 224.878906 C 7.140625 224.628906 9.402344 226.441406 9.667969 228.960938 C 9.703125 229.289062 13.683594 262.265625 31.160156 264.039062 C 31.566406 264.082031 31.957031 264.101562 32.34375 264.101562 C 48.351562 264.101562 54.195312 230.3125 54.253906 229.957031 C 54.652344 227.464844 56.996094 225.734375 59.5 226.152344 C 62.003906 226.550781 63.707031 228.890625 63.308594 231.394531 C 63.03125 233.15625 56.40625 273.285156 32.492188 273.285156 Z M 32.492188 273.285156 " fill-opacity="1" fill-rule="nonzero"/><path fill="#0b1f2d" d="M 484.808594 502.664062 C 477.890625 502.664062 473.511719 502.480469 472.613281 502.441406 C 470.082031 502.324219 468.125 500.179688 468.242188 497.648438 C 468.359375 495.113281 470.566406 493.175781 473.03125 493.277344 C 474.296875 493.332031 599.328125 498.433594 650.132812 445.890625 C 665.90625 429.574219 672.929688 409.078125 671.003906 384.976562 C 670.804688 382.453125 672.6875 380.242188 675.214844 380.039062 C 677.714844 379.839844 679.949219 381.71875 680.148438 384.25 C 682.289062 411.09375 674.410156 433.980469 656.714844 452.273438 C 612.175781 498.328125 518.476562 502.664062 484.808594 502.664062 Z M 484.808594 502.664062 " fill-opacity="1" fill-rule="nonzero"/><path fill="#0b1f2d" d="M 474.601562 529.578125 C 472.296875 529.578125 470.316406 527.847656 470.050781 525.507812 C 469.765625 522.996094 471.574219 520.726562 474.085938 520.4375 C 474.421875 520.398438 507.363281 516.144531 508.992188 498.648438 C 510.574219 481.730469 475.078125 475.898438 474.722656 475.84375 C 472.21875 475.464844 470.492188 473.132812 470.871094 470.628906 C 471.246094 468.128906 473.597656 466.4375 476.078125 466.773438 C 477.894531 467.046875 520.527344 473.71875 518.128906 499.5 C 515.777344 524.683594 476.777344 529.363281 475.121094 529.550781 C 474.945312 529.570312 474.769531 529.578125 474.601562 529.578125 Z M 474.601562 529.578125 " fill-opacity="1" fill-rule="nonzero"/><path fill="#0b1f2d" d="M 481.5 305.066406 C 536.679688 268.101562 539.558594 429.421875 430.421875 437.152344 C 354.886719 442.503906 328.328125 364.574219 335.636719 326.945312 C 342.945312 289.320312 426.324219 342.027344 481.5 305.066406 Z M 481.5 305.066406 " fill-opacity="1" fill-rule="nonzero"/><path fill="#f359df" d="M 404.496094 419.800781 C 404.496094 419.800781 454.128906 428 480.886719 391.316406 C 480.886719 391.316406 423.917969 370.597656 404.496094 419.800781 Z M 404.496094 419.800781 " fill-opacity="1" fill-rule="nonzero"/><path fill="#ffffff" d="M 369.539062 327.871094 C 369.539062 327.871094 364.621094 357.914062 381.191406 359.808594 C 396.296875 361.535156 400.609375 335.210938 400.609375 335.210938 C 400.609375 335.210938 401.394531 365.445312 419.167969 364.988281 C 436 364.558594 437.726562 338.660156 437.726562 338.660156 C 437.726562 338.660156 445.496094 366.28125 461.894531 360.671875 C 478.296875 355.0625 470.960938 331.324219 470.960938 331.324219 C 470.960938 331.324219 401.042969 339.523438 369.539062 327.871094 Z M 369.539062 327.871094 " fill-opacity="1" fill-rule="nonzero"/><g fill="#f359df" fill-opacity="1"><g transform="translate(220.21965, 467.563393)"><g><path d="M 9.859375 0 L 7.5 0 L 7.5 -7.921875 L 0.53125 -20.171875 L 3.125 -20.171875 L 8.5625 -10.71875 L 8.90625 -10.71875 L 14.296875 -20.171875 L 16.84375 -20.171875 L 9.859375 -7.921875 Z M 9.859375 0 "/></g></g><g transform="translate(237.568729, 467.563393)"><g><path d="M 8.734375 0.296875 C 7.296875 0.296875 6.046875 -0.00390625 4.984375 -0.609375 C 3.921875 -1.222656 3.101562 -2.117188 2.53125 -3.296875 C 1.957031 -4.484375 1.671875 -5.921875 1.671875 -7.609375 C 1.671875 -9.285156 1.957031 -10.71875 2.53125 -11.90625 C 3.101562 -13.09375 3.921875 -13.988281 4.984375 -14.59375 C 6.046875 -15.207031 7.296875 -15.515625 8.734375 -15.515625 C 10.171875 -15.515625 11.421875 -15.207031 12.484375 -14.59375 C 13.546875 -13.988281 14.363281 -13.09375 14.9375 -11.90625 C 15.507812 -10.71875 15.796875 -9.285156 15.796875 -7.609375 C 15.796875 -5.921875 15.507812 -4.484375 14.9375 -3.296875 C 14.363281 -2.117188 13.546875 -1.222656 12.484375 -0.609375 C 11.421875 -0.00390625 10.171875 0.296875 8.734375 0.296875 Z M 8.734375 -1.71875 C 10.253906 -1.71875 11.414062 -2.195312 12.21875 -3.15625 C 13.019531 -4.113281 13.421875 -5.597656 13.421875 -7.609375 C 13.421875 -9.617188 13.019531 -11.101562 12.21875 -12.0625 C 11.414062 -13.019531 10.253906 -13.5 8.734375 -13.5 C 7.210938 -13.5 6.046875 -13.015625 5.234375 -12.046875 C 4.429688 -11.085938 4.03125 -9.609375 4.03125 -7.609375 C 4.03125 -5.597656 4.429688 -4.113281 5.234375 -3.15625 C 6.046875 -2.195312 7.210938 -1.71875 8.734375 -1.71875 Z M 8.734375 -1.71875 "/></g></g><g transform="translate(255.042027, 467.563393)"><g><path d="M 7.515625 0.296875 C 5.796875 0.296875 4.515625 -0.15625 3.671875 -1.0625 C 2.835938 -1.976562 2.421875 -3.316406 2.421875 -5.078125 L 2.421875 -15.21875 L 4.671875 -15.21875 L 4.671875 -5.140625 C 4.671875 -2.828125 5.753906 -1.671875 7.921875 -1.671875 C 9.304688 -1.671875 10.394531 -2.117188 11.1875 -3.015625 C 11.988281 -3.921875 12.390625 -5.382812 12.390625 -7.40625 L 12.390625 -15.21875 L 14.640625 -15.21875 L 14.640625 0 L 12.515625 0 L 12.515625 -2.390625 L 12.234375 -2.453125 C 11.703125 -1.523438 11.070312 -0.832031 10.34375 -0.375 C 9.613281 0.0703125 8.671875 0.296875 7.515625 0.296875 Z M 7.515625 0.296875 "/></g></g><g transform="translate(272.335898, 467.563393)"><g><path d="M 2.65625 0 L 2.65625 -15.21875 L 4.796875 -15.21875 L 4.796875 -12.828125 L 5.078125 -12.765625 C 5.785156 -14.492188 7.117188 -15.359375 9.078125 -15.359375 C 10.117188 -15.359375 10.894531 -15.171875 11.40625 -14.796875 L 10.828125 -12.890625 L 10.5625 -12.828125 C 9.988281 -13.117188 9.363281 -13.265625 8.6875 -13.265625 C 7.46875 -13.265625 6.53125 -12.804688 5.875 -11.890625 C 5.226562 -10.984375 4.90625 -9.507812 4.90625 -7.46875 L 4.90625 0 Z M 2.65625 0 "/></g></g><g transform="translate(284.095179, 467.563393)"><g/></g><g transform="translate(291.023769, 467.563393)"><g><path d="M 2.65625 6.171875 L 2.65625 -15.21875 L 4.90625 -15.21875 L 4.90625 -12.953125 L 5.1875 -12.890625 C 6.320312 -14.640625 7.984375 -15.515625 10.171875 -15.515625 C 11.441406 -15.515625 12.550781 -15.222656 13.5 -14.640625 C 14.445312 -14.066406 15.179688 -13.1875 15.703125 -12 C 16.234375 -10.820312 16.5 -9.359375 16.5 -7.609375 C 16.5 -5.867188 16.222656 -4.410156 15.671875 -3.234375 C 15.117188 -2.054688 14.351562 -1.171875 13.375 -0.578125 C 12.394531 0.00390625 11.269531 0.296875 10 0.296875 C 8.96875 0.296875 8.050781 0.117188 7.25 -0.234375 C 6.457031 -0.597656 5.769531 -1.191406 5.1875 -2.015625 L 4.90625 -1.953125 L 4.90625 6.171875 Z M 9.515625 -1.71875 C 12.597656 -1.71875 14.140625 -3.679688 14.140625 -7.609375 C 14.140625 -11.535156 12.597656 -13.5 9.515625 -13.5 C 8.609375 -13.5 7.8125 -13.289062 7.125 -12.875 C 6.4375 -12.457031 5.894531 -11.8125 5.5 -10.9375 C 5.101562 -10.0625 4.90625 -8.953125 4.90625 -7.609375 C 4.90625 -6.273438 5.101562 -5.164062 5.5 -4.28125 C 5.894531 -3.40625 6.4375 -2.757812 7.125 -2.34375 C 7.8125 -1.925781 8.609375 -1.71875 9.515625 -1.71875 Z M 9.515625 -1.71875 "/></g></g><g transform="translate(309.187166, 467.563393)"><g><path d="M 6.28125 0.296875 C 4.78125 0.296875 3.609375 -0.09375 2.765625 -0.875 C 1.921875 -1.664062 1.5 -2.785156 1.5 -4.234375 C 1.5 -5.140625 1.6875 -5.898438 2.0625 -6.515625 C 2.4375 -7.140625 3.015625 -7.644531 3.796875 -8.03125 C 4.578125 -8.425781 5.597656 -8.726562 6.859375 -8.9375 C 7.960938 -9.125 8.800781 -9.332031 9.375 -9.5625 C 9.945312 -9.789062 10.332031 -10.046875 10.53125 -10.328125 C 10.726562 -10.617188 10.828125 -10.976562 10.828125 -11.40625 C 10.828125 -12.101562 10.585938 -12.632812 10.109375 -13 C 9.640625 -13.363281 8.882812 -13.546875 7.84375 -13.546875 C 6.851562 -13.546875 6.003906 -13.351562 5.296875 -12.96875 C 4.597656 -12.59375 3.957031 -12.03125 3.375 -11.28125 L 3.09375 -11.28125 L 1.984375 -12.828125 C 2.628906 -13.648438 3.445312 -14.300781 4.4375 -14.78125 C 5.4375 -15.269531 6.570312 -15.515625 7.84375 -15.515625 C 9.632812 -15.515625 10.953125 -15.117188 11.796875 -14.328125 C 12.648438 -13.546875 13.078125 -12.457031 13.078125 -11.0625 L 13.078125 -3 C 13.078125 -2.144531 13.4375 -1.71875 14.15625 -1.71875 C 14.394531 -1.71875 14.625 -1.757812 14.84375 -1.84375 L 15.046875 -1.796875 L 15.3125 -0.234375 C 15.144531 -0.117188 14.925781 -0.0351562 14.65625 0.015625 C 14.382812 0.078125 14.101562 0.109375 13.8125 0.109375 C 12.976562 0.109375 12.347656 -0.0703125 11.921875 -0.4375 C 11.492188 -0.8125 11.21875 -1.351562 11.09375 -2.0625 L 10.8125 -2.09375 C 10.375 -1.289062 9.785156 -0.691406 9.046875 -0.296875 C 8.316406 0.0976562 7.394531 0.296875 6.28125 0.296875 Z M 6.78125 -1.5 C 7.625 -1.5 8.351562 -1.691406 8.96875 -2.078125 C 9.59375 -2.472656 10.070312 -3.023438 10.40625 -3.734375 C 10.738281 -4.441406 10.90625 -5.265625 10.90625 -6.203125 L 10.90625 -8.125 L 10.640625 -8.1875 C 10.296875 -7.945312 9.878906 -7.742188 9.390625 -7.578125 C 8.910156 -7.421875 8.234375 -7.28125 7.359375 -7.15625 C 6.472656 -7.03125 5.769531 -6.84375 5.25 -6.59375 C 4.726562 -6.34375 4.359375 -6.023438 4.140625 -5.640625 C 3.921875 -5.265625 3.8125 -4.796875 3.8125 -4.234375 C 3.8125 -3.335938 4.070312 -2.65625 4.59375 -2.1875 C 5.113281 -1.726562 5.84375 -1.5 6.78125 -1.5 Z M 6.78125 -1.5 "/></g></g><g transform="translate(324.935216, 467.563393)"><g><path d="M 2.65625 0 L 2.65625 -15.21875 L 4.796875 -15.21875 L 4.796875 -12.828125 L 5.078125 -12.765625 C 5.785156 -14.492188 7.117188 -15.359375 9.078125 -15.359375 C 10.117188 -15.359375 10.894531 -15.171875 11.40625 -14.796875 L 10.828125 -12.890625 L 10.5625 -12.828125 C 9.988281 -13.117188 9.363281 -13.265625 8.6875 -13.265625 C 7.46875 -13.265625 6.53125 -12.804688 5.875 -11.890625 C 5.226562 -10.984375 4.90625 -9.507812 4.90625 -7.46875 L 4.90625 0 Z M 2.65625 0 "/></g></g><g transform="translate(336.694497, 467.563393)"><g><path d="M 6.28125 0.296875 C 4.78125 0.296875 3.609375 -0.09375 2.765625 -0.875 C 1.921875 -1.664062 1.5 -2.785156 1.5 -4.234375 C 1.5 -5.140625 1.6875 -5.898438 2.0625 -6.515625 C 2.4375 -7.140625 3.015625 -7.644531 3.796875 -8.03125 C 4.578125 -8.425781 5.597656 -8.726562 6.859375 -8.9375 C 7.960938 -9.125 8.800781 -9.332031 9.375 -9.5625 C 9.945312 -9.789062 10.332031 -10.046875 10.53125 -10.328125 C 10.726562 -10.617188 10.828125 -10.976562 10.828125 -11.40625 C 10.828125 -12.101562 10.585938 -12.632812 10.109375 -13 C 9.640625 -13.363281 8.882812 -13.546875 7.84375 -13.546875 C 6.851562 -13.546875 6.003906 -13.351562 5.296875 -12.96875 C 4.597656 -12.59375 3.957031 -12.03125 3.375 -11.28125 L 3.09375 -11.28125 L 1.984375 -12.828125 C 2.628906 -13.648438 3.445312 -14.300781 4.4375 -14.78125 C 5.4375 -15.269531 6.570312 -15.515625 7.84375 -15.515625 C 9.632812 -15.515625 10.953125 -15.117188 11.796875 -14.328125 C 12.648438 -13.546875 13.078125 -12.457031 13.078125 -11.0625 L 13.078125 -3 C 13.078125 -2.144531 13.4375 -1.71875 14.15625 -1.71875 C 14.394531 -1.71875 14.625 -1.757812 14.84375 -1.84375 L 15.046875 -1.796875 L 15.3125 -0.234375 C 15.144531 -0.117188 14.925781 -0.0351562 14.65625 0.015625 C 14.382812 0.078125 14.101562 0.109375 13.8125 0.109375 C 12.976562 0.109375 12.347656 -0.0703125 11.921875 -0.4375 C 11.492188 -0.8125 11.21875 -1.351562 11.09375 -2.0625 L 10.8125 -2.09375 C 10.375 -1.289062 9.785156 -0.691406 9.046875 -0.296875 C 8.316406 0.0976562 7.394531 0.296875 6.28125 0.296875 Z M 6.78125 -1.5 C 7.625 -1.5 8.351562 -1.691406 8.96875 -2.078125 C 9.59375 -2.472656 10.070312 -3.023438 10.40625 -3.734375 C 10.738281 -4.441406 10.90625 -5.265625 10.90625 -6.203125 L 10.90625 -8.125 L 10.640625 -8.1875 C 10.296875 -7.945312 9.878906 -7.742188 9.390625 -7.578125 C 8.910156 -7.421875 8.234375 -7.28125 7.359375 -7.15625 C 6.472656 -7.03125 5.769531 -6.84375 5.25 -6.59375 C 4.726562 -6.34375 4.359375 -6.023438 4.140625 -5.640625 C 3.921875 -5.265625 3.8125 -4.796875 3.8125 -4.234375 C 3.8125 -3.335938 4.070312 -2.65625 4.59375 -2.1875 C 5.113281 -1.726562 5.84375 -1.5 6.78125 -1.5 Z M 6.78125 -1.5 "/></g></g><g transform="translate(352.442548, 467.563393)"><g><path d="M 7.84375 6.453125 C 5.4375 6.453125 3.679688 6.050781 2.578125 5.25 C 1.472656 4.457031 0.921875 3.394531 0.921875 2.0625 C 0.921875 1.207031 1.175781 0.523438 1.6875 0.015625 C 2.207031 -0.484375 2.960938 -0.84375 3.953125 -1.0625 L 3.953125 -1.359375 C 3.484375 -1.617188 3.128906 -1.925781 2.890625 -2.28125 C 2.660156 -2.644531 2.546875 -3.078125 2.546875 -3.578125 C 2.546875 -4.160156 2.726562 -4.632812 3.09375 -5 C 3.46875 -5.375 4.023438 -5.660156 4.765625 -5.859375 L 4.765625 -6.140625 C 3.109375 -7.015625 2.28125 -8.4375 2.28125 -10.40625 C 2.28125 -11.394531 2.503906 -12.273438 2.953125 -13.046875 C 3.398438 -13.828125 4.039062 -14.429688 4.875 -14.859375 C 5.71875 -15.296875 6.695312 -15.515625 7.8125 -15.515625 C 9.09375 -15.515625 10.160156 -15.234375 11.015625 -14.671875 C 11.335938 -15.023438 11.578125 -15.40625 11.734375 -15.8125 C 11.898438 -16.226562 12.003906 -16.691406 12.046875 -17.203125 L 12.34375 -17.390625 L 14.1875 -16.953125 C 14.09375 -16.171875 13.859375 -15.515625 13.484375 -14.984375 C 13.117188 -14.453125 12.59375 -14.007812 11.90625 -13.65625 L 11.90625 -13.375 C 12.394531 -12.988281 12.753906 -12.535156 12.984375 -12.015625 C 13.222656 -11.492188 13.34375 -10.890625 13.34375 -10.203125 C 13.34375 -9.242188 13.113281 -8.378906 12.65625 -7.609375 C 12.195312 -6.847656 11.546875 -6.25 10.703125 -5.8125 C 9.867188 -5.375 8.90625 -5.15625 7.8125 -5.15625 C 7.6875 -5.15625 7.457031 -5.164062 7.125 -5.1875 C 6.75 -5.207031 6.476562 -5.21875 6.3125 -5.21875 C 5.832031 -5.21875 5.445312 -5.09375 5.15625 -4.84375 C 4.875 -4.59375 4.734375 -4.273438 4.734375 -3.890625 C 4.734375 -3.410156 4.882812 -3.054688 5.1875 -2.828125 C 5.5 -2.609375 6.007812 -2.484375 6.71875 -2.453125 L 10.328125 -2.328125 C 11.878906 -2.273438 13.03125 -1.914062 13.78125 -1.25 C 14.53125 -0.582031 14.90625 0.363281 14.90625 1.59375 C 14.90625 2.5 14.660156 3.316406 14.171875 4.046875 C 13.679688 4.773438 12.90625 5.359375 11.84375 5.796875 C 10.789062 6.234375 9.457031 6.453125 7.84375 6.453125 Z M 7.8125 -7.09375 C 8.882812 -7.09375 9.710938 -7.375 10.296875 -7.9375 C 10.890625 -8.5 11.1875 -9.285156 11.1875 -10.296875 C 11.1875 -11.347656 10.894531 -12.15625 10.3125 -12.71875 C 9.726562 -13.289062 8.894531 -13.578125 7.8125 -13.578125 C 6.726562 -13.578125 5.898438 -13.296875 5.328125 -12.734375 C 4.753906 -12.171875 4.46875 -11.359375 4.46875 -10.296875 C 4.46875 -9.273438 4.753906 -8.484375 5.328125 -7.921875 C 5.898438 -7.367188 6.726562 -7.09375 7.8125 -7.09375 Z M 7.84375 4.53125 C 8.957031 4.53125 9.867188 4.40625 10.578125 4.15625 C 11.296875 3.90625 11.8125 3.570312 12.125 3.15625 C 12.4375 2.75 12.59375 2.296875 12.59375 1.796875 C 12.59375 1.347656 12.507812 0.984375 12.34375 0.703125 C 12.175781 0.429688 11.898438 0.222656 11.515625 0.078125 C 11.140625 -0.0546875 10.628906 -0.140625 9.984375 -0.171875 L 6.5625 -0.34375 L 6.09375 -0.34375 C 4.1875 -0.3125 3.234375 0.425781 3.234375 1.875 C 3.234375 3.644531 4.769531 4.53125 7.84375 4.53125 Z M 7.84375 4.53125 "/></g></g><g transform="translate(368.038777, 467.563393)"><g><path d="M 2.65625 0 L 2.65625 -15.21875 L 4.796875 -15.21875 L 4.796875 -12.828125 L 5.078125 -12.765625 C 5.785156 -14.492188 7.117188 -15.359375 9.078125 -15.359375 C 10.117188 -15.359375 10.894531 -15.171875 11.40625 -14.796875 L 10.828125 -12.890625 L 10.5625 -12.828125 C 9.988281 -13.117188 9.363281 -13.265625 8.6875 -13.265625 C 7.46875 -13.265625 6.53125 -12.804688 5.875 -11.890625 C 5.226562 -10.984375 4.90625 -9.507812 4.90625 -7.46875 L 4.90625 0 Z M 2.65625 0 "/></g></g><g transform="translate(379.798058, 467.563393)"><g><path d="M 6.28125 0.296875 C 4.78125 0.296875 3.609375 -0.09375 2.765625 -0.875 C 1.921875 -1.664062 1.5 -2.785156 1.5 -4.234375 C 1.5 -5.140625 1.6875 -5.898438 2.0625 -6.515625 C 2.4375 -7.140625 3.015625 -7.644531 3.796875 -8.03125 C 4.578125 -8.425781 5.597656 -8.726562 6.859375 -8.9375 C 7.960938 -9.125 8.800781 -9.332031 9.375 -9.5625 C 9.945312 -9.789062 10.332031 -10.046875 10.53125 -10.328125 C 10.726562 -10.617188 10.828125 -10.976562 10.828125 -11.40625 C 10.828125 -12.101562 10.585938 -12.632812 10.109375 -13 C 9.640625 -13.363281 8.882812 -13.546875 7.84375 -13.546875 C 6.851562 -13.546875 6.003906 -13.351562 5.296875 -12.96875 C 4.597656 -12.59375 3.957031 -12.03125 3.375 -11.28125 L 3.09375 -11.28125 L 1.984375 -12.828125 C 2.628906 -13.648438 3.445312 -14.300781 4.4375 -14.78125 C 5.4375 -15.269531 6.570312 -15.515625 7.84375 -15.515625 C 9.632812 -15.515625 10.953125 -15.117188 11.796875 -14.328125 C 12.648438 -13.546875 13.078125 -12.457031 13.078125 -11.0625 L 13.078125 -3 C 13.078125 -2.144531 13.4375 -1.71875 14.15625 -1.71875 C 14.394531 -1.71875 14.625 -1.757812 14.84375 -1.84375 L 15.046875 -1.796875 L 15.3125 -0.234375 C 15.144531 -0.117188 14.925781 -0.0351562 14.65625 0.015625 C 14.382812 0.078125 14.101562 0.109375 13.8125 0.109375 C 12.976562 0.109375 12.347656 -0.0703125 11.921875 -0.4375 C 11.492188 -0.8125 11.21875 -1.351562 11.09375 -2.0625 L 10.8125 -2.09375 C 10.375 -1.289062 9.785156 -0.691406 9.046875 -0.296875 C 8.316406 0.0976562 7.394531 0.296875 6.28125 0.296875 Z M 6.78125 -1.5 C 7.625 -1.5 8.351562 -1.691406 8.96875 -2.078125 C 9.59375 -2.472656 10.070312 -3.023438 10.40625 -3.734375 C 10.738281 -4.441406 10.90625 -5.265625 10.90625 -6.203125 L 10.90625 -8.125 L 10.640625 -8.1875 C 10.296875 -7.945312 9.878906 -7.742188 9.390625 -7.578125 C 8.910156 -7.421875 8.234375 -7.28125 7.359375 -7.15625 C 6.472656 -7.03125 5.769531 -6.84375 5.25 -6.59375 C 4.726562 -6.34375 4.359375 -6.023438 4.140625 -5.640625 C 3.921875 -5.265625 3.8125 -4.796875 3.8125 -4.234375 C 3.8125 -3.335938 4.070312 -2.65625 4.59375 -2.1875 C 5.113281 -1.726562 5.84375 -1.5 6.78125 -1.5 Z M 6.78125 -1.5 "/></g></g><g transform="translate(395.546108, 467.563393)"><g><path d="M 2.65625 6.171875 L 2.65625 -15.21875 L 4.90625 -15.21875 L 4.90625 -12.953125 L 5.1875 -12.890625 C 6.320312 -14.640625 7.984375 -15.515625 10.171875 -15.515625 C 11.441406 -15.515625 12.550781 -15.222656 13.5 -14.640625 C 14.445312 -14.066406 15.179688 -13.1875 15.703125 -12 C 16.234375 -10.820312 16.5 -9.359375 16.5 -7.609375 C 16.5 -5.867188 16.222656 -4.410156 15.671875 -3.234375 C 15.117188 -2.054688 14.351562 -1.171875 13.375 -0.578125 C 12.394531 0.00390625 11.269531 0.296875 10 0.296875 C 8.96875 0.296875 8.050781 0.117188 7.25 -0.234375 C 6.457031 -0.597656 5.769531 -1.191406 5.1875 -2.015625 L 4.90625 -1.953125 L 4.90625 6.171875 Z M 9.515625 -1.71875 C 12.597656 -1.71875 14.140625 -3.679688 14.140625 -7.609375 C 14.140625 -11.535156 12.597656 -13.5 9.515625 -13.5 C 8.609375 -13.5 7.8125 -13.289062 7.125 -12.875 C 6.4375 -12.457031 5.894531 -11.8125 5.5 -10.9375 C 5.101562 -10.0625 4.90625 -8.953125 4.90625 -7.609375 C 4.90625 -6.273438 5.101562 -5.164062 5.5 -4.28125 C 5.894531 -3.40625 6.4375 -2.757812 7.125 -2.34375 C 7.8125 -1.925781 8.609375 -1.71875 9.515625 -1.71875 Z M 9.515625 -1.71875 "/></g></g><g transform="translate(413.709505, 467.563393)"><g><path d="M 2.65625 0 L 2.65625 -21.34375 L 4.90625 -21.34375 L 4.90625 -13.0625 L 5.1875 -13 C 6.269531 -14.675781 7.835938 -15.515625 9.890625 -15.515625 C 11.722656 -15.515625 13.050781 -15.046875 13.875 -14.109375 C 14.695312 -13.179688 15.109375 -11.742188 15.109375 -9.796875 L 15.109375 0 L 12.859375 0 L 12.859375 -9.75 C 12.859375 -10.664062 12.738281 -11.398438 12.5 -11.953125 C 12.269531 -12.515625 11.910156 -12.921875 11.421875 -13.171875 C 10.929688 -13.421875 10.285156 -13.546875 9.484375 -13.546875 C 8.097656 -13.546875 6.988281 -13.097656 6.15625 -12.203125 C 5.320312 -11.316406 4.90625 -9.851562 4.90625 -7.8125 L 4.90625 0 Z M 2.65625 0 "/></g></g><g transform="translate(431.23801, 467.563393)"><g/></g><g transform="translate(438.1666, 467.563393)"><g><path d="M 10.296875 -2.421875 L 11.015625 -0.796875 C 10.648438 -0.441406 10.175781 -0.171875 9.59375 0.015625 C 9.007812 0.203125 8.378906 0.296875 7.703125 0.296875 C 4.796875 0.296875 3.34375 -1.175781 3.34375 -4.125 L 3.34375 -13.390625 L 0.6875 -13.390625 L 0.6875 -15.234375 L 3.34375 -15.234375 L 3.34375 -18.453125 L 5.59375 -18.828125 L 5.59375 -15.234375 L 10.484375 -15.234375 L 10.484375 -13.390625 L 5.59375 -13.390625 L 5.59375 -4.34375 C 5.59375 -2.59375 6.347656 -1.71875 7.859375 -1.71875 C 8.691406 -1.71875 9.40625 -1.953125 10 -2.421875 Z M 10.296875 -2.421875 "/></g></g><g transform="translate(449.760257, 467.563393)"><g><path d="M 14.5 -7.09375 L 4.046875 -7.09375 C 4.109375 -5.238281 4.550781 -3.878906 5.375 -3.015625 C 6.195312 -2.148438 7.328125 -1.71875 8.765625 -1.71875 C 9.847656 -1.71875 10.71875 -1.910156 11.375 -2.296875 C 12.039062 -2.691406 12.566406 -3.300781 12.953125 -4.125 L 13.234375 -4.125 L 14.703125 -3.25 C 14.253906 -2.144531 13.546875 -1.273438 12.578125 -0.640625 C 11.609375 -0.015625 10.335938 0.296875 8.765625 0.296875 C 7.296875 0.296875 6.03125 0.00390625 4.96875 -0.578125 C 3.90625 -1.160156 3.085938 -2.039062 2.515625 -3.21875 C 1.953125 -4.394531 1.671875 -5.859375 1.671875 -7.609375 C 1.671875 -9.335938 1.972656 -10.796875 2.578125 -11.984375 C 3.179688 -13.171875 4.003906 -14.054688 5.046875 -14.640625 C 6.085938 -15.222656 7.28125 -15.515625 8.625 -15.515625 C 10.570312 -15.515625 12.09375 -14.960938 13.1875 -13.859375 C 14.289062 -12.765625 14.84375 -11.132812 14.84375 -8.96875 C 14.84375 -8.125 14.828125 -7.554688 14.796875 -7.265625 Z M 12.625 -8.96875 C 12.59375 -10.59375 12.234375 -11.769531 11.546875 -12.5 C 10.867188 -13.238281 9.894531 -13.609375 8.625 -13.609375 C 7.289062 -13.609375 6.242188 -13.238281 5.484375 -12.5 C 4.722656 -11.757812 4.257812 -10.582031 4.09375 -8.96875 Z M 12.625 -8.96875 "/></g></g><g transform="translate(465.991377, 467.563393)"><g><path d="M 3.171875 0 L 0.6875 0 L 5.390625 -7.890625 L 0.921875 -15.21875 L 3.46875 -15.21875 L 6.984375 -9.375 L 7.296875 -9.375 L 10.828125 -15.21875 L 13.265625 -15.21875 L 8.90625 -7.890625 L 13.5 0 L 10.953125 0 L 7.203125 -6.4375 L 6.890625 -6.4375 Z M 3.171875 0 "/></g></g><g transform="translate(480.179805, 467.563393)"><g><path d="M 10.296875 -2.421875 L 11.015625 -0.796875 C 10.648438 -0.441406 10.175781 -0.171875 9.59375 0.015625 C 9.007812 0.203125 8.378906 0.296875 7.703125 0.296875 C 4.796875 0.296875 3.34375 -1.175781 3.34375 -4.125 L 3.34375 -13.390625 L 0.6875 -13.390625 L 0.6875 -15.234375 L 3.34375 -15.234375 L 3.34375 -18.453125 L 5.59375 -18.828125 L 5.59375 -15.234375 L 10.484375 -15.234375 L 10.484375 -13.390625 L 5.59375 -13.390625 L 5.59375 -4.34375 C 5.59375 -2.59375 6.347656 -1.71875 7.859375 -1.71875 C 8.691406 -1.71875 9.40625 -1.953125 10 -2.421875 Z M 10.296875 -2.421875 "/></g></g></g></svg>