<svg xmlns="http://www.w3.org/2000/svg" xmlns:xlink="http://www.w3.org/1999/xlink" width="1080" zoomAndPan="magnify" viewBox="0 0 810 809.999993" height="1080" preserveAspectRatio="xMidYMid meet" version="1.0"><defs><g/><clipPath id="d607676537"><path d="M 676 476 L 730.726562 476 L 730.726562 542 L 676 542 Z M 676 476 " clip-rule="nonzero"/></clipPath></defs><path fill="#0b1f2d" d="M 648.820312 519.28125 C 607.570312 519.28125 558.589844 512.941406 526.265625 487.800781 C 505.203125 471.425781 493.644531 448.832031 491.90625 420.65625 C 491.742188 418.007812 493.761719 415.726562 496.410156 415.5625 C 499.015625 415.402344 501.34375 417.414062 501.503906 420.0625 C 503.0625 445.367188 513.378906 465.605469 532.167969 480.214844 C 592.691406 527.28125 721.667969 503.5 722.960938 503.261719 C 725.613281 502.773438 728.085938 504.480469 728.578125 507.085938 C 729.070312 509.695312 727.359375 512.210938 724.753906 512.707031 C 722.050781 513.21875 689.128906 519.28125 648.820312 519.28125 Z M 648.820312 519.28125 " fill-opacity="1" fill-rule="nonzero"/><g clip-path="url(#d607676537)"><path fill="#0b1f2d" d="M 724.917969 541.226562 C 717.738281 541.226562 682.714844 540 677.078125 516.371094 C 670.773438 489.964844 714.042969 476.75 715.890625 476.199219 C 718.445312 475.445312 721.105469 476.890625 721.867188 479.429688 C 722.625 481.976562 721.179688 484.652344 718.636719 485.410156 C 718.269531 485.519531 682.296875 496.8125 686.429688 514.136719 C 690.707031 532.066406 725.574219 531.679688 725.871094 531.597656 C 728.625 531.644531 730.734375 533.609375 730.808594 536.265625 C 730.882812 538.917969 728.800781 541.132812 726.148438 541.210938 C 726 541.210938 725.574219 541.226562 724.917969 541.226562 Z M 724.917969 541.226562 " fill-opacity="1" fill-rule="nonzero"/></g><path fill="#cb6ce6" d="M 367.792969 605.640625 C 369.074219 626.246094 370.355469 646.523438 371.648438 666.464844 C 372.933594 686.421875 374.214844 706.691406 375.515625 727.28125 C 376.148438 732.441406 376.476562 737.105469 376.476562 741.28125 C 376.476562 745.472656 376.476562 750.136719 376.476562 755.28125 C 375.179688 769.445312 371.648438 779.75 365.855469 786.171875 C 360.0625 792.597656 350.078125 796.460938 335.929688 797.757812 C 326.277344 799.039062 316.621094 800.007812 306.96875 800.65625 C 297.316406 801.289062 287.328125 801.9375 277.039062 802.582031 C 255.800781 803.867188 234.878906 805.152344 214.289062 806.449219 C 193.683594 807.730469 172.78125 808.695312 151.535156 809.34375 C 136.726562 809.976562 126.753906 808.042969 121.609375 803.550781 C 116.453125 799.039062 112.589844 789.066406 110.027344 773.625 C 106.796875 751.101562 103.75 728.25 100.855469 705.078125 C 97.957031 681.910156 95.542969 658.421875 93.613281 634.601562 C 79.453125 471.132812 79.132812 306.050781 92.648438 139.351562 C 93.28125 127.769531 94.414062 118.445312 96.027344 111.355469 C 97.628906 104.28125 100.371094 98.488281 104.234375 93.976562 C 108.09375 89.484375 113.558594 85.9375 120.644531 83.359375 C 127.722656 80.796875 137.375 78.214844 149.605469 75.636719 C 186.296875 68.5625 222.8125 61.96875 259.183594 55.84375 C 295.53125 49.734375 332.386719 47.972656 369.722656 50.535156 C 398.683594 52.464844 426.511719 56.660156 453.226562 63.082031 C 479.925781 69.527344 506.472656 78.53125 532.875 90.113281 C 567.628906 105.5625 594.328125 126.800781 613.003906 153.832031 C 631.664062 180.863281 644.210938 213.054688 650.652344 250.371094 C 655.796875 278.703125 656.761719 305.082031 653.550781 329.535156 C 650.320312 354.003906 643.726562 377.324219 633.757812 399.527344 C 623.773438 421.734375 610.902344 442.65625 595.144531 462.28125 C 579.367188 481.921875 561.503906 500.414062 541.5625 517.792969 C 519.027344 537.75 494.742188 554.640625 468.671875 568.476562 C 442.609375 582.320312 414.445312 592.460938 384.199219 598.886719 C 381.621094 599.535156 379.042969 600.496094 376.476562 601.777344 C 373.898438 603.078125 371.003906 604.359375 367.792969 605.640625 Z M 333.03125 251.339844 C 334.316406 277.089844 335.28125 301.871094 335.929688 325.671875 C 336.5625 349.492188 337.53125 373.3125 338.824219 397.113281 C 347.832031 395.832031 357.003906 392.773438 366.339844 387.941406 C 375.664062 383.117188 384.199219 377.65625 391.925781 371.535156 C 399.648438 365.421875 406.402344 358.496094 412.199219 350.773438 C 417.992188 343.050781 421.855469 335.664062 423.785156 328.570312 C 428.277344 311.195312 426.832031 296.078125 419.4375 283.195312 C 412.03125 270.328125 399.648438 261.644531 382.269531 257.132812 C 375.179688 255.851562 367.621094 254.882812 359.585938 254.234375 C 351.53125 253.601562 342.691406 252.636719 333.03125 251.339844 Z M 333.03125 251.339844 " fill-opacity="1" fill-rule="nonzero"/><path fill="#ffffff" d="M 153.445312 598.820312 C 136.539062 604.71875 144.183594 654.421875 159.097656 646.824219 C 174.011719 639.230469 170.347656 592.917969 153.445312 598.820312 Z M 153.445312 598.820312 " fill-opacity="1" fill-rule="nonzero"/><path fill="#ffffff" d="M 155.199219 717.667969 C 138.292969 723.566406 145.941406 773.269531 160.855469 765.675781 C 175.769531 758.078125 172.101562 711.769531 155.199219 717.667969 Z M 155.199219 717.667969 " fill-opacity="1" fill-rule="nonzero"/><path fill="#ffffff" d="M 127.027344 662.5625 C 113.09375 667.425781 119.394531 708.394531 131.6875 702.132812 C 143.980469 695.871094 140.960938 657.699219 127.027344 662.5625 Z M 127.027344 662.5625 " fill-opacity="1" fill-rule="nonzero"/><path fill="#ffffff" d="M 331.652344 712.238281 C 314.746094 718.136719 322.394531 767.84375 337.308594 760.246094 C 352.222656 752.648438 348.554688 706.339844 331.652344 712.238281 Z M 331.652344 712.238281 " fill-opacity="1" fill-rule="nonzero"/><path fill="#ffffff" d="M 303.480469 657.132812 C 289.546875 661.996094 295.847656 702.964844 308.140625 696.703125 C 320.433594 690.441406 317.414062 652.269531 303.480469 657.132812 Z M 303.480469 657.132812 " fill-opacity="1" fill-rule="nonzero"/><path fill="#0b1f2d" d="M 290.492188 524.714844 C 249.246094 524.714844 200.253906 518.367188 167.929688 493.234375 C 146.867188 476.851562 135.308594 454.261719 133.570312 426.085938 C 133.40625 423.4375 135.425781 421.15625 138.074219 420.992188 C 140.753906 420.890625 143.007812 422.847656 143.167969 425.496094 C 144.726562 450.792969 155.042969 471.03125 173.832031 485.640625 C 234.351562 532.710938 363.324219 508.929688 364.625 508.691406 C 367.253906 508.21875 369.75 509.914062 370.242188 512.519531 C 370.738281 515.128906 369.023438 517.644531 366.417969 518.136719 C 363.714844 518.648438 330.800781 524.714844 290.492188 524.714844 Z M 290.492188 524.714844 " fill-opacity="1" fill-rule="nonzero"/><path fill="#0b1f2d" d="M 366.589844 546.65625 C 359.425781 546.65625 324.382812 545.4375 318.746094 521.796875 C 312.4375 495.390625 355.710938 482.175781 357.554688 481.628906 C 360.109375 480.867188 362.773438 482.324219 363.53125 484.855469 C 364.289062 487.402344 362.84375 490.078125 360.300781 490.839844 C 359.933594 490.945312 323.960938 502.242188 328.097656 519.5625 C 332.367188 537.484375 367.195312 537.078125 367.535156 537.027344 C 370.074219 536.921875 372.398438 539.046875 372.472656 541.699219 C 372.546875 544.351562 370.464844 546.5625 367.8125 546.640625 C 367.667969 546.640625 367.242188 546.65625 366.589844 546.65625 Z M 366.589844 546.65625 " fill-opacity="1" fill-rule="nonzero"/><path fill="#ffffff" d="M 228.351562 115.738281 C 186.71875 186.242188 296.070312 245.34375 323.195312 172.667969 C 350.316406 99.992188 269.984375 45.234375 228.351562 115.738281 Z M 228.351562 115.738281 " fill-opacity="1" fill-rule="nonzero"/><path fill="#0b1f2d" d="M 281.648438 83.367188 C 279.039062 88.308594 276.527344 93.839844 274.160156 100.039062 C 258.441406 141.167969 265.105469 179.972656 280.734375 205.867188 C 298.175781 205.242188 314.707031 195.40625 323.195312 172.667969 C 340.53125 126.210938 313.953125 87.140625 281.648438 83.367188 Z M 281.648438 83.367188 " fill-opacity="1" fill-rule="nonzero"/><path fill="#ffffff" d="M 421.996094 117.550781 C 380.363281 188.050781 489.714844 247.15625 516.839844 174.480469 C 543.964844 101.800781 463.628906 47.046875 421.996094 117.550781 Z M 421.996094 117.550781 " fill-opacity="1" fill-rule="nonzero"/><path fill="#0b1f2d" d="M 475.296875 85.175781 C 472.683594 90.121094 470.175781 95.648438 467.804688 101.851562 C 452.089844 142.980469 458.753906 181.785156 474.378906 207.679688 C 491.820312 207.050781 508.355469 197.214844 516.839844 174.480469 C 534.175781 128.023438 507.597656 88.953125 475.296875 85.175781 Z M 475.296875 85.175781 " fill-opacity="1" fill-rule="nonzero"/><path fill="#0b1f2d" d="M 190.714844 56.339844 C 202.597656 74.210938 275.015625 40.484375 266.707031 20.234375 C 258.394531 -0.0117188 178.828125 38.472656 190.714844 56.339844 Z M 190.714844 56.339844 " fill-opacity="1" fill-rule="nonzero"/><path fill="#0b1f2d" d="M 475.574219 24.300781 C 470.382812 45.125 544.109375 75.890625 553.464844 56.105469 C 562.820312 36.320312 480.765625 3.476562 475.574219 24.300781 Z M 475.574219 24.300781 " fill-opacity="1" fill-rule="nonzero"/><path fill="#0b1f2d" d="M 427.691406 230.1875 C 367.601562 283.570312 276.789062 207.449219 268.828125 261.792969 C 260.871094 316.132812 289.796875 428.675781 372.058594 420.949219 C 490.921875 409.785156 487.785156 176.808594 427.691406 230.1875 Z M 427.691406 230.1875 " fill-opacity="1" fill-rule="nonzero"/><path fill="#cb6ce6" d="M 343.824219 393.914062 C 343.824219 393.914062 397.878906 402.847656 427.019531 362.894531 C 427.019531 362.894531 364.976562 340.332031 343.824219 393.914062 Z M 343.824219 393.914062 " fill-opacity="1" fill-rule="nonzero"/><path fill="#ffffff" d="M 305.75 269.367188 C 305.75 269.367188 300.398438 302.085938 318.441406 304.148438 C 334.894531 306.027344 339.59375 277.355469 339.59375 277.355469 C 339.59375 277.355469 340.449219 310.285156 359.804688 309.789062 C 378.136719 309.320312 380.015625 281.117188 380.015625 281.117188 C 380.015625 281.117188 388.476562 311.199219 406.339844 305.089844 C 424.199219 298.976562 416.210938 273.125 416.210938 273.125 C 416.210938 273.125 340.0625 282.058594 305.75 269.367188 Z M 305.75 269.367188 " fill-opacity="1" fill-rule="nonzero"/><g fill="#cb6ce6" fill-opacity="1"><g transform="translate(116.784365, 576.469791)"><g><path d="M 10.453125 0 L 7.953125 0 L 7.953125 -8.40625 L 0.5625 -21.421875 L 3.3125 -21.421875 L 9.078125 -11.375 L 9.453125 -11.375 L 15.171875 -21.421875 L 17.875 -21.421875 L 10.453125 -8.40625 Z M 10.453125 0 "/></g></g><g transform="translate(135.19745, 576.469791)"><g><path d="M 9.265625 0.3125 C 7.742188 0.3125 6.421875 -0.0078125 5.296875 -0.65625 C 4.171875 -1.300781 3.300781 -2.25 2.6875 -3.5 C 2.070312 -4.757812 1.765625 -6.285156 1.765625 -8.078125 C 1.765625 -9.859375 2.070312 -11.378906 2.6875 -12.640625 C 3.300781 -13.898438 4.171875 -14.851562 5.296875 -15.5 C 6.421875 -16.144531 7.742188 -16.46875 9.265625 -16.46875 C 10.796875 -16.46875 12.125 -16.144531 13.25 -15.5 C 14.375 -14.851562 15.238281 -13.898438 15.84375 -12.640625 C 16.457031 -11.378906 16.765625 -9.859375 16.765625 -8.078125 C 16.765625 -6.285156 16.457031 -4.757812 15.84375 -3.5 C 15.238281 -2.25 14.375 -1.300781 13.25 -0.65625 C 12.125 -0.0078125 10.796875 0.3125 9.265625 0.3125 Z M 9.265625 -1.828125 C 10.878906 -1.828125 12.113281 -2.332031 12.96875 -3.34375 C 13.820312 -4.363281 14.25 -5.941406 14.25 -8.078125 C 14.25 -10.210938 13.820312 -11.785156 12.96875 -12.796875 C 12.113281 -13.816406 10.878906 -14.328125 9.265625 -14.328125 C 7.660156 -14.328125 6.425781 -13.816406 5.5625 -12.796875 C 4.707031 -11.773438 4.28125 -10.203125 4.28125 -8.078125 C 4.28125 -5.941406 4.707031 -4.363281 5.5625 -3.34375 C 6.425781 -2.332031 7.660156 -1.828125 9.265625 -1.828125 Z M 9.265625 -1.828125 "/></g></g><g transform="translate(153.742371, 576.469791)"><g><path d="M 7.984375 0.3125 C 6.160156 0.3125 4.800781 -0.171875 3.90625 -1.140625 C 3.007812 -2.109375 2.5625 -3.523438 2.5625 -5.390625 L 2.5625 -16.15625 L 4.953125 -16.15625 L 4.953125 -5.453125 C 4.953125 -2.992188 6.101562 -1.765625 8.40625 -1.765625 C 9.875 -1.765625 11.03125 -2.242188 11.875 -3.203125 C 12.726562 -4.160156 13.15625 -5.710938 13.15625 -7.859375 L 13.15625 -16.15625 L 15.546875 -16.15625 L 15.546875 0 L 13.28125 0 L 13.28125 -2.53125 L 12.984375 -2.609375 C 12.421875 -1.617188 11.75 -0.882812 10.96875 -0.40625 C 10.195312 0.0703125 9.203125 0.3125 7.984375 0.3125 Z M 7.984375 0.3125 "/></g></g><g transform="translate(172.096862, 576.469791)"><g><path d="M 2.8125 0 L 2.8125 -16.15625 L 5.078125 -16.15625 L 5.078125 -13.625 L 5.390625 -13.546875 C 6.140625 -15.378906 7.554688 -16.296875 9.640625 -16.296875 C 10.742188 -16.296875 11.566406 -16.097656 12.109375 -15.703125 L 11.5 -13.6875 L 11.203125 -13.625 C 10.597656 -13.925781 9.9375 -14.078125 9.21875 -14.078125 C 7.925781 -14.078125 6.929688 -13.59375 6.234375 -12.625 C 5.546875 -11.65625 5.203125 -10.085938 5.203125 -7.921875 L 5.203125 0 Z M 2.8125 0 "/></g></g><g transform="translate(184.57733, 576.469791)"><g/></g><g transform="translate(191.930846, 576.469791)"><g><path d="M 2.8125 6.546875 L 2.8125 -16.15625 L 5.203125 -16.15625 L 5.203125 -13.734375 L 5.515625 -13.6875 C 6.710938 -15.539062 8.472656 -16.46875 10.796875 -16.46875 C 12.140625 -16.46875 13.3125 -16.160156 14.3125 -15.546875 C 15.320312 -14.929688 16.101562 -13.992188 16.65625 -12.734375 C 17.21875 -11.484375 17.5 -9.929688 17.5 -8.078125 C 17.5 -6.222656 17.207031 -4.671875 16.625 -3.421875 C 16.039062 -2.171875 15.226562 -1.234375 14.1875 -0.609375 C 13.15625 0.00390625 11.96875 0.3125 10.625 0.3125 C 9.53125 0.3125 8.554688 0.125 7.703125 -0.25 C 6.859375 -0.632812 6.128906 -1.265625 5.515625 -2.140625 L 5.203125 -2.078125 L 5.203125 6.546875 Z M 10.09375 -1.828125 C 13.363281 -1.828125 15 -3.910156 15 -8.078125 C 15 -12.242188 13.363281 -14.328125 10.09375 -14.328125 C 9.132812 -14.328125 8.285156 -14.109375 7.546875 -13.671875 C 6.816406 -13.234375 6.242188 -12.546875 5.828125 -11.609375 C 5.410156 -10.671875 5.203125 -9.492188 5.203125 -8.078125 C 5.203125 -6.660156 5.410156 -5.484375 5.828125 -4.546875 C 6.242188 -3.617188 6.816406 -2.929688 7.546875 -2.484375 C 8.285156 -2.046875 9.132812 -1.828125 10.09375 -1.828125 Z M 10.09375 -1.828125 "/></g></g><g transform="translate(211.208189, 576.469791)"><g><path d="M 6.671875 0.3125 C 5.078125 0.3125 3.832031 -0.101562 2.9375 -0.9375 C 2.039062 -1.769531 1.59375 -2.957031 1.59375 -4.5 C 1.59375 -5.457031 1.789062 -6.265625 2.1875 -6.921875 C 2.582031 -7.578125 3.195312 -8.113281 4.03125 -8.53125 C 4.863281 -8.945312 5.945312 -9.269531 7.28125 -9.5 C 8.445312 -9.6875 9.335938 -9.898438 9.953125 -10.140625 C 10.566406 -10.390625 10.976562 -10.664062 11.1875 -10.96875 C 11.394531 -11.269531 11.5 -11.648438 11.5 -12.109375 C 11.5 -12.847656 11.242188 -13.410156 10.734375 -13.796875 C 10.234375 -14.191406 9.429688 -14.390625 8.328125 -14.390625 C 7.273438 -14.390625 6.375 -14.1875 5.625 -13.78125 C 4.882812 -13.375 4.203125 -12.769531 3.578125 -11.96875 L 3.28125 -11.96875 L 2.109375 -13.625 C 2.796875 -14.488281 3.664062 -15.175781 4.71875 -15.6875 C 5.769531 -16.207031 6.972656 -16.46875 8.328125 -16.46875 C 10.222656 -16.46875 11.625 -16.046875 12.53125 -15.203125 C 13.4375 -14.367188 13.890625 -13.21875 13.890625 -11.75 L 13.890625 -3.171875 C 13.890625 -2.273438 14.269531 -1.828125 15.03125 -1.828125 C 15.28125 -1.828125 15.523438 -1.875 15.765625 -1.96875 L 15.96875 -1.90625 L 16.25 -0.25 C 16.070312 -0.132812 15.835938 -0.046875 15.546875 0.015625 C 15.265625 0.0859375 14.96875 0.125 14.65625 0.125 C 13.769531 0.125 13.097656 -0.0703125 12.640625 -0.46875 C 12.191406 -0.863281 11.90625 -1.441406 11.78125 -2.203125 L 11.46875 -2.234375 C 11.007812 -1.378906 10.390625 -0.738281 9.609375 -0.3125 C 8.828125 0.101562 7.847656 0.3125 6.671875 0.3125 Z M 7.1875 -1.59375 C 8.09375 -1.59375 8.875 -1.800781 9.53125 -2.21875 C 10.1875 -2.632812 10.691406 -3.21875 11.046875 -3.96875 C 11.398438 -4.71875 11.578125 -5.585938 11.578125 -6.578125 L 11.578125 -8.625 L 11.296875 -8.6875 C 10.929688 -8.4375 10.488281 -8.222656 9.96875 -8.046875 C 9.457031 -7.878906 8.738281 -7.726562 7.8125 -7.59375 C 6.875 -7.457031 6.128906 -7.257812 5.578125 -7 C 5.023438 -6.738281 4.628906 -6.40625 4.390625 -6 C 4.160156 -5.59375 4.046875 -5.09375 4.046875 -4.5 C 4.046875 -3.550781 4.320312 -2.828125 4.875 -2.328125 C 5.4375 -1.835938 6.207031 -1.59375 7.1875 -1.59375 Z M 7.1875 -1.59375 "/></g></g><g transform="translate(227.922055, 576.469791)"><g><path d="M 2.8125 0 L 2.8125 -16.15625 L 5.078125 -16.15625 L 5.078125 -13.625 L 5.390625 -13.546875 C 6.140625 -15.378906 7.554688 -16.296875 9.640625 -16.296875 C 10.742188 -16.296875 11.566406 -16.097656 12.109375 -15.703125 L 11.5 -13.6875 L 11.203125 -13.625 C 10.597656 -13.925781 9.9375 -14.078125 9.21875 -14.078125 C 7.925781 -14.078125 6.929688 -13.59375 6.234375 -12.625 C 5.546875 -11.65625 5.203125 -10.085938 5.203125 -7.921875 L 5.203125 0 Z M 2.8125 0 "/></g></g><g transform="translate(240.402523, 576.469791)"><g><path d="M 6.671875 0.3125 C 5.078125 0.3125 3.832031 -0.101562 2.9375 -0.9375 C 2.039062 -1.769531 1.59375 -2.957031 1.59375 -4.5 C 1.59375 -5.457031 1.789062 -6.265625 2.1875 -6.921875 C 2.582031 -7.578125 3.195312 -8.113281 4.03125 -8.53125 C 4.863281 -8.945312 5.945312 -9.269531 7.28125 -9.5 C 8.445312 -9.6875 9.335938 -9.898438 9.953125 -10.140625 C 10.566406 -10.390625 10.976562 -10.664062 11.1875 -10.96875 C 11.394531 -11.269531 11.5 -11.648438 11.5 -12.109375 C 11.5 -12.847656 11.242188 -13.410156 10.734375 -13.796875 C 10.234375 -14.191406 9.429688 -14.390625 8.328125 -14.390625 C 7.273438 -14.390625 6.375 -14.1875 5.625 -13.78125 C 4.882812 -13.375 4.203125 -12.769531 3.578125 -11.96875 L 3.28125 -11.96875 L 2.109375 -13.625 C 2.796875 -14.488281 3.664062 -15.175781 4.71875 -15.6875 C 5.769531 -16.207031 6.972656 -16.46875 8.328125 -16.46875 C 10.222656 -16.46875 11.625 -16.046875 12.53125 -15.203125 C 13.4375 -14.367188 13.890625 -13.21875 13.890625 -11.75 L 13.890625 -3.171875 C 13.890625 -2.273438 14.269531 -1.828125 15.03125 -1.828125 C 15.28125 -1.828125 15.523438 -1.875 15.765625 -1.96875 L 15.96875 -1.90625 L 16.25 -0.25 C 16.070312 -0.132812 15.835938 -0.046875 15.546875 0.015625 C 15.265625 0.0859375 14.96875 0.125 14.65625 0.125 C 13.769531 0.125 13.097656 -0.0703125 12.640625 -0.46875 C 12.191406 -0.863281 11.90625 -1.441406 11.78125 -2.203125 L 11.46875 -2.234375 C 11.007812 -1.378906 10.390625 -0.738281 9.609375 -0.3125 C 8.828125 0.101562 7.847656 0.3125 6.671875 0.3125 Z M 7.1875 -1.59375 C 8.09375 -1.59375 8.875 -1.800781 9.53125 -2.21875 C 10.1875 -2.632812 10.691406 -3.21875 11.046875 -3.96875 C 11.398438 -4.71875 11.578125 -5.585938 11.578125 -6.578125 L 11.578125 -8.625 L 11.296875 -8.6875 C 10.929688 -8.4375 10.488281 -8.222656 9.96875 -8.046875 C 9.457031 -7.878906 8.738281 -7.726562 7.8125 -7.59375 C 6.875 -7.457031 6.128906 -7.257812 5.578125 -7 C 5.023438 -6.738281 4.628906 -6.40625 4.390625 -6 C 4.160156 -5.59375 4.046875 -5.09375 4.046875 -4.5 C 4.046875 -3.550781 4.320312 -2.828125 4.875 -2.328125 C 5.4375 -1.835938 6.207031 -1.59375 7.1875 -1.59375 Z M 7.1875 -1.59375 "/></g></g><g transform="translate(257.11639, 576.469791)"><g><path d="M 8.328125 6.859375 C 5.773438 6.859375 3.910156 6.429688 2.734375 5.578125 C 1.566406 4.734375 0.984375 3.609375 0.984375 2.203125 C 0.984375 1.285156 1.253906 0.554688 1.796875 0.015625 C 2.347656 -0.515625 3.144531 -0.894531 4.1875 -1.125 L 4.1875 -1.4375 C 3.6875 -1.71875 3.3125 -2.046875 3.0625 -2.421875 C 2.820312 -2.804688 2.703125 -3.265625 2.703125 -3.796875 C 2.703125 -4.421875 2.894531 -4.925781 3.28125 -5.3125 C 3.675781 -5.707031 4.265625 -6.007812 5.046875 -6.21875 L 5.046875 -6.515625 C 3.296875 -7.441406 2.421875 -8.953125 2.421875 -11.046875 C 2.421875 -12.097656 2.660156 -13.035156 3.140625 -13.859375 C 3.617188 -14.679688 4.300781 -15.320312 5.1875 -15.78125 C 6.070312 -16.238281 7.109375 -16.46875 8.296875 -16.46875 C 9.648438 -16.46875 10.78125 -16.171875 11.6875 -15.578125 C 12.03125 -15.953125 12.285156 -16.359375 12.453125 -16.796875 C 12.628906 -17.234375 12.738281 -17.722656 12.78125 -18.265625 L 13.09375 -18.453125 L 15.0625 -17.984375 C 14.957031 -17.171875 14.707031 -16.476562 14.3125 -15.90625 C 13.914062 -15.34375 13.359375 -14.875 12.640625 -14.5 L 12.640625 -14.1875 C 13.160156 -13.78125 13.546875 -13.300781 13.796875 -12.75 C 14.046875 -12.195312 14.171875 -11.554688 14.171875 -10.828125 C 14.171875 -9.804688 13.925781 -8.890625 13.4375 -8.078125 C 12.945312 -7.273438 12.253906 -6.640625 11.359375 -6.171875 C 10.472656 -5.710938 9.453125 -5.484375 8.296875 -5.484375 C 8.160156 -5.484375 7.914062 -5.492188 7.5625 -5.515625 C 7.164062 -5.523438 6.875 -5.53125 6.6875 -5.53125 C 6.1875 -5.53125 5.785156 -5.398438 5.484375 -5.140625 C 5.179688 -4.878906 5.03125 -4.539062 5.03125 -4.125 C 5.03125 -3.625 5.191406 -3.253906 5.515625 -3.015625 C 5.835938 -2.773438 6.378906 -2.640625 7.140625 -2.609375 L 10.953125 -2.46875 C 12.609375 -2.414062 13.832031 -2.035156 14.625 -1.328125 C 15.425781 -0.617188 15.828125 0.382812 15.828125 1.6875 C 15.828125 2.65625 15.566406 3.523438 15.046875 4.296875 C 14.523438 5.078125 13.703125 5.695312 12.578125 6.15625 C 11.460938 6.625 10.046875 6.859375 8.328125 6.859375 Z M 8.296875 -7.53125 C 9.429688 -7.53125 10.3125 -7.828125 10.9375 -8.421875 C 11.5625 -9.015625 11.875 -9.847656 11.875 -10.921875 C 11.875 -12.035156 11.5625 -12.894531 10.9375 -13.5 C 10.320312 -14.113281 9.441406 -14.421875 8.296875 -14.421875 C 7.140625 -14.421875 6.257812 -14.117188 5.65625 -13.515625 C 5.050781 -12.910156 4.75 -12.046875 4.75 -10.921875 C 4.75 -9.835938 5.050781 -9 5.65625 -8.40625 C 6.257812 -7.820312 7.140625 -7.53125 8.296875 -7.53125 Z M 8.328125 4.8125 C 9.515625 4.8125 10.484375 4.675781 11.234375 4.40625 C 11.992188 4.144531 12.539062 3.796875 12.875 3.359375 C 13.207031 2.921875 13.375 2.4375 13.375 1.90625 C 13.375 1.425781 13.28125 1.039062 13.09375 0.75 C 12.914062 0.457031 12.625 0.238281 12.21875 0.09375 C 11.820312 -0.0507812 11.28125 -0.144531 10.59375 -0.1875 L 6.96875 -0.359375 L 6.453125 -0.359375 C 4.429688 -0.335938 3.421875 0.445312 3.421875 2 C 3.421875 3.875 5.054688 4.8125 8.328125 4.8125 Z M 8.328125 4.8125 "/></g></g><g transform="translate(273.669123, 576.469791)"><g><path d="M 2.8125 0 L 2.8125 -16.15625 L 5.078125 -16.15625 L 5.078125 -13.625 L 5.390625 -13.546875 C 6.140625 -15.378906 7.554688 -16.296875 9.640625 -16.296875 C 10.742188 -16.296875 11.566406 -16.097656 12.109375 -15.703125 L 11.5 -13.6875 L 11.203125 -13.625 C 10.597656 -13.925781 9.9375 -14.078125 9.21875 -14.078125 C 7.925781 -14.078125 6.929688 -13.59375 6.234375 -12.625 C 5.546875 -11.65625 5.203125 -10.085938 5.203125 -7.921875 L 5.203125 0 Z M 2.8125 0 "/></g></g><g transform="translate(286.149592, 576.469791)"><g><path d="M 6.671875 0.3125 C 5.078125 0.3125 3.832031 -0.101562 2.9375 -0.9375 C 2.039062 -1.769531 1.59375 -2.957031 1.59375 -4.5 C 1.59375 -5.457031 1.789062 -6.265625 2.1875 -6.921875 C 2.582031 -7.578125 3.195312 -8.113281 4.03125 -8.53125 C 4.863281 -8.945312 5.945312 -9.269531 7.28125 -9.5 C 8.445312 -9.6875 9.335938 -9.898438 9.953125 -10.140625 C 10.566406 -10.390625 10.976562 -10.664062 11.1875 -10.96875 C 11.394531 -11.269531 11.5 -11.648438 11.5 -12.109375 C 11.5 -12.847656 11.242188 -13.410156 10.734375 -13.796875 C 10.234375 -14.191406 9.429688 -14.390625 8.328125 -14.390625 C 7.273438 -14.390625 6.375 -14.1875 5.625 -13.78125 C 4.882812 -13.375 4.203125 -12.769531 3.578125 -11.96875 L 3.28125 -11.96875 L 2.109375 -13.625 C 2.796875 -14.488281 3.664062 -15.175781 4.71875 -15.6875 C 5.769531 -16.207031 6.972656 -16.46875 8.328125 -16.46875 C 10.222656 -16.46875 11.625 -16.046875 12.53125 -15.203125 C 13.4375 -14.367188 13.890625 -13.21875 13.890625 -11.75 L 13.890625 -3.171875 C 13.890625 -2.273438 14.269531 -1.828125 15.03125 -1.828125 C 15.28125 -1.828125 15.523438 -1.875 15.765625 -1.96875 L 15.96875 -1.90625 L 16.25 -0.25 C 16.070312 -0.132812 15.835938 -0.046875 15.546875 0.015625 C 15.265625 0.0859375 14.96875 0.125 14.65625 0.125 C 13.769531 0.125 13.097656 -0.0703125 12.640625 -0.46875 C 12.191406 -0.863281 11.90625 -1.441406 11.78125 -2.203125 L 11.46875 -2.234375 C 11.007812 -1.378906 10.390625 -0.738281 9.609375 -0.3125 C 8.828125 0.101562 7.847656 0.3125 6.671875 0.3125 Z M 7.1875 -1.59375 C 8.09375 -1.59375 8.875 -1.800781 9.53125 -2.21875 C 10.1875 -2.632812 10.691406 -3.21875 11.046875 -3.96875 C 11.398438 -4.71875 11.578125 -5.585938 11.578125 -6.578125 L 11.578125 -8.625 L 11.296875 -8.6875 C 10.929688 -8.4375 10.488281 -8.222656 9.96875 -8.046875 C 9.457031 -7.878906 8.738281 -7.726562 7.8125 -7.59375 C 6.875 -7.457031 6.128906 -7.257812 5.578125 -7 C 5.023438 -6.738281 4.628906 -6.40625 4.390625 -6 C 4.160156 -5.59375 4.046875 -5.09375 4.046875 -4.5 C 4.046875 -3.550781 4.320312 -2.828125 4.875 -2.328125 C 5.4375 -1.835938 6.207031 -1.59375 7.1875 -1.59375 Z M 7.1875 -1.59375 "/></g></g><g transform="translate(302.863458, 576.469791)"><g><path d="M 2.8125 6.546875 L 2.8125 -16.15625 L 5.203125 -16.15625 L 5.203125 -13.734375 L 5.515625 -13.6875 C 6.710938 -15.539062 8.472656 -16.46875 10.796875 -16.46875 C 12.140625 -16.46875 13.3125 -16.160156 14.3125 -15.546875 C 15.320312 -14.929688 16.101562 -13.992188 16.65625 -12.734375 C 17.21875 -11.484375 17.5 -9.929688 17.5 -8.078125 C 17.5 -6.222656 17.207031 -4.671875 16.625 -3.421875 C 16.039062 -2.171875 15.226562 -1.234375 14.1875 -0.609375 C 13.15625 0.00390625 11.96875 0.3125 10.625 0.3125 C 9.53125 0.3125 8.554688 0.125 7.703125 -0.25 C 6.859375 -0.632812 6.128906 -1.265625 5.515625 -2.140625 L 5.203125 -2.078125 L 5.203125 6.546875 Z M 10.09375 -1.828125 C 13.363281 -1.828125 15 -3.910156 15 -8.078125 C 15 -12.242188 13.363281 -14.328125 10.09375 -14.328125 C 9.132812 -14.328125 8.285156 -14.109375 7.546875 -13.671875 C 6.816406 -13.234375 6.242188 -12.546875 5.828125 -11.609375 C 5.410156 -10.671875 5.203125 -9.492188 5.203125 -8.078125 C 5.203125 -6.660156 5.410156 -5.484375 5.828125 -4.546875 C 6.242188 -3.617188 6.816406 -2.929688 7.546875 -2.484375 C 8.285156 -2.046875 9.132812 -1.828125 10.09375 -1.828125 Z M 10.09375 -1.828125 "/></g></g><g transform="translate(322.140801, 576.469791)"><g><path d="M 2.8125 0 L 2.8125 -22.640625 L 5.203125 -22.640625 L 5.203125 -13.859375 L 5.515625 -13.796875 C 6.660156 -15.578125 8.320312 -16.46875 10.5 -16.46875 C 12.445312 -16.46875 13.859375 -15.96875 14.734375 -14.96875 C 15.609375 -13.976562 16.046875 -12.457031 16.046875 -10.40625 L 16.046875 0 L 13.65625 0 L 13.65625 -10.34375 C 13.65625 -11.320312 13.53125 -12.101562 13.28125 -12.6875 C 13.03125 -13.28125 12.644531 -13.710938 12.125 -13.984375 C 11.601562 -14.253906 10.914062 -14.390625 10.0625 -14.390625 C 8.59375 -14.390625 7.414062 -13.914062 6.53125 -12.96875 C 5.644531 -12.019531 5.203125 -10.460938 5.203125 -8.296875 L 5.203125 0 Z M 2.8125 0 "/></g></g><g transform="translate(340.744316, 576.469791)"><g/></g><g transform="translate(348.097831, 576.469791)"><g><path d="M 10.921875 -2.5625 L 11.6875 -0.84375 C 11.3125 -0.46875 10.8125 -0.179688 10.1875 0.015625 C 9.570312 0.210938 8.898438 0.3125 8.171875 0.3125 C 5.085938 0.3125 3.546875 -1.25 3.546875 -4.375 L 3.546875 -14.203125 L 0.734375 -14.203125 L 0.734375 -16.171875 L 3.546875 -16.171875 L 3.546875 -19.578125 L 5.9375 -19.984375 L 5.9375 -16.171875 L 11.140625 -16.171875 L 11.140625 -14.203125 L 5.9375 -14.203125 L 5.9375 -4.609375 C 5.9375 -2.753906 6.738281 -1.828125 8.34375 -1.828125 C 9.226562 -1.828125 9.988281 -2.070312 10.625 -2.5625 Z M 10.921875 -2.5625 "/></g></g><g transform="translate(360.402518, 576.469791)"><g><path d="M 15.390625 -7.53125 L 4.296875 -7.53125 C 4.359375 -5.5625 4.828125 -4.117188 5.703125 -3.203125 C 6.578125 -2.285156 7.773438 -1.828125 9.296875 -1.828125 C 10.453125 -1.828125 11.378906 -2.03125 12.078125 -2.4375 C 12.785156 -2.851562 13.335938 -3.5 13.734375 -4.375 L 14.046875 -4.375 L 15.59375 -3.453125 C 15.125 -2.285156 14.375 -1.363281 13.34375 -0.6875 C 12.320312 -0.0195312 10.972656 0.3125 9.296875 0.3125 C 7.734375 0.3125 6.390625 0.00390625 5.265625 -0.609375 C 4.148438 -1.222656 3.285156 -2.15625 2.671875 -3.40625 C 2.066406 -4.65625 1.765625 -6.210938 1.765625 -8.078125 C 1.765625 -9.910156 2.082031 -11.457031 2.71875 -12.71875 C 3.363281 -13.976562 4.238281 -14.914062 5.34375 -15.53125 C 6.457031 -16.15625 7.726562 -16.46875 9.15625 -16.46875 C 11.226562 -16.46875 12.84375 -15.882812 14 -14.71875 C 15.164062 -13.550781 15.753906 -11.816406 15.765625 -9.515625 C 15.765625 -8.617188 15.742188 -8.015625 15.703125 -7.703125 Z M 13.40625 -9.515625 C 13.363281 -11.234375 12.976562 -12.484375 12.25 -13.265625 C 11.53125 -14.046875 10.5 -14.4375 9.15625 -14.4375 C 7.738281 -14.4375 6.625 -14.039062 5.8125 -13.25 C 5.007812 -12.46875 4.519531 -11.222656 4.34375 -9.515625 Z M 13.40625 -9.515625 "/></g></g><g transform="translate(377.62908, 576.469791)"><g><path d="M 3.375 0 L 0.734375 0 L 5.734375 -8.375 L 0.984375 -16.15625 L 3.671875 -16.15625 L 7.40625 -9.953125 L 7.75 -9.953125 L 11.5 -16.15625 L 14.078125 -16.15625 L 9.453125 -8.375 L 14.328125 0 L 11.625 0 L 7.640625 -6.828125 L 7.3125 -6.828125 Z M 3.375 0 "/></g></g><g transform="translate(392.687673, 576.469791)"><g><path d="M 10.921875 -2.5625 L 11.6875 -0.84375 C 11.3125 -0.46875 10.8125 -0.179688 10.1875 0.015625 C 9.570312 0.210938 8.898438 0.3125 8.171875 0.3125 C 5.085938 0.3125 3.546875 -1.25 3.546875 -4.375 L 3.546875 -14.203125 L 0.734375 -14.203125 L 0.734375 -16.171875 L 3.546875 -16.171875 L 3.546875 -19.578125 L 5.9375 -19.984375 L 5.9375 -16.171875 L 11.140625 -16.171875 L 11.140625 -14.203125 L 5.9375 -14.203125 L 5.9375 -4.609375 C 5.9375 -2.753906 6.738281 -1.828125 8.34375 -1.828125 C 9.226562 -1.828125 9.988281 -2.070312 10.625 -2.5625 Z M 10.921875 -2.5625 "/></g></g></g></svg>