<svg xmlns="http://www.w3.org/2000/svg" xmlns:xlink="http://www.w3.org/1999/xlink" width="950" zoomAndPan="magnify" viewBox="0 0 712.5 809.999993" height="1080" preserveAspectRatio="xMidYMid meet" version="1.0"><defs><g/><clipPath id="425c15d9de"><path d="M 0.292969 475 L 55 475 L 55 542 L 0.292969 542 Z M 0.292969 475 " clip-rule="nonzero"/></clipPath><clipPath id="9cbb056bad"><path d="M 75 49 L 648 49 L 648 809.714844 L 75 809.714844 Z M 75 49 " clip-rule="nonzero"/></clipPath></defs><path fill="#0b1f2d" d="M 82.140625 519.203125 C 123.359375 519.203125 172.308594 512.863281 204.605469 487.742188 C 225.65625 471.378906 237.207031 448.800781 238.941406 420.644531 C 239.105469 417.996094 237.089844 415.71875 234.445312 415.554688 C 231.839844 415.394531 229.511719 417.40625 229.355469 420.050781 C 227.796875 445.339844 217.484375 465.5625 198.710938 480.160156 C 138.230469 527.195312 9.34375 503.429688 8.050781 503.191406 C 5.402344 502.703125 2.929688 504.410156 2.4375 507.015625 C 1.945312 509.621094 3.65625 512.136719 6.261719 512.628906 C 8.960938 513.140625 41.859375 519.203125 82.140625 519.203125 Z M 82.140625 519.203125 " fill-opacity="1" fill-rule="nonzero"/><g clip-path="url(#425c15d9de)"><path fill="#0b1f2d" d="M 6.097656 541.128906 C 13.269531 541.128906 48.269531 539.90625 53.898438 516.292969 C 60.199219 489.90625 16.960938 476.699219 15.117188 476.152344 C 12.566406 475.394531 9.90625 476.839844 9.144531 479.378906 C 8.386719 481.921875 9.832031 484.59375 12.375 485.355469 C 12.738281 485.460938 48.6875 496.75 44.554688 514.0625 C 40.28125 531.976562 5.441406 531.59375 5.144531 531.507812 C 2.390625 531.554688 0.285156 533.519531 0.207031 536.175781 C 0.132812 538.824219 2.214844 541.035156 4.867188 541.117188 C 5.011719 541.117188 5.441406 541.128906 6.097656 541.128906 Z M 6.097656 541.128906 " fill-opacity="1" fill-rule="nonzero"/></g><g clip-path="url(#9cbb056bad)"><path fill="#5271ff" d="M 362.972656 605.5 C 361.691406 626.089844 360.410156 646.351562 359.117188 666.28125 C 357.835938 686.222656 356.554688 706.480469 355.253906 727.058594 C 354.621094 732.210938 354.292969 736.871094 354.292969 741.046875 C 354.292969 745.234375 354.292969 749.894531 354.292969 755.035156 C 355.585938 769.1875 359.117188 779.488281 364.90625 785.90625 C 370.695312 792.328125 380.671875 796.1875 394.8125 797.484375 C 404.457031 798.761719 414.105469 799.730469 423.75 800.375 C 433.398438 801.011719 443.378906 801.65625 453.660156 802.304688 C 474.882812 803.585938 495.789062 804.871094 516.367188 806.164062 C 536.957031 807.445312 557.847656 808.414062 579.074219 809.058594 C 593.875 809.695312 603.839844 807.761719 608.980469 803.273438 C 614.132812 798.761719 617.992188 788.800781 620.554688 773.363281 C 623.78125 750.859375 626.828125 728.023438 629.722656 704.867188 C 632.617188 681.714844 635.027344 658.246094 636.957031 634.441406 C 651.109375 471.085938 651.429688 306.117188 637.921875 139.535156 C 637.289062 127.964844 636.160156 118.648438 634.542969 111.5625 C 632.945312 104.492188 630.207031 98.703125 626.34375 94.195312 C 622.488281 89.707031 617.027344 86.160156 609.945312 83.585938 C 602.875 81.023438 593.230469 78.441406 581.003906 75.867188 C 544.339844 68.796875 507.847656 62.210938 471.503906 56.089844 C 435.179688 49.984375 398.351562 48.222656 361.042969 50.78125 C 332.101562 52.710938 304.292969 56.90625 277.59375 63.324219 C 250.917969 69.765625 224.386719 78.761719 198.003906 90.335938 C 163.273438 105.773438 136.59375 126.996094 117.933594 154.007812 C 99.285156 181.023438 86.746094 213.191406 80.308594 250.480469 C 75.167969 278.792969 74.207031 305.152344 77.414062 329.589844 C 80.640625 354.039062 87.226562 377.34375 97.191406 399.53125 C 107.171875 421.722656 120.03125 442.628906 135.777344 462.238281 C 151.546875 481.867188 169.394531 500.347656 189.324219 517.714844 C 211.84375 537.65625 236.109375 554.535156 262.160156 568.359375 C 288.207031 582.195312 316.351562 592.328125 346.574219 598.75 C 349.152344 599.398438 351.726562 600.359375 354.292969 601.640625 C 356.867188 602.941406 359.761719 604.222656 362.972656 605.5 Z M 397.707031 251.445312 C 396.425781 277.179688 395.457031 301.945312 394.8125 325.730469 C 394.179688 349.53125 393.210938 373.335938 391.917969 397.121094 C 382.917969 395.839844 373.753906 392.78125 364.421875 387.953125 C 355.105469 383.132812 346.574219 377.675781 338.855469 371.558594 C 331.136719 365.449219 324.386719 358.53125 318.597656 350.8125 C 312.808594 343.097656 308.945312 335.710938 307.019531 328.625 C 302.53125 311.261719 303.972656 296.15625 311.363281 283.28125 C 318.761719 270.421875 331.136719 261.746094 348.503906 257.234375 C 355.585938 255.957031 363.140625 254.988281 371.171875 254.339844 C 379.222656 253.707031 388.054688 252.742188 397.707031 251.445312 Z M 397.707031 251.445312 " fill-opacity="1" fill-rule="nonzero"/></g><path fill="#ffffff" d="M 577.167969 598.683594 C 594.0625 604.578125 586.421875 654.246094 571.519531 646.65625 C 556.613281 639.066406 560.277344 592.789062 577.167969 598.683594 Z M 577.167969 598.683594 " fill-opacity="1" fill-rule="nonzero"/><path fill="#ffffff" d="M 575.414062 717.449219 C 592.308594 723.34375 584.667969 773.011719 569.765625 765.421875 C 554.859375 757.828125 558.523438 711.550781 575.414062 717.449219 Z M 575.414062 717.449219 " fill-opacity="1" fill-rule="nonzero"/><path fill="#ffffff" d="M 603.566406 662.382812 C 617.492188 667.242188 611.195312 708.183594 598.910156 701.925781 C 586.625 695.667969 589.644531 657.523438 603.566406 662.382812 Z M 603.566406 662.382812 " fill-opacity="1" fill-rule="nonzero"/><path fill="#ffffff" d="M 399.085938 712.023438 C 415.976562 717.917969 408.339844 767.585938 393.433594 759.996094 C 378.53125 752.402344 382.191406 706.125 399.085938 712.023438 Z M 399.085938 712.023438 " fill-opacity="1" fill-rule="nonzero"/><path fill="#ffffff" d="M 427.238281 656.957031 C 441.164062 661.816406 434.863281 702.757812 422.582031 696.5 C 410.296875 690.242188 413.3125 652.097656 427.238281 656.957031 Z M 427.238281 656.957031 " fill-opacity="1" fill-rule="nonzero"/><path fill="#0b1f2d" d="M 440.214844 524.628906 C 481.433594 524.628906 530.390625 518.289062 562.691406 493.171875 C 583.742188 476.804688 595.292969 454.226562 597.027344 426.070312 C 597.191406 423.425781 595.175781 421.144531 592.527344 420.980469 C 589.847656 420.878906 587.597656 422.835938 587.4375 425.480469 C 585.878906 450.761719 575.570312 470.984375 556.792969 485.585938 C 496.320312 532.621094 367.4375 508.859375 366.136719 508.617188 C 363.511719 508.144531 361.015625 509.839844 360.519531 512.441406 C 360.027344 515.050781 361.742188 517.566406 364.34375 518.058594 C 367.046875 518.570312 399.9375 524.628906 440.214844 524.628906 Z M 440.214844 524.628906 " fill-opacity="1" fill-rule="nonzero"/><path fill="#0b1f2d" d="M 364.171875 546.558594 C 371.332031 546.558594 406.351562 545.335938 411.984375 521.71875 C 418.285156 495.328125 375.046875 482.121094 373.203125 481.574219 C 370.648438 480.8125 367.984375 482.269531 367.230469 484.800781 C 366.46875 487.34375 367.914062 490.019531 370.457031 490.777344 C 370.824219 490.886719 406.773438 502.171875 402.640625 519.484375 C 398.371094 537.390625 363.566406 536.988281 363.226562 536.933594 C 360.691406 536.828125 358.367188 538.953125 358.292969 541.601562 C 358.21875 544.253906 360.300781 546.464844 362.953125 546.542969 C 363.097656 546.542969 363.519531 546.558594 364.171875 546.558594 Z M 364.171875 546.558594 " fill-opacity="1" fill-rule="nonzero"/><path fill="#ffffff" d="M 502.316406 115.941406 C 543.917969 186.394531 434.644531 245.457031 407.539062 172.832031 C 380.433594 100.207031 460.710938 45.488281 502.316406 115.941406 Z M 502.316406 115.941406 " fill-opacity="1" fill-rule="nonzero"/><path fill="#0b1f2d" d="M 449.054688 83.589844 C 451.664062 88.53125 454.171875 94.058594 456.539062 100.253906 C 472.246094 141.355469 465.585938 180.132812 449.96875 206.007812 C 432.539062 205.382812 416.019531 195.554688 407.539062 172.832031 C 390.214844 126.40625 416.773438 87.363281 449.054688 83.589844 Z M 449.054688 83.589844 " fill-opacity="1" fill-rule="nonzero"/><path fill="#ffffff" d="M 308.804688 117.75 C 350.410156 188.203125 241.132812 247.265625 214.027344 174.640625 C 186.921875 102.015625 267.199219 47.296875 308.804688 117.75 Z M 308.804688 117.75 " fill-opacity="1" fill-rule="nonzero"/><path fill="#0b1f2d" d="M 255.542969 85.398438 C 258.152344 90.339844 260.660156 95.867188 263.027344 102.0625 C 278.734375 143.164062 272.074219 181.941406 256.457031 207.816406 C 239.03125 207.191406 222.507812 197.363281 214.027344 174.640625 C 196.703125 128.214844 223.261719 89.171875 255.542969 85.398438 Z M 255.542969 85.398438 " fill-opacity="1" fill-rule="nonzero"/><path fill="#0b1f2d" d="M 539.925781 56.585938 C 528.046875 74.441406 455.679688 40.738281 463.984375 20.507812 C 472.289062 0.273438 551.800781 38.726562 539.925781 56.585938 Z M 539.925781 56.585938 " fill-opacity="1" fill-rule="nonzero"/><path fill="#0b1f2d" d="M 255.261719 24.570312 C 260.453125 45.378906 186.777344 76.121094 177.429688 56.351562 C 168.078125 36.578125 250.074219 3.757812 255.261719 24.570312 Z M 255.261719 24.570312 " fill-opacity="1" fill-rule="nonzero"/><path fill="#0b1f2d" d="M 303.113281 230.3125 C 363.164062 283.65625 453.910156 207.589844 461.863281 261.890625 C 469.816406 316.195312 440.910156 428.660156 358.707031 420.9375 C 239.925781 409.78125 243.0625 176.96875 303.113281 230.3125 Z M 303.113281 230.3125 " fill-opacity="1" fill-rule="nonzero"/><path fill="#5271ff" d="M 386.921875 393.921875 C 386.921875 393.921875 332.90625 402.847656 303.785156 362.921875 C 303.785156 362.921875 365.785156 340.375 386.921875 393.921875 Z M 386.921875 393.921875 " fill-opacity="1" fill-rule="nonzero"/><path fill="#ffffff" d="M 424.96875 269.460938 C 424.96875 269.460938 430.316406 302.160156 412.285156 304.21875 C 395.847656 306.097656 391.148438 277.445312 391.148438 277.445312 C 391.148438 277.445312 390.296875 310.351562 370.953125 309.855469 C 352.632812 309.386719 350.753906 281.203125 350.753906 281.203125 C 350.753906 281.203125 342.300781 311.265625 324.449219 305.160156 C 306.601562 299.050781 314.585938 273.21875 314.585938 273.21875 C 314.585938 273.21875 390.679688 282.144531 424.96875 269.460938 Z M 424.96875 269.460938 " fill-opacity="1" fill-rule="nonzero"/><g fill="#5271ff" fill-opacity="1"><g transform="translate(255.267075, 457.109273)"><g><path d="M 9.859375 0 L 7.5 0 L 7.5 -7.921875 L 0.53125 -20.171875 L 3.125 -20.171875 L 8.5625 -10.71875 L 8.90625 -10.71875 L 14.296875 -20.171875 L 16.84375 -20.171875 L 9.859375 -7.921875 Z M 9.859375 0 "/></g></g><g transform="translate(272.616154, 457.109273)"><g><path d="M 8.734375 0.296875 C 7.296875 0.296875 6.046875 -0.00390625 4.984375 -0.609375 C 3.921875 -1.222656 3.101562 -2.117188 2.53125 -3.296875 C 1.957031 -4.484375 1.671875 -5.921875 1.671875 -7.609375 C 1.671875 -9.285156 1.957031 -10.71875 2.53125 -11.90625 C 3.101562 -13.09375 3.921875 -13.988281 4.984375 -14.59375 C 6.046875 -15.207031 7.296875 -15.515625 8.734375 -15.515625 C 10.171875 -15.515625 11.421875 -15.207031 12.484375 -14.59375 C 13.546875 -13.988281 14.363281 -13.09375 14.9375 -11.90625 C 15.507812 -10.71875 15.796875 -9.285156 15.796875 -7.609375 C 15.796875 -5.921875 15.507812 -4.484375 14.9375 -3.296875 C 14.363281 -2.117188 13.546875 -1.222656 12.484375 -0.609375 C 11.421875 -0.00390625 10.171875 0.296875 8.734375 0.296875 Z M 8.734375 -1.71875 C 10.253906 -1.71875 11.414062 -2.195312 12.21875 -3.15625 C 13.019531 -4.113281 13.421875 -5.597656 13.421875 -7.609375 C 13.421875 -9.617188 13.019531 -11.101562 12.21875 -12.0625 C 11.414062 -13.019531 10.253906 -13.5 8.734375 -13.5 C 7.210938 -13.5 6.046875 -13.015625 5.234375 -12.046875 C 4.429688 -11.085938 4.03125 -9.609375 4.03125 -7.609375 C 4.03125 -5.597656 4.429688 -4.113281 5.234375 -3.15625 C 6.046875 -2.195312 7.210938 -1.71875 8.734375 -1.71875 Z M 8.734375 -1.71875 "/></g></g><g transform="translate(290.089451, 457.109273)"><g><path d="M 7.515625 0.296875 C 5.796875 0.296875 4.515625 -0.15625 3.671875 -1.0625 C 2.835938 -1.976562 2.421875 -3.316406 2.421875 -5.078125 L 2.421875 -15.21875 L 4.671875 -15.21875 L 4.671875 -5.140625 C 4.671875 -2.828125 5.753906 -1.671875 7.921875 -1.671875 C 9.304688 -1.671875 10.394531 -2.117188 11.1875 -3.015625 C 11.988281 -3.921875 12.390625 -5.382812 12.390625 -7.40625 L 12.390625 -15.21875 L 14.640625 -15.21875 L 14.640625 0 L 12.515625 0 L 12.515625 -2.390625 L 12.234375 -2.453125 C 11.703125 -1.523438 11.070312 -0.832031 10.34375 -0.375 C 9.613281 0.0703125 8.671875 0.296875 7.515625 0.296875 Z M 7.515625 0.296875 "/></g></g><g transform="translate(307.383323, 457.109273)"><g><path d="M 2.65625 0 L 2.65625 -15.21875 L 4.796875 -15.21875 L 4.796875 -12.828125 L 5.078125 -12.765625 C 5.785156 -14.492188 7.117188 -15.359375 9.078125 -15.359375 C 10.117188 -15.359375 10.894531 -15.171875 11.40625 -14.796875 L 10.828125 -12.890625 L 10.5625 -12.828125 C 9.988281 -13.117188 9.363281 -13.265625 8.6875 -13.265625 C 7.46875 -13.265625 6.53125 -12.804688 5.875 -11.890625 C 5.226562 -10.984375 4.90625 -9.507812 4.90625 -7.46875 L 4.90625 0 Z M 2.65625 0 "/></g></g><g transform="translate(319.142604, 457.109273)"><g/></g><g transform="translate(326.071194, 457.109273)"><g><path d="M 2.65625 6.171875 L 2.65625 -15.21875 L 4.90625 -15.21875 L 4.90625 -12.953125 L 5.1875 -12.890625 C 6.320312 -14.640625 7.984375 -15.515625 10.171875 -15.515625 C 11.441406 -15.515625 12.550781 -15.222656 13.5 -14.640625 C 14.445312 -14.066406 15.179688 -13.1875 15.703125 -12 C 16.234375 -10.820312 16.5 -9.359375 16.5 -7.609375 C 16.5 -5.867188 16.222656 -4.410156 15.671875 -3.234375 C 15.117188 -2.054688 14.351562 -1.171875 13.375 -0.578125 C 12.394531 0.00390625 11.269531 0.296875 10 0.296875 C 8.96875 0.296875 8.050781 0.117188 7.25 -0.234375 C 6.457031 -0.597656 5.769531 -1.191406 5.1875 -2.015625 L 4.90625 -1.953125 L 4.90625 6.171875 Z M 9.515625 -1.71875 C 12.597656 -1.71875 14.140625 -3.679688 14.140625 -7.609375 C 14.140625 -11.535156 12.597656 -13.5 9.515625 -13.5 C 8.609375 -13.5 7.8125 -13.289062 7.125 -12.875 C 6.4375 -12.457031 5.894531 -11.8125 5.5 -10.9375 C 5.101562 -10.0625 4.90625 -8.953125 4.90625 -7.609375 C 4.90625 -6.273438 5.101562 -5.164062 5.5 -4.28125 C 5.894531 -3.40625 6.4375 -2.757812 7.125 -2.34375 C 7.8125 -1.925781 8.609375 -1.71875 9.515625 -1.71875 Z M 9.515625 -1.71875 "/></g></g><g transform="translate(344.23459, 457.109273)"><g><path d="M 6.28125 0.296875 C 4.78125 0.296875 3.609375 -0.09375 2.765625 -0.875 C 1.921875 -1.664062 1.5 -2.785156 1.5 -4.234375 C 1.5 -5.140625 1.6875 -5.898438 2.0625 -6.515625 C 2.4375 -7.140625 3.015625 -7.644531 3.796875 -8.03125 C 4.578125 -8.425781 5.597656 -8.726562 6.859375 -8.9375 C 7.960938 -9.125 8.800781 -9.332031 9.375 -9.5625 C 9.945312 -9.789062 10.332031 -10.046875 10.53125 -10.328125 C 10.726562 -10.617188 10.828125 -10.976562 10.828125 -11.40625 C 10.828125 -12.101562 10.585938 -12.632812 10.109375 -13 C 9.640625 -13.363281 8.882812 -13.546875 7.84375 -13.546875 C 6.851562 -13.546875 6.003906 -13.351562 5.296875 -12.96875 C 4.597656 -12.59375 3.957031 -12.03125 3.375 -11.28125 L 3.09375 -11.28125 L 1.984375 -12.828125 C 2.628906 -13.648438 3.445312 -14.300781 4.4375 -14.78125 C 5.4375 -15.269531 6.570312 -15.515625 7.84375 -15.515625 C 9.632812 -15.515625 10.953125 -15.117188 11.796875 -14.328125 C 12.648438 -13.546875 13.078125 -12.457031 13.078125 -11.0625 L 13.078125 -3 C 13.078125 -2.144531 13.4375 -1.71875 14.15625 -1.71875 C 14.394531 -1.71875 14.625 -1.757812 14.84375 -1.84375 L 15.046875 -1.796875 L 15.3125 -0.234375 C 15.144531 -0.117188 14.925781 -0.0351562 14.65625 0.015625 C 14.382812 0.078125 14.101562 0.109375 13.8125 0.109375 C 12.976562 0.109375 12.347656 -0.0703125 11.921875 -0.4375 C 11.492188 -0.8125 11.21875 -1.351562 11.09375 -2.0625 L 10.8125 -2.09375 C 10.375 -1.289062 9.785156 -0.691406 9.046875 -0.296875 C 8.316406 0.0976562 7.394531 0.296875 6.28125 0.296875 Z M 6.78125 -1.5 C 7.625 -1.5 8.351562 -1.691406 8.96875 -2.078125 C 9.59375 -2.472656 10.070312 -3.023438 10.40625 -3.734375 C 10.738281 -4.441406 10.90625 -5.265625 10.90625 -6.203125 L 10.90625 -8.125 L 10.640625 -8.1875 C 10.296875 -7.945312 9.878906 -7.742188 9.390625 -7.578125 C 8.910156 -7.421875 8.234375 -7.28125 7.359375 -7.15625 C 6.472656 -7.03125 5.769531 -6.84375 5.25 -6.59375 C 4.726562 -6.34375 4.359375 -6.023438 4.140625 -5.640625 C 3.921875 -5.265625 3.8125 -4.796875 3.8125 -4.234375 C 3.8125 -3.335938 4.070312 -2.65625 4.59375 -2.1875 C 5.113281 -1.726562 5.84375 -1.5 6.78125 -1.5 Z M 6.78125 -1.5 "/></g></g><g transform="translate(359.982641, 457.109273)"><g><path d="M 2.65625 0 L 2.65625 -15.21875 L 4.796875 -15.21875 L 4.796875 -12.828125 L 5.078125 -12.765625 C 5.785156 -14.492188 7.117188 -15.359375 9.078125 -15.359375 C 10.117188 -15.359375 10.894531 -15.171875 11.40625 -14.796875 L 10.828125 -12.890625 L 10.5625 -12.828125 C 9.988281 -13.117188 9.363281 -13.265625 8.6875 -13.265625 C 7.46875 -13.265625 6.53125 -12.804688 5.875 -11.890625 C 5.226562 -10.984375 4.90625 -9.507812 4.90625 -7.46875 L 4.90625 0 Z M 2.65625 0 "/></g></g><g transform="translate(371.741922, 457.109273)"><g><path d="M 6.28125 0.296875 C 4.78125 0.296875 3.609375 -0.09375 2.765625 -0.875 C 1.921875 -1.664062 1.5 -2.785156 1.5 -4.234375 C 1.5 -5.140625 1.6875 -5.898438 2.0625 -6.515625 C 2.4375 -7.140625 3.015625 -7.644531 3.796875 -8.03125 C 4.578125 -8.425781 5.597656 -8.726562 6.859375 -8.9375 C 7.960938 -9.125 8.800781 -9.332031 9.375 -9.5625 C 9.945312 -9.789062 10.332031 -10.046875 10.53125 -10.328125 C 10.726562 -10.617188 10.828125 -10.976562 10.828125 -11.40625 C 10.828125 -12.101562 10.585938 -12.632812 10.109375 -13 C 9.640625 -13.363281 8.882812 -13.546875 7.84375 -13.546875 C 6.851562 -13.546875 6.003906 -13.351562 5.296875 -12.96875 C 4.597656 -12.59375 3.957031 -12.03125 3.375 -11.28125 L 3.09375 -11.28125 L 1.984375 -12.828125 C 2.628906 -13.648438 3.445312 -14.300781 4.4375 -14.78125 C 5.4375 -15.269531 6.570312 -15.515625 7.84375 -15.515625 C 9.632812 -15.515625 10.953125 -15.117188 11.796875 -14.328125 C 12.648438 -13.546875 13.078125 -12.457031 13.078125 -11.0625 L 13.078125 -3 C 13.078125 -2.144531 13.4375 -1.71875 14.15625 -1.71875 C 14.394531 -1.71875 14.625 -1.757812 14.84375 -1.84375 L 15.046875 -1.796875 L 15.3125 -0.234375 C 15.144531 -0.117188 14.925781 -0.0351562 14.65625 0.015625 C 14.382812 0.078125 14.101562 0.109375 13.8125 0.109375 C 12.976562 0.109375 12.347656 -0.0703125 11.921875 -0.4375 C 11.492188 -0.8125 11.21875 -1.351562 11.09375 -2.0625 L 10.8125 -2.09375 C 10.375 -1.289062 9.785156 -0.691406 9.046875 -0.296875 C 8.316406 0.0976562 7.394531 0.296875 6.28125 0.296875 Z M 6.78125 -1.5 C 7.625 -1.5 8.351562 -1.691406 8.96875 -2.078125 C 9.59375 -2.472656 10.070312 -3.023438 10.40625 -3.734375 C 10.738281 -4.441406 10.90625 -5.265625 10.90625 -6.203125 L 10.90625 -8.125 L 10.640625 -8.1875 C 10.296875 -7.945312 9.878906 -7.742188 9.390625 -7.578125 C 8.910156 -7.421875 8.234375 -7.28125 7.359375 -7.15625 C 6.472656 -7.03125 5.769531 -6.84375 5.25 -6.59375 C 4.726562 -6.34375 4.359375 -6.023438 4.140625 -5.640625 C 3.921875 -5.265625 3.8125 -4.796875 3.8125 -4.234375 C 3.8125 -3.335938 4.070312 -2.65625 4.59375 -2.1875 C 5.113281 -1.726562 5.84375 -1.5 6.78125 -1.5 Z M 6.78125 -1.5 "/></g></g><g transform="translate(387.489973, 457.109273)"><g><path d="M 7.84375 6.453125 C 5.4375 6.453125 3.679688 6.050781 2.578125 5.25 C 1.472656 4.457031 0.921875 3.394531 0.921875 2.0625 C 0.921875 1.207031 1.175781 0.523438 1.6875 0.015625 C 2.207031 -0.484375 2.960938 -0.84375 3.953125 -1.0625 L 3.953125 -1.359375 C 3.484375 -1.617188 3.128906 -1.925781 2.890625 -2.28125 C 2.660156 -2.644531 2.546875 -3.078125 2.546875 -3.578125 C 2.546875 -4.160156 2.726562 -4.632812 3.09375 -5 C 3.46875 -5.375 4.023438 -5.660156 4.765625 -5.859375 L 4.765625 -6.140625 C 3.109375 -7.015625 2.28125 -8.4375 2.28125 -10.40625 C 2.28125 -11.394531 2.503906 -12.273438 2.953125 -13.046875 C 3.398438 -13.828125 4.039062 -14.429688 4.875 -14.859375 C 5.71875 -15.296875 6.695312 -15.515625 7.8125 -15.515625 C 9.09375 -15.515625 10.160156 -15.234375 11.015625 -14.671875 C 11.335938 -15.023438 11.578125 -15.40625 11.734375 -15.8125 C 11.898438 -16.226562 12.003906 -16.691406 12.046875 -17.203125 L 12.34375 -17.390625 L 14.1875 -16.953125 C 14.09375 -16.171875 13.859375 -15.515625 13.484375 -14.984375 C 13.117188 -14.453125 12.59375 -14.007812 11.90625 -13.65625 L 11.90625 -13.375 C 12.394531 -12.988281 12.753906 -12.535156 12.984375 -12.015625 C 13.222656 -11.492188 13.34375 -10.890625 13.34375 -10.203125 C 13.34375 -9.242188 13.113281 -8.378906 12.65625 -7.609375 C 12.195312 -6.847656 11.546875 -6.25 10.703125 -5.8125 C 9.867188 -5.375 8.90625 -5.15625 7.8125 -5.15625 C 7.6875 -5.15625 7.457031 -5.164062 7.125 -5.1875 C 6.75 -5.207031 6.476562 -5.21875 6.3125 -5.21875 C 5.832031 -5.21875 5.445312 -5.09375 5.15625 -4.84375 C 4.875 -4.59375 4.734375 -4.273438 4.734375 -3.890625 C 4.734375 -3.410156 4.882812 -3.054688 5.1875 -2.828125 C 5.5 -2.609375 6.007812 -2.484375 6.71875 -2.453125 L 10.328125 -2.328125 C 11.878906 -2.273438 13.03125 -1.914062 13.78125 -1.25 C 14.53125 -0.582031 14.90625 0.363281 14.90625 1.59375 C 14.90625 2.5 14.660156 3.316406 14.171875 4.046875 C 13.679688 4.773438 12.90625 5.359375 11.84375 5.796875 C 10.789062 6.234375 9.457031 6.453125 7.84375 6.453125 Z M 7.8125 -7.09375 C 8.882812 -7.09375 9.710938 -7.375 10.296875 -7.9375 C 10.890625 -8.5 11.1875 -9.285156 11.1875 -10.296875 C 11.1875 -11.347656 10.894531 -12.15625 10.3125 -12.71875 C 9.726562 -13.289062 8.894531 -13.578125 7.8125 -13.578125 C 6.726562 -13.578125 5.898438 -13.296875 5.328125 -12.734375 C 4.753906 -12.171875 4.46875 -11.359375 4.46875 -10.296875 C 4.46875 -9.273438 4.753906 -8.484375 5.328125 -7.921875 C 5.898438 -7.367188 6.726562 -7.09375 7.8125 -7.09375 Z M 7.84375 4.53125 C 8.957031 4.53125 9.867188 4.40625 10.578125 4.15625 C 11.296875 3.90625 11.8125 3.570312 12.125 3.15625 C 12.4375 2.75 12.59375 2.296875 12.59375 1.796875 C 12.59375 1.347656 12.507812 0.984375 12.34375 0.703125 C 12.175781 0.429688 11.898438 0.222656 11.515625 0.078125 C 11.140625 -0.0546875 10.628906 -0.140625 9.984375 -0.171875 L 6.5625 -0.34375 L 6.09375 -0.34375 C 4.1875 -0.3125 3.234375 0.425781 3.234375 1.875 C 3.234375 3.644531 4.769531 4.53125 7.84375 4.53125 Z M 7.84375 4.53125 "/></g></g><g transform="translate(403.086202, 457.109273)"><g><path d="M 2.65625 0 L 2.65625 -15.21875 L 4.796875 -15.21875 L 4.796875 -12.828125 L 5.078125 -12.765625 C 5.785156 -14.492188 7.117188 -15.359375 9.078125 -15.359375 C 10.117188 -15.359375 10.894531 -15.171875 11.40625 -14.796875 L 10.828125 -12.890625 L 10.5625 -12.828125 C 9.988281 -13.117188 9.363281 -13.265625 8.6875 -13.265625 C 7.46875 -13.265625 6.53125 -12.804688 5.875 -11.890625 C 5.226562 -10.984375 4.90625 -9.507812 4.90625 -7.46875 L 4.90625 0 Z M 2.65625 0 "/></g></g><g transform="translate(414.845482, 457.109273)"><g><path d="M 6.28125 0.296875 C 4.78125 0.296875 3.609375 -0.09375 2.765625 -0.875 C 1.921875 -1.664062 1.5 -2.785156 1.5 -4.234375 C 1.5 -5.140625 1.6875 -5.898438 2.0625 -6.515625 C 2.4375 -7.140625 3.015625 -7.644531 3.796875 -8.03125 C 4.578125 -8.425781 5.597656 -8.726562 6.859375 -8.9375 C 7.960938 -9.125 8.800781 -9.332031 9.375 -9.5625 C 9.945312 -9.789062 10.332031 -10.046875 10.53125 -10.328125 C 10.726562 -10.617188 10.828125 -10.976562 10.828125 -11.40625 C 10.828125 -12.101562 10.585938 -12.632812 10.109375 -13 C 9.640625 -13.363281 8.882812 -13.546875 7.84375 -13.546875 C 6.851562 -13.546875 6.003906 -13.351562 5.296875 -12.96875 C 4.597656 -12.59375 3.957031 -12.03125 3.375 -11.28125 L 3.09375 -11.28125 L 1.984375 -12.828125 C 2.628906 -13.648438 3.445312 -14.300781 4.4375 -14.78125 C 5.4375 -15.269531 6.570312 -15.515625 7.84375 -15.515625 C 9.632812 -15.515625 10.953125 -15.117188 11.796875 -14.328125 C 12.648438 -13.546875 13.078125 -12.457031 13.078125 -11.0625 L 13.078125 -3 C 13.078125 -2.144531 13.4375 -1.71875 14.15625 -1.71875 C 14.394531 -1.71875 14.625 -1.757812 14.84375 -1.84375 L 15.046875 -1.796875 L 15.3125 -0.234375 C 15.144531 -0.117188 14.925781 -0.0351562 14.65625 0.015625 C 14.382812 0.078125 14.101562 0.109375 13.8125 0.109375 C 12.976562 0.109375 12.347656 -0.0703125 11.921875 -0.4375 C 11.492188 -0.8125 11.21875 -1.351562 11.09375 -2.0625 L 10.8125 -2.09375 C 10.375 -1.289062 9.785156 -0.691406 9.046875 -0.296875 C 8.316406 0.0976562 7.394531 0.296875 6.28125 0.296875 Z M 6.78125 -1.5 C 7.625 -1.5 8.351562 -1.691406 8.96875 -2.078125 C 9.59375 -2.472656 10.070312 -3.023438 10.40625 -3.734375 C 10.738281 -4.441406 10.90625 -5.265625 10.90625 -6.203125 L 10.90625 -8.125 L 10.640625 -8.1875 C 10.296875 -7.945312 9.878906 -7.742188 9.390625 -7.578125 C 8.910156 -7.421875 8.234375 -7.28125 7.359375 -7.15625 C 6.472656 -7.03125 5.769531 -6.84375 5.25 -6.59375 C 4.726562 -6.34375 4.359375 -6.023438 4.140625 -5.640625 C 3.921875 -5.265625 3.8125 -4.796875 3.8125 -4.234375 C 3.8125 -3.335938 4.070312 -2.65625 4.59375 -2.1875 C 5.113281 -1.726562 5.84375 -1.5 6.78125 -1.5 Z M 6.78125 -1.5 "/></g></g><g transform="translate(430.593533, 457.109273)"><g><path d="M 2.65625 6.171875 L 2.65625 -15.21875 L 4.90625 -15.21875 L 4.90625 -12.953125 L 5.1875 -12.890625 C 6.320312 -14.640625 7.984375 -15.515625 10.171875 -15.515625 C 11.441406 -15.515625 12.550781 -15.222656 13.5 -14.640625 C 14.445312 -14.066406 15.179688 -13.1875 15.703125 -12 C 16.234375 -10.820312 16.5 -9.359375 16.5 -7.609375 C 16.5 -5.867188 16.222656 -4.410156 15.671875 -3.234375 C 15.117188 -2.054688 14.351562 -1.171875 13.375 -0.578125 C 12.394531 0.00390625 11.269531 0.296875 10 0.296875 C 8.96875 0.296875 8.050781 0.117188 7.25 -0.234375 C 6.457031 -0.597656 5.769531 -1.191406 5.1875 -2.015625 L 4.90625 -1.953125 L 4.90625 6.171875 Z M 9.515625 -1.71875 C 12.597656 -1.71875 14.140625 -3.679688 14.140625 -7.609375 C 14.140625 -11.535156 12.597656 -13.5 9.515625 -13.5 C 8.609375 -13.5 7.8125 -13.289062 7.125 -12.875 C 6.4375 -12.457031 5.894531 -11.8125 5.5 -10.9375 C 5.101562 -10.0625 4.90625 -8.953125 4.90625 -7.609375 C 4.90625 -6.273438 5.101562 -5.164062 5.5 -4.28125 C 5.894531 -3.40625 6.4375 -2.757812 7.125 -2.34375 C 7.8125 -1.925781 8.609375 -1.71875 9.515625 -1.71875 Z M 9.515625 -1.71875 "/></g></g><g transform="translate(448.756929, 457.109273)"><g><path d="M 2.65625 0 L 2.65625 -21.34375 L 4.90625 -21.34375 L 4.90625 -13.0625 L 5.1875 -13 C 6.269531 -14.675781 7.835938 -15.515625 9.890625 -15.515625 C 11.722656 -15.515625 13.050781 -15.046875 13.875 -14.109375 C 14.695312 -13.179688 15.109375 -11.742188 15.109375 -9.796875 L 15.109375 0 L 12.859375 0 L 12.859375 -9.75 C 12.859375 -10.664062 12.738281 -11.398438 12.5 -11.953125 C 12.269531 -12.515625 11.910156 -12.921875 11.421875 -13.171875 C 10.929688 -13.421875 10.285156 -13.546875 9.484375 -13.546875 C 8.097656 -13.546875 6.988281 -13.097656 6.15625 -12.203125 C 5.320312 -11.316406 4.90625 -9.851562 4.90625 -7.8125 L 4.90625 0 Z M 2.65625 0 "/></g></g><g transform="translate(466.285434, 457.109273)"><g/></g><g transform="translate(473.214025, 457.109273)"><g><path d="M 10.296875 -2.421875 L 11.015625 -0.796875 C 10.648438 -0.441406 10.175781 -0.171875 9.59375 0.015625 C 9.007812 0.203125 8.378906 0.296875 7.703125 0.296875 C 4.796875 0.296875 3.34375 -1.175781 3.34375 -4.125 L 3.34375 -13.390625 L 0.6875 -13.390625 L 0.6875 -15.234375 L 3.34375 -15.234375 L 3.34375 -18.453125 L 5.59375 -18.828125 L 5.59375 -15.234375 L 10.484375 -15.234375 L 10.484375 -13.390625 L 5.59375 -13.390625 L 5.59375 -4.34375 C 5.59375 -2.59375 6.347656 -1.71875 7.859375 -1.71875 C 8.691406 -1.71875 9.40625 -1.953125 10 -2.421875 Z M 10.296875 -2.421875 "/></g></g><g transform="translate(484.807682, 457.109273)"><g><path d="M 14.5 -7.09375 L 4.046875 -7.09375 C 4.109375 -5.238281 4.550781 -3.878906 5.375 -3.015625 C 6.195312 -2.148438 7.328125 -1.71875 8.765625 -1.71875 C 9.847656 -1.71875 10.71875 -1.910156 11.375 -2.296875 C 12.039062 -2.691406 12.566406 -3.300781 12.953125 -4.125 L 13.234375 -4.125 L 14.703125 -3.25 C 14.253906 -2.144531 13.546875 -1.273438 12.578125 -0.640625 C 11.609375 -0.015625 10.335938 0.296875 8.765625 0.296875 C 7.296875 0.296875 6.03125 0.00390625 4.96875 -0.578125 C 3.90625 -1.160156 3.085938 -2.039062 2.515625 -3.21875 C 1.953125 -4.394531 1.671875 -5.859375 1.671875 -7.609375 C 1.671875 -9.335938 1.972656 -10.796875 2.578125 -11.984375 C 3.179688 -13.171875 4.003906 -14.054688 5.046875 -14.640625 C 6.085938 -15.222656 7.28125 -15.515625 8.625 -15.515625 C 10.570312 -15.515625 12.09375 -14.960938 13.1875 -13.859375 C 14.289062 -12.765625 14.84375 -11.132812 14.84375 -8.96875 C 14.84375 -8.125 14.828125 -7.554688 14.796875 -7.265625 Z M 12.625 -8.96875 C 12.59375 -10.59375 12.234375 -11.769531 11.546875 -12.5 C 10.867188 -13.238281 9.894531 -13.609375 8.625 -13.609375 C 7.289062 -13.609375 6.242188 -13.238281 5.484375 -12.5 C 4.722656 -11.757812 4.257812 -10.582031 4.09375 -8.96875 Z M 12.625 -8.96875 "/></g></g><g transform="translate(501.038801, 457.109273)"><g><path d="M 3.171875 0 L 0.6875 0 L 5.390625 -7.890625 L 0.921875 -15.21875 L 3.46875 -15.21875 L 6.984375 -9.375 L 7.296875 -9.375 L 10.828125 -15.21875 L 13.265625 -15.21875 L 8.90625 -7.890625 L 13.5 0 L 10.953125 0 L 7.203125 -6.4375 L 6.890625 -6.4375 Z M 3.171875 0 "/></g></g><g transform="translate(515.227229, 457.109273)"><g><path d="M 10.296875 -2.421875 L 11.015625 -0.796875 C 10.648438 -0.441406 10.175781 -0.171875 9.59375 0.015625 C 9.007812 0.203125 8.378906 0.296875 7.703125 0.296875 C 4.796875 0.296875 3.34375 -1.175781 3.34375 -4.125 L 3.34375 -13.390625 L 0.6875 -13.390625 L 0.6875 -15.234375 L 3.34375 -15.234375 L 3.34375 -18.453125 L 5.59375 -18.828125 L 5.59375 -15.234375 L 10.484375 -15.234375 L 10.484375 -13.390625 L 5.59375 -13.390625 L 5.59375 -4.34375 C 5.59375 -2.59375 6.347656 -1.71875 7.859375 -1.71875 C 8.691406 -1.71875 9.40625 -1.953125 10 -2.421875 Z M 10.296875 -2.421875 "/></g></g></g></svg>